IntelOneMono-BoldItalic-mstr.ufo
<glyph name="exclam" format="2">
  <advance width="614"/>
  <unicode hex="0021"/>
  <outline>
    <contour>
      <point x="269.4284718551898" y="277.0" type="line"/>
      <point x="367.4284718551898" y="277.0" type="line"/>
      <point x="575.5892238887536" y="710.0" type="line"/>
      <point x="310.5892238887536" y="710.0" type="line"/>
    </contour>
    <contour>
      <point x="272" y="161" type="curve" smooth="yes"/>
      <point x="159.0" y="161.0"/>
      <point x="126.0" y="105.0"/>
      <point x="126" y="46" type="curve" smooth="yes"/>
      <point x="126" y="5"/>
      <point x="156" y="-15"/>
      <point x="234" y="-15" type="curve" smooth="yes"/>
      <point x="347.0" y="-15.0"/>
      <point x="380.0" y="41.0"/>
      <point x="380" y="100" type="curve" smooth="yes"/>
      <point x="380" y="141"/>
      <point x="350" y="161"/>
    </contour>
  </outline>
</glyph>
<glyph name="numbersign" format="2">
  <advance width="614"/>
  <unicode hex="0023"/>
  <outline>
    <contour>
      <point x="328" y="666.0" type="line"/>
      <point x="71" y="-12.0" type="line"/>
      <point x="160" y="-12.0" type="line"/>
      <point x="243" y="207.0" type="line"/>
      <point x="225" y="207.0" type="line"/>
      <point x="319" y="454.0" type="line"/>
      <point x="337" y="454.0" type="line"/>
      <point x="418" y="666.0" type="line"/>
    </contour>
    <contour>
      <point x="508" y="666.0" type="line"/>
      <point x="427" y="454.0" type="line"/>
      <point x="445" y="453.0" type="line"/>
      <point x="352" y="211.0" type="line"/>
      <point x="334" y="210.0" type="line"/>
      <point x="250" y="-12.0" type="line"/>
      <point x="340" y="-12.0" type="line"/>
      <point x="598" y="666.0" type="line"/>
    </contour>
    <contour>
      <point x="448" y="438.0" type="line"/>
      <point x="477" y="438.0" type="line"/>
      <point x="464" y="382.0" type="line"/>
      <point x="629" y="382.0" type="line"/>
      <point x="629" y="521.0" type="line"/>
      <point x="492" y="521.0" type="line"/>
      <point x="491" y="521.0" type="line"/>
      <point x="464" y="521.0" type="line"/>
    </contour>
    <contour>
      <point x="354" y="140.0" type="line"/>
      <point x="355" y="140.0" type="line"/>
      <point x="555" y="140.0" type="line"/>
      <point x="555" y="279.0" type="line"/>
      <point x="403" y="279.0" type="line"/>
      <point x="390" y="221.0" type="line"/>
      <point x="358" y="221.0" type="line"/>
      <point x="344" y="140.0" type="line"/>
    </contour>
    <contour>
      <point x="115" y="382.0" type="line"/>
      <point x="258" y="382.0" type="line"/>
      <point x="274" y="438.0" type="line"/>
      <point x="448" y="438.0" type="line"/>
      <point x="464" y="521.0" type="line"/>
      <point x="282" y="521.0" type="line"/>
      <point x="281" y="521.0" type="line"/>
      <point x="115" y="521.0" type="line"/>
    </contour>
    <contour>
      <point x="41" y="140.0" type="line"/>
      <point x="184" y="140.0" type="line"/>
      <point x="184" y="140.0" type="line"/>
      <point x="344" y="140.0" type="line"/>
      <point x="358" y="221.0" type="line"/>
      <point x="194" y="221.0" type="line"/>
      <point x="210" y="279.0" type="line"/>
      <point x="41" y="279.0" type="line"/>
    </contour>
  </outline>
</glyph>
<glyph name="dollar" format="2">
  <advance width="614"/>
  <unicode hex="0024"/>
  <outline>
    <contour>
      <point x="196" y="-142.0" type="line"/>
      <point x="256" y="29.0" type="line"/>
      <point x="165" y="29.0" type="line"/>
      <point x="105" y="-142.0" type="line"/>
    </contour>
    <contour>
      <point x="511" y="630.0" type="line"/>
      <point x="570" y="797.0" type="line"/>
      <point x="479" y="797.0" type="line"/>
      <point x="420" y="630.0" type="line"/>
    </contour>
    <contour>
      <point x="310" y="119" type="curve" smooth="yes"/>
      <point x="231" y="119"/>
      <point x="141" y="144"/>
      <point x="50" y="175" type="curve"/>
      <point x="10" y="56" type="line"/>
      <point x="103" y="24"/>
      <point x="201" y="-1"/>
      <point x="312" y="-1" type="curve" smooth="yes"/>
      <point x="471" y="-1.0"/>
      <point x="552.0" y="78.0"/>
      <point x="552" y="192" type="curve" smooth="yes"/>
      <point x="552.0" y="278"/>
      <point x="520" y="314"/>
      <point x="403" y="375" type="curve" smooth="yes"/>
      <point x="351" y="402" type="line" smooth="yes"/>
      <point x="298" y="429"/>
      <point x="284.0" y="448"/>
      <point x="284" y="473" type="curve" smooth="yes"/>
      <point x="284.0" y="513"/>
      <point x="312" y="537.0"/>
      <point x="387" y="537" type="curve" smooth="yes"/>
      <point x="443" y="537"/>
      <point x="508" y="523"/>
      <point x="591" y="497" type="curve"/>
      <point x="627" y="614" type="line"/>
      <point x="545" y="639"/>
      <point x="477" y="655"/>
      <point x="390" y="655" type="curve" smooth="yes"/>
      <point x="224" y="655.0"/>
      <point x="137.0" y="572.0"/>
      <point x="137" y="465" type="curve" smooth="yes"/>
      <point x="137.0" y="385"/>
      <point x="173" y="339"/>
      <point x="268" y="289" type="curve" smooth="yes"/>
      <point x="320" y="262" type="line" smooth="yes"/>
      <point x="395" y="223"/>
      <point x="404" y="207"/>
      <point x="404" y="177" type="curve" smooth="yes"/>
      <point x="404" y="138"/>
      <point x="379" y="119.0"/>
    </contour>
  </outline>
</glyph>
<glyph name="percent" format="2">
  <advance width="614"/>
  <unicode hex="0025"/>
  <outline>
    <contour>
      <point x="230" y="319" type="curve" smooth="yes"/>
      <point x="361.0" y="319.0"/>
      <point x="423.0" y="449.0"/>
      <point x="423" y="555" type="curve" smooth="yes"/>
      <point x="423" y="628"/>
      <point x="382" y="670"/>
      <point x="297" y="670" type="curve" smooth="yes"/>
      <point x="166.0" y="670.0"/>
      <point x="104.0" y="540"/>
      <point x="104" y="434" type="curve" smooth="yes"/>
      <point x="104" y="361"/>
      <point x="145" y="319"/>
    </contour>
    <contour>
      <point x="291" y="595" type="curve" smooth="yes"/>
      <point x="324.0" y="595.0"/>
      <point x="338" y="577"/>
      <point x="338" y="544" type="curve" smooth="yes"/>
      <point x="338.0" y="482.0"/>
      <point x="301.0" y="394.0"/>
      <point x="236" y="394" type="curve" smooth="yes"/>
      <point x="203.0" y="394.0"/>
      <point x="189" y="412"/>
      <point x="189" y="445" type="curve" smooth="yes"/>
      <point x="189" y="507.0"/>
      <point x="226.0" y="595.0"/>
    </contour>
    <contour>
      <point x="213" y="277" type="line"/>
      <point x="-54" y="1" type="line"/>
      <point x="-55" y="-5" type="line"/>
      <point x="75" y="-5" type="line"/>
      <point x="265" y="277" type="line"/>
    </contour>
    <contour>
      <point x="452" y="378" type="line"/>
      <point x="720" y="654" type="line"/>
      <point x="721" y="660" type="line"/>
      <point x="591" y="660" type="line"/>
      <point x="400" y="378" type="line"/>
    </contour>
    <contour>
      <point x="369" y="-15" type="curve" smooth="yes"/>
      <point x="500.0" y="-15.0"/>
      <point x="562.0" y="115.0"/>
      <point x="562" y="221" type="curve" smooth="yes"/>
      <point x="562" y="294"/>
      <point x="521" y="336"/>
      <point x="436" y="336" type="curve" smooth="yes"/>
      <point x="305.0" y="336.0"/>
      <point x="243.0" y="206"/>
      <point x="243" y="100" type="curve" smooth="yes"/>
      <point x="243" y="27"/>
      <point x="284" y="-15"/>
    </contour>
    <contour>
      <point x="430" y="261" type="curve" smooth="yes"/>
      <point x="463.0" y="261.0"/>
      <point x="477" y="243"/>
      <point x="477" y="210" type="curve" smooth="yes"/>
      <point x="477.0" y="148.0"/>
      <point x="440.0" y="60.0"/>
      <point x="375" y="60" type="curve" smooth="yes"/>
      <point x="342.0" y="60.0"/>
      <point x="328" y="78"/>
      <point x="328" y="111" type="curve" smooth="yes"/>
      <point x="328" y="173.0"/>
      <point x="365.0" y="261.0"/>
    </contour>
  </outline>
</glyph>
<glyph name="ampersand" format="2">
  <advance width="614"/>
  <unicode hex="0026"/>
  <outline>
    <contour>
      <point x="158" y="351"/>
      <point x="104" y="325"/>
      <point x="70" y="291" type="curve" smooth="yes"/>
      <point x="28" y="249"/>
      <point x="18" y="200"/>
      <point x="18" y="137" type="curve" smooth="yes"/>
      <point x="18" y="47.0"/>
      <point x="72.0" y="-14"/>
      <point x="175" y="-14" type="curve" smooth="yes"/>
      <point x="245.0" y="-14.0"/>
      <point x="295.0" y="7"/>
      <point x="393" y="119" type="curve"/>
      <point x="401" y="113" type="line"/>
      <point x="602" y="350" type="line"/>
      <point x="517" y="422" type="line"/>
      <point x="341" y="197" type="line"/>
      <point x="337" y="197" type="line"/>
      <point x="277.0" y="120.0"/>
      <point x="254.0" y="105.0"/>
      <point x="213" y="105" type="curve" smooth="yes"/>
      <point x="175.0" y="105.0"/>
      <point x="156" y="125"/>
      <point x="156.0" y="162" type="curve" smooth="yes"/>
      <point x="156.0" y="191"/>
      <point x="163" y="218"/>
      <point x="180" y="235" type="curve" smooth="yes"/>
      <point x="199" y="254"/>
      <point x="213" y="263"/>
      <point x="317" y="294" type="curve"/>
      <point x="317" y="387" type="line"/>
    </contour>
    <contour>
      <point x="581" y="655" type="line"/>
      <point x="500" y="668"/>
      <point x="455" y="669"/>
      <point x="415" y="669" type="curve" smooth="yes"/>
      <point x="291.0" y="669.0"/>
      <point x="209" y="593"/>
      <point x="209" y="487" type="curve" smooth="yes"/>
      <point x="209" y="447"/>
      <point x="222" y="409"/>
      <point x="243" y="352" type="curve" smooth="yes"/>
      <point x="338" y="98" type="line"/>
      <point x="346" y="98" type="line"/>
      <point x="379" y="-1" type="line"/>
      <point x="518" y="-1" type="line"/>
      <point x="448" y="195" type="line"/>
      <point x="441" y="195" type="line"/>
      <point x="354" y="439" type="line" smooth="yes"/>
      <point x="347" y="458"/>
      <point x="345" y="471"/>
      <point x="345" y="483" type="curve" smooth="yes"/>
      <point x="345.0" y="529.9445663126837"/>
      <point x="380.1398311405785" y="559.0"/>
      <point x="438" y="559" type="curve" smooth="yes"/>
      <point x="467" y="559"/>
      <point x="500" y="556"/>
      <point x="557" y="548" type="curve"/>
    </contour>
  </outline>
</glyph>
<glyph name="parenleft" format="2">
  <advance width="614"/>
  <unicode hex="0028"/>
  <outline>
    <contour>
      <point x="280" y="651"/>
      <point x="111" y="452"/>
      <point x="111" y="234" type="curve" smooth="yes"/>
      <point x="111" y="90"/>
      <point x="202" y="-37"/>
      <point x="380" y="-151" type="curve"/>
      <point x="470" y="-60" type="line"/>
      <point x="314" y="37"/>
      <point x="257" y="147"/>
      <point x="257" y="235" type="curve" smooth="yes"/>
      <point x="257" y="383"/>
      <point x="331" y="536"/>
      <point x="693" y="713" type="curve"/>
      <point x="620" y="809" type="line"/>
    </contour>
  </outline>
</glyph>
<glyph name="parenright" format="2">
  <advance width="614"/>
  <unicode hex="0029"/>
  <outline>
    <contour>
      <point x="387" y="7"/>
      <point x="556" y="206"/>
      <point x="556" y="424" type="curve" smooth="yes"/>
      <point x="556" y="568"/>
      <point x="465" y="695"/>
      <point x="287" y="809" type="curve"/>
      <point x="197" y="718" type="line"/>
      <point x="353" y="621"/>
      <point x="410" y="511"/>
      <point x="410" y="423" type="curve" smooth="yes"/>
      <point x="410" y="275"/>
      <point x="336" y="122"/>
      <point x="-26" y="-55" type="curve"/>
      <point x="47" y="-151" type="line"/>
    </contour>
  </outline>
</glyph>
<glyph name="asterisk" format="2">
  <advance width="614"/>
  <unicode hex="002A"/>
  <outline>
    <contour>
      <point x="316.507866558618" y="354.0" type="line"/>
      <point x="366.507866558618" y="354.0" type="line"/>
      <point x="379.984899689282" y="401.0" type="line"/>
      <point x="329.984899689282" y="401.0" type="line"/>
    </contour>
    <contour>
      <point x="482.649593028049" y="630.0" type="curve"/>
      <point x="358.649593028049" y="630.0" type="line"/>
      <point x="339.15090679645004" y="562.0"/>
      <point x="360.93896595060994" y="495.0"/>
      <point x="333.69815430352315" y="400.0" type="curve"/>
      <point x="375.69815430352315" y="400.0" type="line"/>
      <point x="402.3654751790923" y="493.0"/>
      <point x="463.15090679645004" y="562.0"/>
    </contour>
    <contour>
      <point x="104.8451358465584" y="404.0" type="line"/>
      <point x="162.75506733188405" y="381.916742484895"/>
      <point x="248.28653354504004" y="401.11933403838464"/>
      <point x="328" y="371.0" type="curve"/>
      <point x="347" y="404.0" type="line"/>
      <point x="266.9890098811996" y="435.6780536270892"/>
      <point x="236.48436908914158" y="499.22940470626435"/>
      <point x="179.39434598033893" y="521.0" type="curve"/>
    </contour>
    <contour>
      <point x="101.81167488180225" y="233.0" type="curve"/>
      <point x="171.87204402109762" y="153.0" type="line"/>
      <point x="231.594395173388" y="204.08411309496006"/>
      <point x="268.8015724184709" y="280.8909916963431"/>
      <point x="350" y="351.0" type="curve"/>
      <point x="323" y="383.0" type="line"/>
      <point x="240.33993252815958" y="310.98745514160913"/>
      <point x="160.74166817861263" y="285.0169770062602"/>
    </contour>
    <contour>
      <point x="516" y="230.0" type="line"/>
      <point x="486.375574006682" y="282.95669996195306"/>
      <point x="415.14972575439583" y="307.0090114984852"/>
      <point x="373" y="380.0" type="curve"/>
      <point x="339" y="358.0" type="line"/>
      <point x="379.9582278349589" y="288.071318330558"/>
      <point x="366.5414795034121" y="203.92374037534933"/>
      <point x="396.8720440210976" y="153.0" type="curve"/>
    </contour>
    <contour>
      <point x="591" y="519.0" type="line"/>
      <point x="522.9980175341857" y="497.7216940444029"/>
      <point x="459.945562194387" y="434.9577172027946"/>
      <point x="364" y="404.0" type="curve"/>
      <point x="368" y="365.0" type="line"/>
      <point x="464.17177247607424" y="395.17868101601545"/>
      <point x="537.1208568283629" y="381.8698680116463"/>
      <point x="607.8451358465584" y="404.0" type="curve"/>
    </contour>
  </outline>
</glyph>
<glyph name="plus" format="2">
  <advance width="614"/>
  <unicode hex="002B"/>
  <outline>
    <contour>
      <point x="340" y="581.0" type="line"/>
      <point x="196" y="79.0" type="line"/>
      <point x="327" y="79.0" type="line"/>
      <point x="471" y="581.0" type="line"/>
    </contour>
    <contour>
      <point x="72" y="272.0" type="line"/>
      <point x="561" y="272.0" type="line"/>
      <point x="594" y="388.0" type="line"/>
      <point x="105" y="388.0" type="line"/>
    </contour>
  </outline>
</glyph>
<glyph name="comma" format="2">
  <advance width="614"/>
  <unicode hex="002C"/>
  <outline>
    <contour>
      <point x="-38.03346096475615" y="-171.0" type="line"/>
      <point x="103" y="-171.0" type="line"/>
      <point x="288" y="-61"/>
      <point x="325.0" y="-14.0"/>
      <point x="415" y="160.0" type="curve"/>
      <point x="199" y="160.0" type="line"/>
      <point x="141.0" y="4.0"/>
      <point x="115.0" y="-25.0"/>
      <point x="-37" y="-169.0" type="curve"/>
    </contour>
  </outline>
</glyph>
<glyph name="hyphen" format="2">
  <advance width="614"/>
  <unicode hex="002D"/>
  <outline>
    <contour>
      <point x="151.78739424406515" y="348.0" type="line"/>
      <point x="110.49605869479683" y="204.0" type="line"/>
      <point x="484.49605869479683" y="204.0" type="line"/>
      <point x="525.7873942440651" y="348.0" type="line"/>
    </contour>
  </outline>
</glyph>
<glyph name="period" format="2">
  <advance width="614"/>
  <unicode hex="002E"/>
  <outline>
    <contour>
      <point x="254" y="-15" type="curve" smooth="yes"/>
      <point x="355.0" y="-15.0"/>
      <point x="397.0" y="49.0"/>
      <point x="397" y="123" type="curve" smooth="yes"/>
      <point x="397" y="177"/>
      <point x="358" y="202"/>
      <point x="277" y="202" type="curve" smooth="yes"/>
      <point x="174.0" y="202.0"/>
      <point x="136" y="131.0"/>
      <point x="136" y="67" type="curve" smooth="yes"/>
      <point x="136" y="12"/>
      <point x="175" y="-15"/>
    </contour>
  </outline>
</glyph>
<glyph name="slash" format="2">
  <advance width="614"/>
  <unicode hex="002F"/>
  <outline>
    <contour>
      <point x="726" y="755.0" type="line"/>
      <point x="583" y="755.0" type="line"/>
      <point x="-61" y="-100.0" type="line"/>
      <point x="83" y="-100.0" type="line"/>
    </contour>
  </outline>
</glyph>
<glyph name="zero" format="2">
  <advance width="614"/>
  <unicode hex="0030"/>
  <outline>
    <contour>
      <point x="179" y="273" type="line"/>
      <point x="147" y="153" type="line"/>
      <point x="491" y="383" type="line"/>
      <point x="523" y="503" type="line"/>
    </contour>
    <contour>
      <point x="406" y="670" type="curve" smooth="yes"/>
      <point x="331" y="670"/>
      <point x="268" y="638"/>
      <point x="226" y="596" type="curve" smooth="yes"/>
      <point x="144" y="514"/>
      <point x="60" y="314"/>
      <point x="60" y="159" type="curve" smooth="yes"/>
      <point x="60" y="43"/>
      <point x="127" y="-15"/>
      <point x="260" y="-15" type="curve" smooth="yes"/>
      <point x="335" y="-15"/>
      <point x="398" y="17"/>
      <point x="440" y="59" type="curve" smooth="yes"/>
      <point x="522" y="141"/>
      <point x="606" y="341"/>
      <point x="606" y="496" type="curve" smooth="yes"/>
      <point x="606" y="612"/>
      <point x="539" y="670"/>
    </contour>
    <contour>
      <point x="268" y="110" type="curve" smooth="yes"/>
      <point x="219" y="110"/>
      <point x="196.0" y="128.82608695652175"/>
      <point x="196" y="184" type="curve" smooth="yes"/>
      <point x="196" y="272"/>
      <point x="256" y="453"/>
      <point x="314" y="511" type="curve" smooth="yes"/>
      <point x="338" y="535"/>
      <point x="365" y="544"/>
      <point x="398" y="544" type="curve" smooth="yes"/>
      <point x="446" y="544"/>
      <point x="470" y="526"/>
      <point x="470" y="471" type="curve" smooth="yes"/>
      <point x="470" y="383"/>
      <point x="410" y="202"/>
      <point x="352" y="144" type="curve" smooth="yes"/>
      <point x="328" y="120"/>
      <point x="301" y="110"/>
    </contour>
  </outline>
</glyph>
<glyph name="one" format="2">
  <advance width="614"/>
  <unicode hex="0031"/>
  <outline>
    <contour>
      <point x="494" y="665.0" type="line"/>
      <point x="380" y="583.0" type="line"/>
      <point x="168.0" y="0.0" type="line"/>
      <point x="313.0" y="0.0" type="line"/>
      <point x="549" y="665.0" type="line"/>
    </contour>
    <contour>
      <point x="170" y="401.0" type="line"/>
      <point x="454" y="522.0" type="line"/>
      <point x="494" y="665.0" type="line"/>
      <point x="210" y="545.0" type="line"/>
    </contour>
    <contour>
      <point x="27.0" y="0.0" type="line"/>
      <point x="469.0" y="0.0" type="line"/>
      <point x="503.40944629105695" y="120.0" type="line"/>
      <point x="61.40944629105695" y="120.0" type="line"/>
    </contour>
  </outline>
</glyph>
<glyph name="two" format="2">
  <advance width="614"/>
  <unicode hex="0032"/>
  <outline>
    <contour>
      <point x="4.0" y="0.0" type="line"/>
      <point x="491.0" y="0.0" type="line"/>
      <point x="525.409446291057" y="120.0" type="line"/>
      <point x="95.40944629105695" y="120.0" type="line"/>
      <point x="4" y="70.0" type="line"/>
    </contour>
    <contour>
      <point x="590" y="388"/>
      <point x="614" y="448"/>
      <point x="614" y="511" type="curve" smooth="yes"/>
      <point x="614" y="609"/>
      <point x="523" y="670"/>
      <point x="427" y="670" type="curve" smooth="yes"/>
      <point x="332" y="670"/>
      <point x="249" y="632"/>
      <point x="131" y="534" type="curve"/>
      <point x="197" y="439" type="line"/>
      <point x="327" y="533"/>
      <point x="364" y="545"/>
      <point x="406" y="545" type="curve" smooth="yes"/>
      <point x="440" y="545"/>
      <point x="463" y="526"/>
      <point x="463" y="497" type="curve" smooth="yes"/>
      <point x="463" y="455"/>
      <point x="421" y="414"/>
      <point x="272" y="291" type="curve" smooth="yes"/>
      <point x="4" y="70" type="line"/>
      <point x="235" y="85" type="line"/>
      <point x="235" y="150" type="line"/>
      <point x="207" y="102" type="line"/>
      <point x="405" y="250" type="line" smooth="yes"/>
    </contour>
  </outline>
</glyph>
<glyph name="three" format="2">
  <advance width="614"/>
  <unicode hex="0033"/>
  <outline>
    <contour>
      <point x="397" y="352" type="line"/>
      <point x="397" y="414" type="line"/>
      <point x="370" y="365" type="line"/>
      <point x="635" y="585" type="line"/>
      <point x="422" y="585" type="line"/>
      <point x="422" y="505" type="line"/>
      <point x="449" y="554" type="line"/>
      <point x="195" y="349" type="line"/>
      <point x="202" y="282" type="line"/>
      <point x="376" y="282"/>
      <point x="396" y="266"/>
      <point x="396" y="226" type="curve" smooth="yes"/>
      <point x="396" y="184"/>
      <point x="343" y="144"/>
      <point x="153" y="130" type="curve" smooth="yes"/>
      <point x="40" y="122" type="line"/>
      <point x="15" y="-10" type="line"/>
      <point x="165" y="-1" type="line" smooth="yes"/>
      <point x="443" y="17"/>
      <point x="548" y="104"/>
      <point x="548" y="242" type="curve" smooth="yes"/>
      <point x="548" y="328"/>
      <point x="495" y="372"/>
      <point x="377" y="387" type="curve"/>
    </contour>
    <contour>
      <point x="152" y="535.0" type="line"/>
      <point x="521" y="535.0" type="line"/>
      <point x="635" y="585.0" type="line"/>
      <point x="635" y="655.0" type="line"/>
      <point x="187" y="655.0" type="line"/>
    </contour>
  </outline>
</glyph>
<glyph name="four" format="2">
  <advance width="614"/>
  <unicode hex="0034"/>
  <outline>
    <contour>
      <point x="10" y="151.0" type="line"/>
      <point x="568" y="151.0" type="line"/>
      <point x="601" y="264.0" type="line"/>
      <point x="407" y="264.0" type="line"/>
      <point x="391" y="249.0" type="line"/>
      <point x="77" y="249.0" type="line"/>
      <point x="38" y="247.0" type="line"/>
    </contour>
    <contour>
      <point x="168" y="213" type="line"/>
      <point x="168" y="279" type="line"/>
      <point x="144" y="227" type="line"/>
      <point x="502" y="609" type="line"/>
      <point x="509" y="655" type="line"/>
      <point x="425" y="655" type="line"/>
      <point x="38" y="247" type="line"/>
    </contour>
    <contour>
      <point x="608" y="655.0" type="line"/>
      <point x="486" y="655.0" type="line"/>
      <point x="336" y="227.0" type="line"/>
      <point x="323" y="224.0" type="line"/>
      <point x="250" y="0.0" type="line"/>
      <point x="384" y="0.0" type="line"/>
    </contour>
  </outline>
</glyph>
<glyph name="five" format="2">
  <advance width="614"/>
  <unicode hex="0035"/>
  <outline>
    <contour>
      <point x="242" y="655.0" type="line"/>
      <point x="205" y="546.0" type="line"/>
      <point x="218" y="535.0" type="line"/>
      <point x="585" y="535.0" type="line"/>
      <point x="620" y="655.0" type="line"/>
    </contour>
    <contour>
      <point x="227" y="655.0" type="line"/>
      <point x="105" y="302.0" type="line"/>
      <point x="106" y="297.0" type="line"/>
      <point x="203" y="277.0" type="line"/>
      <point x="251" y="366.0" type="line"/>
      <point x="355" y="655.0" type="line"/>
    </contour>
    <contour>
      <point x="458" y="28"/>
      <point x="549" y="138"/>
      <point x="549" y="282" type="curve" smooth="yes"/>
      <point x="549" y="372"/>
      <point x="487" y="423"/>
      <point x="388" y="423.0" type="curve" smooth="yes"/>
      <point x="331" y="423.0"/>
      <point x="286" y="413"/>
      <point x="224" y="377" type="curve"/>
      <point x="203" y="277" type="line"/>
      <point x="249" y="299"/>
      <point x="295" y="314"/>
      <point x="326" y="314" type="curve" smooth="yes"/>
      <point x="381" y="314"/>
      <point x="400.0" y="291.0"/>
      <point x="400.0" y="259" type="curve" smooth="yes"/>
      <point x="400.0" y="211.0"/>
      <point x="351" y="145"/>
      <point x="151" y="127" type="curve" smooth="yes"/>
      <point x="29" y="116" type="line"/>
      <point x="7" y="-10" type="line"/>
      <point x="126" y="0" type="line" smooth="yes"/>
    </contour>
  </outline>
</glyph>
<glyph name="six" format="2">
  <advance width="614"/>
  <unicode hex="0036"/>
  <outline>
    <contour>
      <point x="197" y="261"/>
      <point x="238" y="351"/>
      <point x="449" y="524" type="curve" smooth="yes"/>
      <point x="606" y="653" type="line"/>
      <point x="606" y="655" type="line"/>
      <point x="420" y="655" type="line"/>
      <point x="303" y="557" type="line" smooth="yes"/>
      <point x="100" y="387"/>
      <point x="50" y="290.0"/>
      <point x="50" y="175" type="curve" smooth="yes"/>
      <point x="50" y="64.0"/>
      <point x="124.0" y="-15"/>
      <point x="271.0" y="-15.0" type="curve" smooth="yes"/>
      <point x="450" y="-15"/>
      <point x="558" y="116"/>
      <point x="558.0" y="247.0" type="curve" smooth="yes"/>
      <point x="558" y="343"/>
      <point x="518" y="406"/>
      <point x="324" y="452" type="curve"/>
      <point x="248" y="368" type="line"/>
      <point x="382" y="337"/>
      <point x="410" y="300"/>
      <point x="410.0" y="237.0" type="curve" smooth="yes"/>
      <point x="410" y="168"/>
      <point x="362" y="102"/>
      <point x="283.0" y="102.0" type="curve" smooth="yes"/>
      <point x="231.0" y="102.0"/>
      <point x="197" y="132.0"/>
      <point x="197" y="195" type="curve" smooth="yes"/>
    </contour>
  </outline>
</glyph>
<glyph name="seven" format="2">
  <advance width="614"/>
  <unicode hex="0037"/>
  <outline>
    <contour>
      <point x="657.8182276720192" y="655.0" type="line"/>
      <point x="179.8182276720192" y="655.0" type="line"/>
      <point x="145.40878138096224" y="535.0" type="line"/>
      <point x="568.4087813809622" y="535.0" type="line"/>
      <point x="622" y="529.0" type="line"/>
    </contour>
    <contour>
      <point x="217" y="0" type="line"/>
      <point x="622" y="529" type="line"/>
      <point x="472" y="590" type="line"/>
      <point x="472" y="505" type="line"/>
      <point x="495" y="558" type="line"/>
      <point x="46" y="2" type="line"/>
      <point x="46" y="0" type="line"/>
    </contour>
  </outline>
</glyph>
<glyph name="eight" format="2">
  <advance width="614"/>
  <unicode hex="0038"/>
  <outline>
    <contour>
      <point x="440" y="321" type="line"/>
      <point x="440" y="326" type="line"/>
      <point x="549" y="344"/>
      <point x="611" y="413"/>
      <point x="611" y="504" type="curve" smooth="yes"/>
      <point x="611" y="594"/>
      <point x="535" y="670"/>
      <point x="383" y="670" type="curve" smooth="yes"/>
      <point x="228" y="670"/>
      <point x="148" y="562"/>
      <point x="148" y="474" type="curve" smooth="yes"/>
      <point x="148" y="420"/>
      <point x="178" y="377"/>
      <point x="232" y="351" type="curve"/>
    </contour>
    <contour>
      <point x="360" y="378" type="curve" smooth="yes"/>
      <point x="307.0" y="378"/>
      <point x="277.0" y="405.0"/>
      <point x="277" y="448" type="curve" smooth="yes"/>
      <point x="277" y="510"/>
      <point x="326" y="560"/>
      <point x="388" y="560" type="curve" smooth="yes"/>
      <point x="444.0" y="560.0"/>
      <point x="471.0" y="530.0"/>
      <point x="471" y="488" type="curve" smooth="yes"/>
      <point x="471" y="429"/>
      <point x="425" y="378"/>
    </contour>
    <contour>
      <point x="281" y="-15" type="curve" smooth="yes"/>
      <point x="429" y="-15"/>
      <point x="537" y="72"/>
      <point x="537" y="185" type="curve" smooth="yes"/>
      <point x="537" y="244"/>
      <point x="500" y="292"/>
      <point x="440" y="321" type="curve"/>
      <point x="232" y="351" type="line"/>
      <point x="232" y="346" type="line"/>
      <point x="111" y="327"/>
      <point x="39" y="251"/>
      <point x="39" y="158" type="curve" smooth="yes"/>
      <point x="39" y="52"/>
      <point x="139" y="-15"/>
    </contour>
    <contour>
      <point x="279" y="94" type="curve" smooth="yes"/>
      <point x="221.0" y="94.0"/>
      <point x="181" y="124.0"/>
      <point x="181" y="174" type="curve" smooth="yes"/>
      <point x="181" y="234"/>
      <point x="227" y="289"/>
      <point x="304" y="289" type="curve" smooth="yes"/>
      <point x="370.0" y="289.0"/>
      <point x="406.0" y="255.0"/>
      <point x="406" y="213" type="curve" smooth="yes"/>
      <point x="406" y="146"/>
      <point x="350" y="94"/>
    </contour>
  </outline>
</glyph>
<glyph name="nine" format="2">
  <advance width="614"/>
  <unicode hex="0039"/>
  <outline>
    <contour>
      <point x="470.0" y="394.0"/>
      <point x="429.0" y="304.0"/>
      <point x="218.0" y="131.0" type="curve" smooth="yes"/>
      <point x="61.0" y="2.0" type="line"/>
      <point x="61.0" y="0.0" type="line"/>
      <point x="247.0" y="0.0" type="line"/>
      <point x="364.0" y="98.0" type="line" smooth="yes"/>
      <point x="567.0" y="268.0"/>
      <point x="617.0" y="365.0"/>
      <point x="617.0" y="480.0" type="curve" smooth="yes"/>
      <point x="617.0" y="591.0"/>
      <point x="543.0" y="670.0"/>
      <point x="396.0" y="670.0" type="curve" smooth="yes"/>
      <point x="217.0" y="670.0"/>
      <point x="109.0" y="539.0"/>
      <point x="109.0" y="408.0" type="curve" smooth="yes"/>
      <point x="109.0" y="312.0"/>
      <point x="149.0" y="249.0"/>
      <point x="343.0" y="203.0" type="curve"/>
      <point x="419.0" y="287.0" type="line"/>
      <point x="285.0" y="318.0"/>
      <point x="257.0" y="355.0"/>
      <point x="257.0" y="418.0" type="curve" smooth="yes"/>
      <point x="257.0" y="487.0"/>
      <point x="305.0" y="553.0"/>
      <point x="384.0" y="553.0" type="curve" smooth="yes"/>
      <point x="436.0" y="553.0"/>
      <point x="470.0" y="523.0"/>
      <point x="470.0" y="460.0" type="curve" smooth="yes"/>
    </contour>
  </outline>
</glyph>
<glyph name="colon" format="2">
  <advance width="614"/>
  <unicode hex="003A"/>
  <outline>
    <contour>
      <point x="332" y="292" type="curve" smooth="yes"/>
      <point x="423.0" y="292.0"/>
      <point x="480.0" y="344.0"/>
      <point x="480" y="418" type="curve" smooth="yes"/>
      <point x="480" y="467"/>
      <point x="442" y="491"/>
      <point x="370" y="491" type="curve" smooth="yes"/>
      <point x="279.0" y="491.0"/>
      <point x="222" y="439.0"/>
      <point x="222" y="365" type="curve" smooth="yes"/>
      <point x="222" y="316"/>
      <point x="260" y="292"/>
    </contour>
    <contour>
      <point x="245" y="-15" type="curve" smooth="yes"/>
      <point x="336.0" y="-15.0"/>
      <point x="393.0" y="37.0"/>
      <point x="393" y="111" type="curve" smooth="yes"/>
      <point x="393" y="160"/>
      <point x="355" y="184"/>
      <point x="283" y="184" type="curve" smooth="yes"/>
      <point x="192.0" y="184.0"/>
      <point x="135" y="132.0"/>
      <point x="135" y="58" type="curve" smooth="yes"/>
      <point x="135" y="9"/>
      <point x="173" y="-15"/>
    </contour>
  </outline>
</glyph>
<glyph name="semicolon" format="2">
  <advance width="614"/>
  <unicode hex="003B"/>
  <outline>
    <contour>
      <point x="349" y="292" type="curve" smooth="yes"/>
      <point x="440.0" y="292.0"/>
      <point x="497.0" y="344.0"/>
      <point x="497" y="418" type="curve" smooth="yes"/>
      <point x="497" y="467"/>
      <point x="459" y="491"/>
      <point x="387" y="491" type="curve" smooth="yes"/>
      <point x="296.0" y="491.0"/>
      <point x="239" y="439.0"/>
      <point x="239" y="365" type="curve" smooth="yes"/>
      <point x="239" y="316"/>
      <point x="277" y="292"/>
    </contour>
    <contour>
      <point x="-45" y="-171.0" type="line"/>
      <point x="96" y="-171.0" type="line"/>
      <point x="281" y="-61"/>
      <point x="318.0" y="-14.0"/>
      <point x="408" y="160.0" type="curve"/>
      <point x="192" y="160.0" type="line"/>
      <point x="134.0" y="4.0"/>
      <point x="108.0" y="-25.0"/>
      <point x="-44" y="-169.0" type="curve"/>
    </contour>
  </outline>
</glyph>
<glyph name="less" format="2">
  <advance width="614"/>
  <unicode hex="003C"/>
  <outline>
    <contour>
      <point x="98" y="271.0" type="line"/>
      <point x="603" y="446.0" type="line"/>
      <point x="645" y="589.0" type="line"/>
      <point x="101" y="387.0" type="line"/>
    </contour>
    <contour>
      <point x="101" y="387" type="line"/>
      <point x="63" y="256" type="line"/>
      <point x="491" y="52" type="line"/>
      <point x="527" y="179" type="line"/>
      <point x="138" y="348" type="line"/>
    </contour>
  </outline>
</glyph>
<glyph name="equal" format="2">
  <advance width="614"/>
  <unicode hex="003D"/>
  <outline>
    <contour>
      <point x="59" y="161.0" type="line"/>
      <point x="510" y="161.0" type="line"/>
      <point x="543" y="276.0" type="line"/>
      <point x="92" y="276.0" type="line"/>
    </contour>
    <contour>
      <point x="123" y="384.0" type="line"/>
      <point x="574" y="384.0" type="line"/>
      <point x="607" y="500.0" type="line"/>
      <point x="156" y="500.0" type="line"/>
    </contour>
  </outline>
</glyph>
<glyph name="greater" format="2">
  <advance width="614"/>
  <unicode hex="003E"/>
  <outline>
    <contour>
      <point x="563" y="370" type="line"/>
      <point x="58" y="195" type="line"/>
      <point x="16" y="52" type="line"/>
      <point x="560" y="254" type="line"/>
    </contour>
    <contour>
      <point x="560" y="254" type="line"/>
      <point x="598" y="385" type="line"/>
      <point x="170" y="589" type="line"/>
      <point x="134" y="462" type="line"/>
      <point x="523" y="293" type="line"/>
    </contour>
  </outline>
</glyph>
<glyph name="question" format="2">
  <advance width="614"/>
  <unicode hex="003F"/>
  <outline>
    <contour>
      <point x="316" y="277" type="line"/>
      <point x="340" y="328"/>
      <point x="348" y="336"/>
      <point x="380" y="349" type="curve" smooth="yes"/>
      <point x="465" y="384" type="line" smooth="yes"/>
      <point x="605" y="442"/>
      <point x="642" y="494"/>
      <point x="642.0" y="579" type="curve" smooth="yes"/>
      <point x="642.0" y="669.0"/>
      <point x="584.0" y="725.0"/>
      <point x="458" y="725.0" type="curve" smooth="yes"/>
      <point x="382" y="725"/>
      <point x="297" y="712"/>
      <point x="152" y="664" type="curve"/>
      <point x="184" y="549" type="line"/>
      <point x="332" y="595"/>
      <point x="384" y="605"/>
      <point x="426" y="605.0" type="curve" smooth="yes"/>
      <point x="468.0" y="605.0"/>
      <point x="489.0" y="587.0"/>
      <point x="489" y="562" type="curve" smooth="yes"/>
      <point x="489.0" y="535"/>
      <point x="481.06895739145403" y="515.9623378833562"/>
      <point x="388" y="478" type="curve" smooth="yes"/>
      <point x="312" y="447" type="line" smooth="yes"/>
      <point x="254" y="423"/>
      <point x="235" y="405"/>
      <point x="227" y="378" type="curve" smooth="yes"/>
      <point x="221" y="357"/>
      <point x="219" y="336"/>
      <point x="218" y="277" type="curve"/>
    </contour>
    <contour>
      <point x="222" y="161" type="curve" smooth="yes"/>
      <point x="109" y="161"/>
      <point x="76" y="105"/>
      <point x="76" y="46" type="curve" smooth="yes"/>
      <point x="76" y="5"/>
      <point x="106" y="-15"/>
      <point x="184" y="-15" type="curve" smooth="yes"/>
      <point x="297" y="-15"/>
      <point x="330" y="41"/>
      <point x="330" y="100" type="curve" smooth="yes"/>
      <point x="330" y="141"/>
      <point x="300" y="161"/>
    </contour>
  </outline>
</glyph>
<glyph name="at" format="2">
  <advance width="614"/>
  <unicode hex="0040"/>
  <outline>
    <contour>
      <point x="359" y="398" type="curve" smooth="yes"/>
      <point x="378" y="417"/>
      <point x="403" y="429"/>
      <point x="434" y="429" type="curve" smooth="yes"/>
      <point x="573" y="429" type="line"/>
      <point x="598" y="515" type="line"/>
      <point x="464" y="515" type="line" smooth="yes"/>
      <point x="389" y="515"/>
      <point x="336" y="501"/>
      <point x="295" y="459" type="curve" smooth="yes"/>
      <point x="248" y="412"/>
      <point x="218" y="315"/>
      <point x="218" y="251" type="curve" smooth="yes"/>
      <point x="218" y="169"/>
      <point x="268" y="129"/>
      <point x="361" y="129" type="curve" smooth="yes"/>
      <point x="421" y="129"/>
      <point x="469" y="143"/>
      <point x="514" y="188" type="curve" smooth="yes"/>
      <point x="579" y="253"/>
      <point x="631" y="477"/>
      <point x="631" y="574" type="curve" smooth="yes"/>
      <point x="631" y="695"/>
      <point x="567" y="725"/>
      <point x="452" y="725" type="curve" smooth="yes"/>
      <point x="373" y="725"/>
      <point x="302" y="702"/>
      <point x="241" y="641" type="curve" smooth="yes"/>
      <point x="139" y="539"/>
      <point x="48" y="269"/>
      <point x="48" y="125" type="curve" smooth="yes"/>
      <point x="48" y="-23"/>
      <point x="122" y="-79"/>
      <point x="268" y="-79" type="curve" smooth="yes"/>
      <point x="314" y="-79"/>
      <point x="357" y="-74"/>
      <point x="415" y="-63" type="curve"/>
      <point x="408" y="-8" type="line"/>
      <point x="348" y="-21"/>
      <point x="306" y="-24"/>
      <point x="272" y="-24" type="curve" smooth="yes"/>
      <point x="167" y="-24"/>
      <point x="109" y="20"/>
      <point x="109" y="136" type="curve" smooth="yes"/>
      <point x="109" y="260"/>
      <point x="193" y="511"/>
      <point x="277" y="595" type="curve" smooth="yes"/>
      <point x="331" y="649"/>
      <point x="384" y="670"/>
      <point x="447" y="670" type="curve" smooth="yes"/>
      <point x="530" y="670"/>
      <point x="570" y="644"/>
      <point x="570" y="561" type="curve" smooth="yes"/>
      <point x="570" y="490"/>
      <point x="526" y="301"/>
      <point x="475" y="250" type="curve" smooth="yes"/>
      <point x="449" y="224"/>
      <point x="414" y="215"/>
      <point x="370" y="215" type="curve" smooth="yes"/>
      <point x="332" y="215"/>
      <point x="311" y="227"/>
      <point x="311" y="266" type="curve" smooth="yes"/>
      <point x="311" y="310"/>
      <point x="326" y="365"/>
    </contour>
  </outline>
</glyph>
<glyph name="A" format="2">
  <advance width="614"/>
  <unicode hex="0041"/>
  <anchor x="427" y="691" name="aboveUC"/>
  <anchor x="416" y="651" name="aboveUCx"/>
  <anchor x="443" y="-10" name="belowogonek"/>
  <anchor x="270" y="-35" name="below"/>
  <anchor x="280" y="0" name="belowx"/>
  <outline>
    <contour>
      <point x="144.1299186056098" y="126.0" type="line"/>
      <point x="391" y="126.0" type="line"/>
      <point x="394" y="239.0" type="line"/>
      <point x="204.53214719635508" y="239.0" type="line"/>
    </contour>
    <contour>
      <point x="111.0" y="0.0" type="line"/>
      <point x="219" y="189.0" type="line"/>
      <point x="217" y="189.0" type="line"/>
      <point x="413" y="553.0" type="line"/>
      <point x="446.81822767201925" y="655.0" type="line"/>
      <point x="335.8182276720192" y="655.0" type="line"/>
      <point x="-40.0" y="0.0" type="line"/>
    </contour>
    <contour>
      <point x="520.0" y="0.0" type="line"/>
      <point x="514" y="655.0" type="line"/>
      <point x="412.8182276720192" y="655.0" type="line"/>
      <point x="393" y="551.0" type="line"/>
      <point x="388" y="185.0" type="line"/>
      <point x="382" y="184.0" type="line"/>
      <point x="380.0" y="0.0" type="line"/>
    </contour>
  </outline>
</glyph>
<glyph name="C" format="2">
  <advance width="614"/>
  <unicode hex="0043"/>
  <anchor x="472" y="696" name="aboveUC"/>
  <anchor x="462" y="661" name="aboveUCx"/>
  <anchor x="275" y="-40" name="below"/>
  <anchor x="271" y="-15" name="belowcedilla"/>
  <outline>
    <contour>
      <point x="282" y="-15.0" type="curve" smooth="yes"/>
      <point x="356.0" y="-15.0"/>
      <point x="437.0" y="5.0"/>
      <point x="530" y="60" type="curve"/>
      <point x="473" y="164" type="line"/>
      <point x="389" y="119"/>
      <point x="342" y="105.0"/>
      <point x="297" y="105.0" type="curve" smooth="yes"/>
      <point x="251.0" y="105.0"/>
      <point x="207" y="140.0"/>
      <point x="207" y="225" type="curve" smooth="yes"/>
      <point x="207.0" y="404.0"/>
      <point x="333.1538461538462" y="550.0"/>
      <point x="447" y="550" type="curve" smooth="yes"/>
      <point x="495.2993197278912" y="550.0"/>
      <point x="525" y="539"/>
      <point x="589" y="488" type="curve"/>
      <point x="665" y="593" type="line"/>
      <point x="597" y="651"/>
      <point x="534.4158878504672" y="670.0"/>
      <point x="458" y="670.0" type="curve" smooth="yes"/>
      <point x="205" y="670"/>
      <point x="59.0" y="432.0"/>
      <point x="59" y="219" type="curve" smooth="yes"/>
      <point x="59" y="63"/>
      <point x="139" y="-15"/>
    </contour>
  </outline>
</glyph>
<glyph name="D" format="2">
  <advance width="614"/>
  <unicode hex="0044"/>
  <anchor x="411" y="691" name="aboveUC"/>
  <anchor x="205" y="-35" name="below"/>
  <outline>
    <contour>
      <point x="195" y="655" type="line"/>
      <point x="7" y="0" type="line"/>
      <point x="44" y="0" type="line"/>
      <point x="160" y="32" type="line"/>
      <point x="324" y="603" type="line"/>
      <point x="275" y="655" type="line"/>
    </contour>
    <contour>
      <point x="289" y="655" type="curve" smooth="yes"/>
      <point x="224" y="655" type="line"/>
      <point x="212" y="537" type="line"/>
      <point x="301" y="537.0" type="line" smooth="yes"/>
      <point x="426.0" y="537.0"/>
      <point x="467.0" y="507.0"/>
      <point x="467" y="422" type="curve" smooth="yes"/>
      <point x="467" y="256"/>
      <point x="342" y="120"/>
      <point x="119" y="120" type="curve"/>
      <point x="86" y="120" type="line"/>
      <point x="29" y="0" type="line"/>
      <point x="77" y="0" type="line" smooth="yes"/>
      <point x="273" y="0"/>
      <point x="413" y="51"/>
      <point x="503" y="141" type="curve" smooth="yes"/>
      <point x="578" y="216"/>
      <point x="615" y="315"/>
      <point x="615" y="429" type="curve" smooth="yes"/>
      <point x="615" y="494"/>
      <point x="596" y="546"/>
      <point x="559" y="583" type="curve" smooth="yes"/>
      <point x="511" y="631"/>
      <point x="428" y="655"/>
    </contour>
  </outline>
</glyph>
<glyph name="E" format="2">
  <advance width="614"/>
  <unicode hex="0045"/>
  <anchor x="443" y="691" name="aboveUC"/>
  <anchor x="396" y="-10" name="belowogonek"/>
  <anchor x="246" y="-35" name="below"/>
  <outline>
    <contour>
      <point x="206.8182276720192" y="655.0" type="line"/>
      <point x="19.0" y="0.0" type="line"/>
      <point x="164.0" y="0.0" type="line"/>
      <point x="351.8182276720192" y="655.0" type="line"/>
    </contour>
    <contour>
      <point x="183.40878138096224" y="535.0" type="line"/>
      <point x="626.4087813809622" y="535.0" type="line"/>
      <point x="660.8182276720192" y="655.0" type="line"/>
      <point x="217.8182276720192" y="655.0" type="line"/>
    </contour>
    <contour>
      <point x="30.0" y="0.0" type="line"/>
      <point x="474.0" y="0.0" type="line"/>
      <point x="508.40944629105695" y="120.0" type="line"/>
      <point x="64.40944629105695" y="120.0" type="line"/>
    </contour>
    <contour>
      <point x="107.42125415487814" y="270.0" type="line"/>
      <point x="518.4212541548782" y="270.0" type="line"/>
      <point x="552.8307004459351" y="390.0" type="line"/>
      <point x="141.8307004459351" y="390.0" type="line"/>
    </contour>
  </outline>
</glyph>
<glyph name="F" format="2">
  <advance width="614"/>
  <unicode hex="0046"/>
  <outline>
    <contour>
      <point x="214.8182276720192" y="655.0" type="line"/>
      <point x="27.0" y="0.0" type="line"/>
      <point x="172.0" y="0.0" type="line"/>
      <point x="359.8182276720192" y="655.0" type="line"/>
    </contour>
    <contour>
      <point x="192.40878138096224" y="535.0" type="line"/>
      <point x="625.4087813809622" y="535.0" type="line"/>
      <point x="659.8182276720192" y="655.0" type="line"/>
      <point x="226.8182276720192" y="655.0" type="line"/>
    </contour>
    <contour>
      <point x="106.67191103907868" y="236.0" type="line"/>
      <point x="511.6719110390786" y="236.0" type="line"/>
      <point x="546.0813573301356" y="356.0" type="line"/>
      <point x="141.08135733013563" y="356.0" type="line"/>
    </contour>
  </outline>
</glyph>
<glyph name="G" format="2">
  <advance width="614"/>
  <unicode hex="0047"/>
  <anchor x="460" y="691" name="aboveUC"/>
  <anchor x="450" y="656" name="aboveUCx"/>
  <anchor x="294" y="-40" name="below"/>
  <outline>
    <contour>
      <point x="615" y="532" type="curve"/>
      <point x="641" y="651" type="line"/>
      <point x="587" y="661"/>
      <point x="542" y="665"/>
      <point x="495" y="665" type="curve" smooth="yes"/>
      <point x="219" y="665"/>
      <point x="55" y="474"/>
      <point x="55.0" y="223.0" type="curve" smooth="yes"/>
      <point x="55" y="69"/>
      <point x="136" y="-15"/>
      <point x="305" y="-15.0" type="curve" smooth="yes"/>
      <point x="364" y="-15.0"/>
      <point x="425" y="-7"/>
      <point x="497" y="11" type="curve"/>
      <point x="602" y="374" type="line"/>
      <point x="352" y="374" type="line"/>
      <point x="320" y="263" type="line"/>
      <point x="504" y="263" type="line"/>
      <point x="453" y="329" type="line"/>
      <point x="374" y="53" type="line"/>
      <point x="430" y="117" type="line"/>
      <point x="390" y="108"/>
      <point x="355" y="105"/>
      <point x="333" y="105" type="curve" smooth="yes"/>
      <point x="241" y="105"/>
      <point x="203" y="142"/>
      <point x="203.0" y="223.0" type="curve" smooth="yes"/>
      <point x="203" y="419"/>
      <point x="311" y="543"/>
      <point x="503" y="543.0" type="curve" smooth="yes"/>
      <point x="540" y="543"/>
      <point x="579" y="540"/>
    </contour>
  </outline>
</glyph>
<glyph name="H" format="2">
  <advance width="614"/>
  <unicode hex="0048"/>
  <anchor x="436" y="691" name="aboveUC"/>
  <anchor x="229" y="-35" name="below"/>
  <anchor x="74" y="-10" name="belowcedilla"/>
  <anchor x="239" y="0" name="belowx"/>
  <anchor x="426" y="656" name="aboveUCx"/>
  <outline>
    <contour>
      <point x="194.8182276720192" y="655.0" type="line"/>
      <point x="7.0" y="0.0" type="line"/>
      <point x="151.0" y="0.0" type="line"/>
      <point x="338.8182276720192" y="655.0" type="line"/>
    </contour>
    <contour>
      <point x="514.8182276720192" y="655.0" type="line"/>
      <point x="327.0" y="0.0" type="line"/>
      <point x="471.0" y="0.0" type="line"/>
      <point x="658.8182276720192" y="655.0" type="line"/>
    </contour>
    <contour>
      <point x="140.42125415487814" y="270.0" type="line"/>
      <point x="491.42125415487817" y="270.0" type="line"/>
      <point x="525.8307004459351" y="390.0" type="line"/>
      <point x="174.8307004459351" y="390.0" type="line"/>
    </contour>
  </outline>
</glyph>
<glyph name="I" format="2">
  <advance width="614"/>
  <unicode hex="0049"/>
  <anchor x="228" y="-35" name="below"/>
  <anchor x="235" y="-10" name="belowogonek"/>
  <anchor x="437" y="691" name="aboveUC"/>
  <anchor x="428" y="661" name="aboveUCx"/>
  <outline>
    <contour>
      <point x="362" y="655.0" type="line"/>
      <point x="160.0" y="0.0" type="line"/>
      <point x="304.0" y="0.0" type="line"/>
      <point x="506" y="655.0" type="line"/>
    </contour>
    <contour>
      <point x="207" y="575.0" type="line"/>
      <point x="418" y="535.0" type="line"/>
      <point x="595" y="575.0" type="line"/>
      <point x="618" y="655.0" type="line"/>
      <point x="230" y="655.0" type="line"/>
    </contour>
    <contour>
      <point x="71" y="80.0" type="line"/>
      <point x="48.0" y="0.0" type="line"/>
      <point x="436.0" y="0.0" type="line"/>
      <point x="459" y="80.0" type="line"/>
      <point x="248" y="120.0" type="line"/>
    </contour>
  </outline>
</glyph>
<glyph name="J" format="2">
  <advance width="614"/>
  <unicode hex="004A"/>
  <anchor x="599" y="691" name="aboveUC"/>
  <anchor x="588" y="651" name="aboveUCx"/>
  <outline>
    <contour>
      <point x="290" y="-16.0" type="curve" smooth="yes"/>
      <point x="416" y="-16"/>
      <point x="490" y="51"/>
      <point x="534" y="205" type="curve" smooth="yes"/>
      <point x="662.8182276720192" y="655.0" type="line"/>
      <point x="517.8182276720192" y="655.0" type="line"/>
      <point x="394" y="224" type="line" smooth="yes"/>
      <point x="372" y="146.0"/>
      <point x="337" y="117"/>
      <point x="285" y="117.0" type="curve" smooth="yes"/>
      <point x="239.0" y="117.0"/>
      <point x="202" y="138"/>
      <point x="108" y="230.0" type="curve"/>
      <point x="13" y="139.0" type="line"/>
      <point x="132" y="13"/>
      <point x="196" y="-16.0"/>
    </contour>
  </outline>
</glyph>
<glyph name="K" format="2">
  <advance width="614"/>
  <unicode hex="004B"/>
  <anchor x="265" y="-35" name="below"/>
  <anchor x="275" y="0" name="belowx"/>
  <outline>
    <contour>
      <point x="342.8182276720192" y="655.0" type="line"/>
      <point x="197.8182276720192" y="655.0" type="line"/>
      <point x="10.0" y="0.0" type="line"/>
      <point x="155.0" y="0.0" type="line"/>
    </contour>
    <contour>
      <point x="239" y="328.0" type="line"/>
      <point x="362" y="286.0" type="line"/>
      <point x="722" y="653.0" type="line"/>
      <point x="722" y="655.0" type="line"/>
      <point x="545" y="655.0" type="line"/>
    </contour>
    <contour>
      <point x="238" y="328.0" type="line"/>
      <point x="375" y="0.0" type="line"/>
      <point x="535" y="0.0" type="line"/>
      <point x="535" y="2.0" type="line"/>
      <point x="363" y="406.0" type="line"/>
    </contour>
  </outline>
</glyph>
<glyph name="L" format="2">
  <advance width="614"/>
  <unicode hex="004C"/>
  <anchor x="293" y="691" name="aboveUC"/>
  <anchor x="477" y="655" name="topright"/>
  <anchor x="242" y="-35" name="below"/>
  <outline>
    <contour>
      <point x="206.8182276720192" y="655.0" type="line"/>
      <point x="19.0" y="0.0" type="line"/>
      <point x="164.0" y="0.0" type="line"/>
      <point x="351.8182276720192" y="655.0" type="line"/>
    </contour>
    <contour>
      <point x="63.0" y="0.0" type="line"/>
      <point x="485.0" y="0.0" type="line"/>
      <point x="519.1227009052982" y="119.0" type="line"/>
      <point x="97.12270090529813" y="119.0" type="line"/>
    </contour>
  </outline>
</glyph>
<glyph name="M" format="2">
  <advance width="614"/>
  <unicode hex="004D"/>
  <anchor x="436" y="691" name="aboveUC"/>
  <anchor x="427" y="661" name="aboveUCx"/>
  <anchor x="240" y="-35" name="below"/>
  <anchor x="250" y="0" name="belowx"/>
  <outline>
    <contour>
      <point x="654" y="655.0" type="line"/>
      <point x="531" y="655.0" type="line"/>
      <point x="361.0" y="0.0" type="line"/>
      <point x="494.0" y="0.0" type="line"/>
    </contour>
    <contour>
      <point x="325" y="655.0" type="line"/>
      <point x="204" y="655.0" type="line"/>
      <point x="-16.0" y="0.0" type="line"/>
      <point x="115.0" y="0.0" type="line"/>
    </contour>
    <contour>
      <point x="602" y="655.0" type="line"/>
      <point x="513" y="655.0" type="line"/>
      <point x="336" y="374.0" type="line"/>
      <point x="347" y="374.0" type="line"/>
      <point x="341" y="655.0" type="line"/>
      <point x="255" y="655.0" type="line"/>
      <point x="275" y="165.0" type="line"/>
      <point x="295" y="165.0" type="line"/>
    </contour>
  </outline>
</glyph>
<glyph name="N" format="2">
  <advance width="614"/>
  <unicode hex="004E"/>
  <anchor x="440" y="691" name="aboveUC"/>
  <anchor x="430" y="656" name="aboveUCx"/>
  <anchor x="252" y="-35" name="below"/>
  <anchor x="262" y="0" name="belowx"/>
  <outline>
    <contour>
      <point x="225" y="571.0" type="line"/>
      <point x="334.0" y="0.0" type="line"/>
      <point x="429.0" y="0.0" type="line"/>
      <point x="444" y="82.0" type="line"/>
      <point x="332.8182276720192" y="655.0" type="line"/>
      <point x="238.8182276720192" y="655.0" type="line"/>
    </contour>
    <contour>
      <point x="472.0" y="0.0" type="line"/>
      <point x="659.8182276720192" y="655.0" type="line"/>
      <point x="527.8182276720192" y="655.0" type="line"/>
      <point x="349.0" y="0.0" type="line"/>
    </contour>
    <contour>
      <point x="138.0" y="0.0" type="line"/>
      <point x="316.8182276720192" y="655.0" type="line"/>
      <point x="193.8182276720192" y="655.0" type="line"/>
      <point x="6.0" y="0.0" type="line"/>
    </contour>
  </outline>
</glyph>
<glyph name="O" format="2">
  <advance width="614"/>
  <unicode hex="004F"/>
  <anchor x="440" y="696" name="aboveUC"/>
  <anchor x="430" y="661" name="aboveUCx"/>
  <anchor x="243" y="-40" name="below"/>
  <anchor x="248" y="-15" name="belowogonek"/>
  <outline>
    <contour>
      <point x="407" y="670" type="curve" smooth="yes"/>
      <point x="257.0" y="670.0"/>
      <point x="138" y="573"/>
      <point x="78" y="363" type="curve" smooth="yes"/>
      <point x="55" y="279"/>
      <point x="54" y="248"/>
      <point x="54" y="192" type="curve" smooth="yes"/>
      <point x="54" y="57"/>
      <point x="129" y="-15"/>
      <point x="270" y="-15" type="curve" smooth="yes"/>
      <point x="420.0" y="-15.0"/>
      <point x="539" y="82"/>
      <point x="599" y="292" type="curve" smooth="yes"/>
      <point x="622" y="376"/>
      <point x="623" y="407"/>
      <point x="623" y="463" type="curve" smooth="yes"/>
      <point x="623" y="598"/>
      <point x="548" y="670"/>
    </contour>
    <contour>
      <point x="279" y="105" type="curve" smooth="yes"/>
      <point x="230.0" y="105.0"/>
      <point x="201" y="133"/>
      <point x="201" y="198" type="curve" smooth="yes"/>
      <point x="201" y="242"/>
      <point x="209" y="286"/>
      <point x="226" y="345" type="curve" smooth="yes"/>
      <point x="272" y="505"/>
      <point x="335" y="550"/>
      <point x="397" y="550" type="curve" smooth="yes"/>
      <point x="447.0" y="550.0"/>
      <point x="476" y="522"/>
      <point x="476" y="457" type="curve" smooth="yes"/>
      <point x="476" y="413"/>
      <point x="468" y="369"/>
      <point x="451" y="310" type="curve" smooth="yes"/>
      <point x="405" y="150"/>
      <point x="342" y="105"/>
    </contour>
  </outline>
</glyph>
<glyph name="P" format="2">
  <advance width="614"/>
  <unicode hex="0050"/>
  <anchor x="452" y="691" name="aboveUC"/>
  <outline>
    <contour>
      <point x="301" y="655" type="line"/>
      <point x="266" y="535" type="line"/>
      <point x="404" y="535" type="line" smooth="yes"/>
      <point x="467" y="535"/>
      <point x="491" y="513"/>
      <point x="491" y="460" type="curve" smooth="yes"/>
      <point x="491" y="382"/>
      <point x="432" y="330"/>
      <point x="321" y="330" type="curve" smooth="yes"/>
      <point x="208" y="330" type="line"/>
      <point x="174" y="213" type="line"/>
      <point x="318" y="213" type="line" smooth="yes"/>
      <point x="429" y="213"/>
      <point x="519" y="241"/>
      <point x="579" y="301" type="curve" smooth="yes"/>
      <point x="621" y="343"/>
      <point x="645" y="400"/>
      <point x="645" y="473" type="curve" smooth="yes"/>
      <point x="645" y="582"/>
      <point x="578" y="655"/>
      <point x="436" y="655" type="curve" smooth="yes"/>
    </contour>
    <contour>
      <point x="198" y="655" type="line"/>
      <point x="10" y="0" type="line"/>
      <point x="155" y="0" type="line"/>
      <point x="343" y="655" type="line"/>
    </contour>
  </outline>
</glyph>
<glyph name="Q" format="2">
  <advance width="614"/>
  <unicode hex="0051"/>
  <outline>
    <contour>
      <point x="559" y="-129.0" type="line"/>
      <point x="415" y="96.0" type="line"/>
      <point x="404" y="89.0" type="line"/>
      <point x="398" y="127.0" type="line"/>
      <point x="311" y="94.0" type="line"/>
      <point x="323" y="50.0" type="line"/>
      <point x="313" y="44.0" type="line"/>
      <point x="391" y="-195.0" type="line"/>
    </contour>
    <contour>
      <point x="407" y="670" type="curve" smooth="yes"/>
      <point x="257.0" y="670.0"/>
      <point x="138" y="573"/>
      <point x="78" y="363" type="curve" smooth="yes"/>
      <point x="55" y="279"/>
      <point x="54" y="248"/>
      <point x="54" y="192" type="curve" smooth="yes"/>
      <point x="54" y="64"/>
      <point x="129" y="-5"/>
      <point x="270" y="-5" type="curve" smooth="yes"/>
      <point x="420" y="-5"/>
      <point x="541" y="88"/>
      <point x="599" y="292" type="curve" smooth="yes"/>
      <point x="622" y="376"/>
      <point x="623" y="407"/>
      <point x="623" y="463" type="curve" smooth="yes"/>
      <point x="623" y="598"/>
      <point x="548" y="670"/>
    </contour>
    <contour>
      <point x="279" y="105" type="curve" smooth="yes"/>
      <point x="230.0" y="105.0"/>
      <point x="201" y="133"/>
      <point x="201" y="198" type="curve" smooth="yes"/>
      <point x="201" y="242"/>
      <point x="209" y="286"/>
      <point x="226" y="345" type="curve" smooth="yes"/>
      <point x="272" y="505"/>
      <point x="335" y="550"/>
      <point x="397" y="550" type="curve" smooth="yes"/>
      <point x="447.0" y="550.0"/>
      <point x="476" y="522"/>
      <point x="476" y="457" type="curve" smooth="yes"/>
      <point x="476" y="413"/>
      <point x="468" y="369"/>
      <point x="451" y="310" type="curve" smooth="yes"/>
      <point x="405" y="150"/>
      <point x="342" y="105"/>
    </contour>
  </outline>
</glyph>
<glyph name="R" format="2">
  <advance width="614"/>
  <unicode hex="0052"/>
  <anchor x="433" y="691" name="aboveUC"/>
  <anchor x="255" y="-35" name="below"/>
  <anchor x="265" y="0" name="belowx"/>
  <outline>
    <contour>
      <point x="237" y="655" type="line"/>
      <point x="204" y="541" type="line"/>
      <point x="399" y="541.0" type="line" smooth="yes"/>
      <point x="452" y="541.0"/>
      <point x="477" y="523"/>
      <point x="477" y="480" type="curve" smooth="yes"/>
      <point x="477" y="414"/>
      <point x="437" y="358"/>
      <point x="304" y="347" type="curve" smooth="yes"/>
      <point x="142" y="334" type="line"/>
      <point x="115" y="245" type="line"/>
      <point x="372" y="261" type="line"/>
      <point x="372" y="268" type="line"/>
      <point x="550" y="282"/>
      <point x="631" y="371"/>
      <point x="631" y="503" type="curve" smooth="yes"/>
      <point x="631.0" y="598.0"/>
      <point x="567.0" y="655.0"/>
      <point x="432" y="655" type="curve" smooth="yes"/>
    </contour>
    <contour>
      <point x="197.8182276720192" y="655.0" type="line"/>
      <point x="10.0" y="0.0" type="line"/>
      <point x="154.0" y="0.0" type="line"/>
      <point x="341.8182276720192" y="655.0" type="line"/>
    </contour>
    <contour>
      <point x="534" y="4" type="line"/>
      <point x="476" y="122" type="line" smooth="yes"/>
      <point x="433" y="210"/>
      <point x="409" y="234"/>
      <point x="372" y="261" type="curve"/>
      <point x="159" y="268" type="line"/>
      <point x="152" y="242" type="line"/>
      <point x="249" y="242"/>
      <point x="267" y="227"/>
      <point x="296" y="164" type="curve" smooth="yes"/>
      <point x="372" y="0" type="line"/>
      <point x="533" y="0" type="line"/>
    </contour>
  </outline>
</glyph>
<glyph name="S" format="2">
  <advance width="614"/>
  <unicode hex="0053"/>
  <anchor x="452" y="696" name="aboveUC"/>
  <anchor x="442" y="661" name="aboveUCx"/>
  <anchor x="271" y="-40" name="below"/>
  <anchor x="283" y="-15" name="belowcedilla"/>
  <outline>
    <contour>
      <point x="311" y="111" type="curve" smooth="yes"/>
      <point x="232" y="111"/>
      <point x="142" y="137"/>
      <point x="51.0" y="169" type="curve"/>
      <point x="10.0" y="45" type="line"/>
      <point x="103" y="12"/>
      <point x="201" y="-13"/>
      <point x="312" y="-13.0" type="curve" smooth="yes"/>
      <point x="470" y="-13.0"/>
      <point x="551.0" y="68.07407407407408"/>
      <point x="551.0" y="186" type="curve" smooth="yes"/>
      <point x="551.0" y="273.3299492385787"/>
      <point x="518.6916338094472" y="310.7045048718361"/>
      <point x="403.0" y="373" type="curve" smooth="yes"/>
      <point x="351.0" y="401" type="line" smooth="yes"/>
      <point x="298" y="430"/>
      <point x="283.0" y="449.0"/>
      <point x="283.0" y="476" type="curve" smooth="yes"/>
      <point x="283" y="516"/>
      <point x="311" y="541"/>
      <point x="386" y="541.0" type="curve" smooth="yes"/>
      <point x="442" y="541"/>
      <point x="507" y="527"/>
      <point x="590.0" y="500" type="curve"/>
      <point x="627.0" y="622" type="line"/>
      <point x="545" y="647"/>
      <point x="477" y="664.0"/>
      <point x="390" y="664.0" type="curve" smooth="yes"/>
      <point x="225" y="664"/>
      <point x="139.0" y="578.1237113402062"/>
      <point x="139.0" y="468" type="curve" smooth="yes"/>
      <point x="139.0" y="384.91803278688525"/>
      <point x="174.36042522592038" y="337.4213094937352"/>
      <point x="268.0" y="287" type="curve" smooth="yes"/>
      <point x="320.0" y="259" type="line" smooth="yes"/>
      <point x="398" y="217"/>
      <point x="407" y="201"/>
      <point x="407.0" y="170" type="curve" smooth="yes"/>
      <point x="407" y="131"/>
      <point x="381" y="111"/>
    </contour>
  </outline>
</glyph>
<glyph name="T" format="2">
  <advance width="614"/>
  <unicode hex="0054"/>
  <anchor x="436" y="691" name="aboveUC"/>
  <anchor x="229" y="-35" name="below"/>
  <anchor x="234" y="-9" name="belowcedilla"/>
  <outline>
    <contour>
      <point x="326" y="568.0" type="line"/>
      <point x="163.0" y="0.0" type="line"/>
      <point x="307.0" y="0.0" type="line"/>
      <point x="470" y="568.0" type="line"/>
    </contour>
    <contour>
      <point x="120" y="535.0" type="line"/>
      <point x="656" y="535.0" type="line"/>
      <point x="691" y="655.0" type="line"/>
      <point x="155" y="655.0" type="line"/>
    </contour>
  </outline>
</glyph>
<glyph name="U" format="2">
  <advance width="614"/>
  <unicode hex="0055"/>
  <anchor x="436" y="691" name="aboveUC"/>
  <anchor x="426" y="656" name="aboveUCx"/>
  <anchor x="228" y="-40" name="below"/>
  <anchor x="238" y="-15" name="belowogonek"/>
  <outline>
    <contour>
      <point x="397" y="217" type="line" smooth="yes"/>
      <point x="377" y="147"/>
      <point x="340" y="119"/>
      <point x="287" y="119" type="curve" smooth="yes"/>
      <point x="236.0" y="119.0"/>
      <point x="205.0" y="141"/>
      <point x="205" y="189" type="curve" smooth="yes"/>
      <point x="205.0" y="203"/>
      <point x="206.51128928337997" y="218.38225444878486"/>
      <point x="211" y="234" type="curve" smooth="yes"/>
      <point x="332" y="655" type="line"/>
      <point x="187" y="655" type="line"/>
      <point x="83" y="296" type="line" smooth="yes"/>
      <point x="69" y="249"/>
      <point x="58" y="207"/>
      <point x="58" y="170" type="curve" smooth="yes"/>
      <point x="58" y="50"/>
      <point x="131" y="-15"/>
      <point x="268" y="-15" type="curve" smooth="yes"/>
      <point x="407" y="-15"/>
      <point x="493" y="50"/>
      <point x="538" y="207" type="curve" smooth="yes"/>
      <point x="667" y="655" type="line"/>
      <point x="523" y="655" type="line"/>
    </contour>
  </outline>
</glyph>
<glyph name="V" format="2">
  <advance width="614"/>
  <unicode hex="0056"/>
  <anchor x="232" y="-35" name="below"/>
  <outline>
    <contour>
      <point x="555" y="655.0" type="line"/>
      <point x="246" y="103.0" type="line"/>
      <point x="214.0" y="0.0" type="line"/>
      <point x="329.0" y="0.0" type="line"/>
      <point x="705.8182276720192" y="655.0" type="line"/>
    </contour>
    <contour>
      <point x="147.8182276720192" y="655.0" type="line"/>
      <point x="151.0" y="0.0" type="line"/>
      <point x="258.0" y="0.0" type="line"/>
      <point x="281" y="104.0" type="line"/>
      <point x="290" y="655.0" type="line"/>
    </contour>
  </outline>
</glyph>
<glyph name="W" format="2">
  <advance width="614"/>
  <unicode hex="0057"/>
  <anchor x="436" y="691" name="aboveUC"/>
  <anchor x="425" y="651" name="aboveUCx"/>
  <outline>
    <contour>
      <point x="430.0" y="0.0" type="line"/>
      <point x="697.8182276720192" y="655.0" type="line"/>
      <point x="552" y="655.0" type="line"/>
      <point x="347.821520118916" y="104.0" type="line"/>
      <point x="348.0" y="0.0" type="line"/>
    </contour>
    <contour>
      <point x="129.0" y="0.0" type="line"/>
      <point x="189.67453857588077" y="100.0" type="line"/>
      <point x="290" y="655.0" type="line"/>
      <point x="155.8182276720192" y="655.0" type="line"/>
      <point x="47.0" y="0.0" type="line"/>
    </contour>
    <contour>
      <point x="388.0" y="0.0" type="line"/>
      <point x="403" y="104.0" type="line"/>
      <point x="398" y="531.0" type="line"/>
      <point x="373" y="531.0" type="line"/>
      <point x="123" y="100.0" type="line"/>
      <point x="90.0" y="0.0" type="line"/>
      <point x="165.0" y="0.0" type="line"/>
      <point x="362.8090473450001" y="369.0" type="line"/>
      <point x="321.8090473450001" y="369.0" type="line"/>
      <point x="308.0" y="0.0" type="line"/>
    </contour>
  </outline>
</glyph>
<glyph name="X" format="2">
  <advance width="614"/>
  <unicode hex="0058"/>
  <anchor x="437" y="691" name="aboveUC"/>
  <anchor x="429" y="661" name="aboveUCx"/>
  <anchor x="230" y="-35" name="below"/>
  <anchor x="239" y="-5" name="belowx"/>
  <outline>
    <contour>
      <point x="-46" y="0" type="line"/>
      <point x="108.0" y="0.0" type="line"/>
      <point x="374" y="314.0" type="line"/>
      <point x="394.0380511282657" y="314.0" type="line"/>
      <point x="695.8182276720192" y="655.0" type="line"/>
      <point x="528.0" y="655" type="line"/>
      <point x="289" y="359" type="line"/>
      <point x="269" y="359" type="line"/>
    </contour>
    <contour>
      <point x="521" y="0.0" type="line"/>
      <point x="398" y="359.0" type="line"/>
      <point x="383" y="359.0" type="line"/>
      <point x="305" y="655.0" type="line"/>
      <point x="157" y="655.0" type="line"/>
      <point x="262" y="314.0" type="line"/>
      <point x="277" y="314.0" type="line"/>
      <point x="359.0" y="0.0" type="line"/>
    </contour>
  </outline>
</glyph>
<glyph name="Y" format="2">
  <advance width="614"/>
  <unicode hex="0059"/>
  <anchor x="419" y="691" name="aboveUC"/>
  <anchor x="409" y="656" name="aboveUCx"/>
  <anchor x="232" y="-35" name="below"/>
  <outline>
    <contour>
      <point x="375" y="311.0" type="line"/>
      <point x="285" y="655.0" type="line"/>
      <point x="134.8182276720192" y="655.0" type="line"/>
      <point x="257.24540181059626" y="238.0" type="line"/>
    </contour>
    <contour>
      <point x="257.61154189978333" y="316.0" type="line"/>
      <point x="167.0" y="0.0" type="line"/>
      <point x="311.0" y="0.0" type="line"/>
      <point x="401.61154189978333" y="316.0" type="line"/>
    </contour>
    <contour>
      <point x="261" y="311.0" type="line"/>
      <point x="357.5321471963551" y="239.0" type="line"/>
      <point x="718.8182276720192" y="655.0" type="line"/>
      <point x="550" y="655.0" type="line"/>
    </contour>
  </outline>
</glyph>
<glyph name="Z" format="2">
  <advance width="614"/>
  <unicode hex="005A"/>
  <anchor x="422" y="691" name="aboveUC"/>
  <anchor x="239" y="-35" name="below"/>
  <anchor x="246" y="-10" name="belowcedilla"/>
  <outline>
    <contour>
      <point x="10.0" y="0.0" type="line"/>
      <point x="498.0" y="0.0" type="line"/>
      <point x="532" y="119.0" type="line"/>
      <point x="106" y="119.0" type="line"/>
      <point x="10" y="70.0" type="line"/>
    </contour>
    <contour>
      <point x="222" y="45" type="line"/>
      <point x="222" y="149" type="line"/>
      <point x="200" y="97" type="line"/>
      <point x="647" y="585" type="line"/>
      <point x="426" y="609" type="line"/>
      <point x="426" y="503" type="line"/>
      <point x="447" y="556" type="line"/>
      <point x="10" y="70" type="line"/>
    </contour>
    <contour>
      <point x="144" y="535" type="line"/>
      <point x="543" y="535" type="line"/>
      <point x="647" y="585" type="line"/>
      <point x="647" y="655" type="line"/>
      <point x="179" y="655" type="line"/>
    </contour>
  </outline>
</glyph>
<glyph name="bracketleft" format="2">
  <advance width="614"/>
  <unicode hex="005B"/>
  <outline>
    <contour>
      <point x="460" y="797.0" type="line"/>
      <point x="315" y="797.0" type="line"/>
      <point x="44" y="-148.0" type="line"/>
      <point x="189" y="-148.0" type="line"/>
    </contour>
    <contour>
      <point x="400" y="678.0" type="line"/>
      <point x="671" y="678.0" type="line"/>
      <point x="706" y="797.0" type="line"/>
      <point x="435" y="797.0" type="line"/>
    </contour>
    <contour>
      <point x="164" y="-148.0" type="line"/>
      <point x="435" y="-148.0" type="line"/>
      <point x="469" y="-28.0" type="line"/>
      <point x="198" y="-28.0" type="line"/>
    </contour>
  </outline>
</glyph>
<glyph name="bracketright" format="2">
  <advance width="614"/>
  <unicode hex="005D"/>
  <outline>
    <contour>
      <point x="205" y="-148.0" type="line"/>
      <point x="350" y="-148.0" type="line"/>
      <point x="621" y="797.0" type="line"/>
      <point x="476" y="797.0" type="line"/>
    </contour>
    <contour>
      <point x="264" y="-28.0" type="line"/>
      <point x="-7" y="-28.0" type="line"/>
      <point x="-41" y="-148.0" type="line"/>
      <point x="230" y="-148.0" type="line"/>
    </contour>
    <contour>
      <point x="501" y="797.0" type="line"/>
      <point x="230" y="797.0" type="line"/>
      <point x="195" y="678.0" type="line"/>
      <point x="466" y="678.0" type="line"/>
    </contour>
  </outline>
</glyph>
<glyph name="asciicircum" format="2">
  <advance width="614"/>
  <unicode hex="005E"/>
  <outline>
    <contour>
      <point x="382.8182276720192" y="655.0" type="line"/>
      <point x="398" y="632.0" type="line"/>
      <point x="448" y="271.0" type="line"/>
      <point x="585" y="271.0" type="line"/>
      <point x="517.8182276720192" y="655.0" type="line"/>
    </contour>
    <contour>
      <point x="470.81822767201925" y="655.0" type="line"/>
      <point x="335.8182276720192" y="655.0" type="line"/>
      <point x="45" y="271.0" type="line"/>
      <point x="193" y="271.0" type="line"/>
      <point x="453" y="632.0" type="line"/>
    </contour>
  </outline>
</glyph>
<glyph name="underscore" format="2">
  <advance width="614"/>
  <unicode hex="005F"/>
  <outline>
    <contour>
      <point x="2.5446199702710004" y="-26.0" type="line"/>
      <point x="-36.16600710716808" y="-161.0" type="line"/>
      <point x="421.83399289283193" y="-161.0" type="line"/>
      <point x="460.544619970271" y="-26.0" type="line"/>
    </contour>
  </outline>
</glyph>
<glyph name="a" format="2">
  <advance width="614"/>
  <unicode hex="0061"/>
  <anchor x="214" y="-35" name="below"/>
  <anchor x="391" y="-10" name="belowogonek"/>
  <anchor x="372" y="507" name="aboveLC"/>
  <anchor x="362" y="472" name="aboveLCx"/>
  <outline>
    <contour>
      <point x="200" y="94" type="curve" smooth="yes"/>
      <point x="178" y="94"/>
      <point x="163" y="107"/>
      <point x="163" y="127" type="curve" smooth="yes"/>
      <point x="163" y="148"/>
      <point x="168" y="164"/>
      <point x="183" y="179" type="curve" smooth="yes"/>
      <point x="196" y="192"/>
      <point x="219" y="200"/>
      <point x="296" y="206" type="curve" smooth="yes"/>
      <point x="396" y="215" type="line"/>
      <point x="426" y="298" type="line"/>
      <point x="279" y="289" type="line" smooth="yes"/>
      <point x="145" y="281"/>
      <point x="96" y="265"/>
      <point x="63" y="232" type="curve" smooth="yes"/>
      <point x="33" y="202"/>
      <point x="17" y="144"/>
      <point x="17" y="99" type="curve" smooth="yes"/>
      <point x="17" y="35"/>
      <point x="59" y="-9"/>
      <point x="136" y="-9" type="curve" smooth="yes"/>
      <point x="218.98529411764707" y="-9.0"/>
      <point x="281" y="9"/>
      <point x="345" y="49" type="curve"/>
      <point x="351" y="49" type="line"/>
      <point x="369" y="156" type="line"/>
      <point x="320" y="113"/>
      <point x="244" y="94"/>
    </contour>
    <contour>
      <point x="504" y="180" type="curve" smooth="yes"/>
      <point x="548" y="304" type="line" smooth="yes"/>
      <point x="558" y="333"/>
      <point x="563" y="358"/>
      <point x="563" y="380" type="curve" smooth="yes"/>
      <point x="563" y="456"/>
      <point x="498" y="490"/>
      <point x="365" y="490" type="curve" smooth="yes"/>
      <point x="328" y="490"/>
      <point x="262" y="487"/>
      <point x="164" y="475" type="curve"/>
      <point x="133" y="361" type="line"/>
      <point x="226" y="373"/>
      <point x="291" y="377"/>
      <point x="325" y="377" type="curve" smooth="yes"/>
      <point x="393.73118279569894" y="377.0"/>
      <point x="419.0" y="364.6341463414634"/>
      <point x="419" y="338" type="curve" smooth="yes"/>
      <point x="419.0" y="327.2857142857143"/>
      <point x="417" y="320"/>
      <point x="407" y="290" type="curve" smooth="yes"/>
      <point x="351" y="123" type="line"/>
      <point x="351" y="49" type="line"/>
      <point x="369.6003426113914" y="21.099486082912872"/>
      <point x="410.7303854951025" y="1.2063285913543176"/>
      <point x="479" y="-5" type="curve" smooth="yes"/>
      <point x="523" y="-9" type="line"/>
      <point x="555" y="101" type="line"/>
      <point x="524" y="107" type="line" smooth="yes"/>
      <point x="502" y="111"/>
      <point x="492" y="117"/>
      <point x="492" y="133" type="curve" smooth="yes"/>
      <point x="492" y="142"/>
      <point x="495" y="154"/>
    </contour>
  </outline>
</glyph>
<glyph name="b" format="2">
  <advance width="614"/>
  <unicode hex="0062"/>
  <anchor x="241" y="-35" name="below"/>
  <outline>
    <contour>
      <point x="355" y="710.0" type="line"/>
      <point x="210" y="710.0" type="line"/>
      <point x="19.0" y="45.0" type="line"/>
      <point x="51.0" y="45.0" type="line"/>
      <point x="163" y="42.0" type="line"/>
    </contour>
    <contour>
      <point x="145.0" y="144.0" type="curve"/>
      <point x="19.0" y="45.0" type="line"/>
      <point x="91.0" y="9.0"/>
      <point x="162.0" y="-8.0"/>
      <point x="243.0" y="-8.0" type="curve" smooth="yes"/>
      <point x="451.0" y="-8.0"/>
      <point x="586.0" y="127.0"/>
      <point x="586.0" y="300.0" type="curve" smooth="yes"/>
      <point x="586.0" y="429.0"/>
      <point x="502.0" y="490.0"/>
      <point x="421.0" y="490.0" type="curve" smooth="yes"/>
      <point x="361.0" y="490.0"/>
      <point x="304.0" y="468.0"/>
      <point x="237.0" y="410.0" type="curve"/>
      <point x="209.0" y="298.0" type="line"/>
      <point x="273.0" y="351.0"/>
      <point x="315.0" y="371.0"/>
      <point x="351.0" y="371.0" type="curve" smooth="yes"/>
      <point x="402.0" y="371.0"/>
      <point x="434.0" y="340.0"/>
      <point x="434.0" y="279.0" type="curve" smooth="yes"/>
      <point x="434.0" y="193.0"/>
      <point x="367.0" y="111.0"/>
      <point x="249.0" y="111.0" type="curve" smooth="yes"/>
      <point x="211.0" y="111.0"/>
      <point x="173.0" y="123.0"/>
    </contour>
  </outline>
</glyph>
<glyph name="c" format="2">
  <advance width="614"/>
  <unicode hex="0063"/>
  <anchor x="228" y="-15" name="belowcedilla"/>
  <anchor x="379" y="472" name="aboveLCx"/>
  <anchor x="232" y="-35" name="below"/>
  <anchor x="389" y="507" name="aboveLC"/>
  <outline>
    <contour>
      <point x="377" y="368" type="curve" smooth="yes"/>
      <point x="422" y="368"/>
      <point x="460" y="359"/>
      <point x="544" y="319" type="curve"/>
      <point x="600" y="432" type="line"/>
      <point x="507" y="480"/>
      <point x="442" y="490"/>
      <point x="365" y="490" type="curve" smooth="yes"/>
      <point x="268" y="490"/>
      <point x="191" y="453"/>
      <point x="135" y="397" type="curve" smooth="yes"/>
      <point x="76" y="338"/>
      <point x="43" y="256"/>
      <point x="43" y="178" type="curve" smooth="yes"/>
      <point x="43" y="58"/>
      <point x="127" y="-14"/>
      <point x="275" y="-14" type="curve" smooth="yes"/>
      <point x="363" y="-14"/>
      <point x="441" y="4"/>
      <point x="519" y="46" type="curve"/>
      <point x="477" y="158" type="line"/>
      <point x="385" y="118"/>
      <point x="341" y="108"/>
      <point x="294" y="108" type="curve" smooth="yes"/>
      <point x="240" y="108"/>
      <point x="203" y="138"/>
      <point x="203" y="193" type="curve" smooth="yes"/>
      <point x="203" y="237"/>
      <point x="222" y="284"/>
      <point x="257" y="319" type="curve" smooth="yes"/>
      <point x="287" y="349"/>
      <point x="327" y="368"/>
    </contour>
  </outline>
</glyph>
<glyph name="d" format="2">
  <advance width="614"/>
  <unicode hex="0064"/>
  <anchor x="257" y="-35" name="below"/>
  <anchor x="819" y="789" name="topright"/>
  <outline>
    <contour>
      <point x="367.0" y="0.0" type="line"/>
      <point x="473.0" y="0.0" type="line"/>
      <point x="677.0" y="710.0" type="line"/>
      <point x="532.0" y="710.0" type="line"/>
      <point x="354.0" y="91.0" type="line"/>
      <point x="354.0" y="69.0" type="line"/>
    </contour>
    <contour>
      <point x="472" y="338" type="curve"/>
      <point x="598" y="437" type="line"/>
      <point x="526" y="473"/>
      <point x="455" y="490"/>
      <point x="374" y="490" type="curve" smooth="yes"/>
      <point x="166.0" y="490"/>
      <point x="31" y="355.0"/>
      <point x="31.0" y="182.0" type="curve" smooth="yes"/>
      <point x="31" y="53"/>
      <point x="115" y="-8"/>
      <point x="196" y="-8" type="curve" smooth="yes"/>
      <point x="256.0" y="-8.0"/>
      <point x="313" y="14"/>
      <point x="380" y="72" type="curve"/>
      <point x="408" y="184" type="line"/>
      <point x="344" y="131"/>
      <point x="302.0" y="111.0"/>
      <point x="266.0" y="111.0" type="curve" smooth="yes"/>
      <point x="215" y="111"/>
      <point x="183" y="142"/>
      <point x="183.0" y="203.0" type="curve" smooth="yes"/>
      <point x="183" y="289"/>
      <point x="250" y="371"/>
      <point x="368" y="371" type="curve" smooth="yes"/>
      <point x="406" y="371"/>
      <point x="444" y="359"/>
    </contour>
  </outline>
</glyph>
<glyph name="e" format="2">
  <advance width="614"/>
  <unicode hex="0065"/>
  <anchor x="240" y="-40" name="below"/>
  <anchor x="339" y="-10" name="belowogonek"/>
  <anchor x="385" y="470" name="aboveLCx"/>
  <anchor x="395" y="507" name="aboveLC"/>
  <outline>
    <contour>
      <point x="372" y="379" type="curve" smooth="yes"/>
      <point x="416.25396825396825" y="379.0"/>
      <point x="440.0" y="361.0"/>
      <point x="440.0" y="333" type="curve" smooth="yes"/>
      <point x="440.0" y="302.0"/>
      <point x="418" y="283"/>
      <point x="346" y="275" type="curve" smooth="yes"/>
      <point x="167" y="255" type="line"/>
      <point x="139" y="165" type="line"/>
      <point x="346" y="182" type="line" smooth="yes"/>
      <point x="515" y="196"/>
      <point x="582.0" y="253.0"/>
      <point x="582" y="348" type="curve" smooth="yes"/>
      <point x="582.0" y="436.0"/>
      <point x="515.2620320855615" y="492.0"/>
      <point x="390" y="492" type="curve" smooth="yes"/>
      <point x="190.08579881656806" y="492.0"/>
      <point x="47.0" y="324.0"/>
      <point x="47" y="175" type="curve" smooth="yes"/>
      <point x="47.0" y="43.0"/>
      <point x="104.64222873900292" y="-13.0"/>
      <point x="398" y="-13" type="curve"/>
      <point x="431" y="103" type="line"/>
      <point x="216.04347826086956" y="103.0"/>
      <point x="191.0" y="116.0"/>
      <point x="191" y="197" type="curve" smooth="yes"/>
      <point x="191.0" y="298.0"/>
      <point x="279.4431818181818" y="379.0"/>
    </contour>
  </outline>
</glyph>
<glyph name="f" format="2">
  <advance width="614"/>
  <unicode hex="0066"/>
  <outline>
    <contour>
      <point x="91" y="338.0" type="line"/>
      <point x="547" y="338.0" type="line"/>
      <point x="582" y="460.0" type="line"/>
      <point x="126" y="460.0" type="line"/>
    </contour>
    <contour>
      <point x="280" y="482" type="curve" smooth="yes"/>
      <point x="259" y="409.0" type="line"/>
      <point x="259" y="409.0" type="line"/>
      <point x="141.0" y="0.0" type="line"/>
      <point x="285.0" y="0.0" type="line"/>
      <point x="403" y="409.0" type="line"/>
      <point x="398" y="409.0" type="line"/>
      <point x="423" y="496" type="line" smooth="yes"/>
      <point x="443" y="565.0"/>
      <point x="465" y="584.0"/>
      <point x="547" y="590" type="curve" smooth="yes"/>
      <point x="664" y="598.0" type="line"/>
      <point x="664" y="720.0" type="line"/>
      <point x="569" y="712" type="line" smooth="yes"/>
      <point x="389" y="697"/>
      <point x="331" y="658.0"/>
    </contour>
  </outline>
</glyph>
<glyph name="g" format="2">
  <advance width="614"/>
  <unicode hex="0067"/>
  <anchor x="400" y="507" name="aboveLC"/>
  <anchor x="390" y="472" name="aboveLCx"/>
  <outline>
    <contour>
      <point x="345" y="50" type="line" smooth="yes"/>
      <point x="311" y="-69"/>
      <point x="273" y="-104"/>
      <point x="125" y="-111" type="curve" smooth="yes"/>
      <point x="-5" y="-117.0" type="line"/>
      <point x="-5" y="-239.0" type="line"/>
      <point x="119" y="-233" type="line" smooth="yes"/>
      <point x="362" y="-221"/>
      <point x="428" y="-164"/>
      <point x="483" y="30" type="curve" smooth="yes"/>
      <point x="599" y="437.0" type="line"/>
      <point x="588" y="437.0" type="line"/>
      <point x="459" y="451.0" type="line"/>
    </contour>
    <contour>
      <point x="473.0" y="338.0" type="curve"/>
      <point x="599.0" y="437.0" type="line"/>
      <point x="527.0" y="473.0"/>
      <point x="456.0" y="490.0"/>
      <point x="375.0" y="490.0" type="curve" smooth="yes"/>
      <point x="169" y="490"/>
      <point x="35" y="361"/>
      <point x="35.0" y="196.0" type="curve" smooth="yes"/>
      <point x="35" y="74"/>
      <point x="121" y="16"/>
      <point x="203.0" y="16.0" type="curve" smooth="yes"/>
      <point x="263" y="16"/>
      <point x="320" y="38"/>
      <point x="387.0" y="96.0" type="curve"/>
      <point x="415.0" y="208.0" type="line"/>
      <point x="351" y="155"/>
      <point x="309" y="135"/>
      <point x="273.0" y="135.0" type="curve" smooth="yes"/>
      <point x="220" y="135"/>
      <point x="187" y="163"/>
      <point x="187.0" y="217.0" type="curve" smooth="yes"/>
      <point x="187" y="296"/>
      <point x="253" y="371"/>
      <point x="369.0" y="371.0" type="curve" smooth="yes"/>
      <point x="407.0" y="371.0"/>
      <point x="445.0" y="359.0"/>
    </contour>
  </outline>
</glyph>
<glyph name="h" format="2">
  <advance width="614"/>
  <unicode hex="0068"/>
  <anchor x="240" y="-35" name="below"/>
  <anchor x="250" y="0" name="belowx"/>
  <anchor x="77" y="-10" name="belowcedilla"/>
  <anchor x="292" y="740" name="aboveLC"/>
  <anchor x="275" y="679" name="aboveLCx"/>
  <outline>
    <contour>
      <point x="358.5892238887536" y="710.0" type="line"/>
      <point x="213.58922388875362" y="710.0" type="line"/>
      <point x="10.0" y="0.0" type="line"/>
      <point x="155.0" y="0.0" type="line"/>
    </contour>
    <contour>
      <point x="206" y="232" type="line"/>
      <point x="338" y="339"/>
      <point x="366" y="351"/>
      <point x="392" y="351" type="curve" smooth="yes"/>
      <point x="409" y="351"/>
      <point x="418" y="342"/>
      <point x="418" y="324" type="curve" smooth="yes"/>
      <point x="418" y="317"/>
      <point x="417" y="309"/>
      <point x="414" y="300" type="curve" smooth="yes"/>
      <point x="328" y="0" type="line"/>
      <point x="473" y="0" type="line"/>
      <point x="567" y="327" type="line" smooth="yes"/>
      <point x="574" y="351"/>
      <point x="577" y="372"/>
      <point x="577" y="391" type="curve" smooth="yes"/>
      <point x="577" y="453"/>
      <point x="542" y="488"/>
      <point x="471" y="488" type="curve" smooth="yes"/>
      <point x="408" y="488"/>
      <point x="360" y="466"/>
      <point x="229" y="364" type="curve"/>
    </contour>
  </outline>
</glyph>
<glyph name="i" format="2">
  <advance width="614"/>
  <unicode hex="0069"/>
  <anchor x="244" y="-35" name="below"/>
  <anchor x="251" y="-10" name="belowogonek"/>
  <outline>
    <contour>
      <point x="334" y="477" type="line"/>
      <point x="165" y="0" type="line"/>
      <point x="310" y="0" type="line"/>
      <point x="479" y="477" type="line"/>
    </contour>
    <contour>
      <point x="182" y="477" type="line"/>
      <point x="147" y="355" type="line"/>
      <point x="376" y="355" type="line"/>
      <point x="411" y="477" type="line"/>
    </contour>
    <contour>
      <point x="60" y="122" type="line"/>
      <point x="25" y="0" type="line"/>
      <point x="484" y="0" type="line"/>
      <point x="519" y="122" type="line"/>
    </contour>
    <contour>
      <point x="411" y="578" type="curve" smooth="yes"/>
      <point x="495" y="578"/>
      <point x="536" y="620"/>
      <point x="536" y="680" type="curve" smooth="yes"/>
      <point x="536" y="727"/>
      <point x="502" y="751"/>
      <point x="441" y="751" type="curve" smooth="yes"/>
      <point x="351" y="751"/>
      <point x="316" y="701"/>
      <point x="316" y="649" type="curve" smooth="yes"/>
      <point x="316" y="602"/>
      <point x="351" y="578"/>
    </contour>
  </outline>
</glyph>
<glyph name="j" format="2">
  <advance width="614"/>
  <unicode hex="006A"/>
  <outline>
    <contour>
      <point x="416" y="37" type="curve" smooth="yes"/>
      <point x="542" y="477" type="line"/>
      <point x="397" y="477" type="line"/>
      <point x="276" y="54" type="line" smooth="yes"/>
      <point x="242" y="-65"/>
      <point x="201" y="-101"/>
      <point x="73" y="-107" type="curve" smooth="yes"/>
      <point x="-29" y="-112" type="line"/>
      <point x="-29" y="-236" type="line"/>
      <point x="67" y="-232" type="line" smooth="yes"/>
      <point x="280" y="-223"/>
      <point x="357" y="-171"/>
    </contour>
    <contour>
      <point x="180" y="477" type="line"/>
      <point x="145" y="355" type="line"/>
      <point x="437" y="355" type="line"/>
      <point x="472" y="477" type="line"/>
    </contour>
    <contour>
      <point x="482" y="578" type="curve" smooth="yes"/>
      <point x="568.0" y="578.0"/>
      <point x="607.0" y="622.0"/>
      <point x="607" y="680" type="curve" smooth="yes"/>
      <point x="607" y="727"/>
      <point x="573" y="751"/>
      <point x="512" y="751" type="curve" smooth="yes"/>
      <point x="423.0" y="751.0"/>
      <point x="387.0" y="703.0"/>
      <point x="387" y="649" type="curve" smooth="yes"/>
      <point x="387" y="602"/>
      <point x="422" y="578"/>
    </contour>
  </outline>
</glyph>
<glyph name="k" format="2">
  <advance width="614"/>
  <unicode hex="006B"/>
  <anchor x="236" y="-35" name="below"/>
  <anchor x="246" y="0" name="belowx"/>
  <outline>
    <contour>
      <point x="361.5892238887536" y="710.0" type="line"/>
      <point x="217.58922388875362" y="710.0" type="line"/>
      <point x="14.0" y="0.0" type="line"/>
      <point x="158.0" y="0.0" type="line"/>
    </contour>
    <contour>
      <point x="184" y="218.0" type="line"/>
      <point x="344" y="212.0" type="line"/>
      <point x="654" y="475.0" type="line"/>
      <point x="654" y="477.0" type="line"/>
      <point x="468" y="477.0" type="line"/>
    </contour>
    <contour>
      <point x="202" y="252.0" type="line"/>
      <point x="339" y="0.0" type="line"/>
      <point x="521" y="0.0" type="line"/>
      <point x="521" y="2.0" type="line"/>
      <point x="361" y="258.0" type="line"/>
    </contour>
  </outline>
</glyph>
<glyph name="l" format="2">
  <advance width="614"/>
  <unicode hex="006C"/>
  <anchor x="241" y="-35" name="below"/>
  <anchor x="441" y="752" name="aboveLC"/>
  <anchor x="431" y="716" name="aboveLCx"/>
  <anchor x="644" y="789" name="topright"/>
  <outline>
    <contour>
      <point x="202" y="710.0" type="line"/>
      <point x="167" y="588.0" type="line"/>
      <point x="406" y="588.0" type="line"/>
      <point x="441" y="710.0" type="line"/>
    </contour>
    <contour>
      <point x="220" y="277" type="line" smooth="yes"/>
      <point x="196" y="210"/>
      <point x="186" y="167"/>
      <point x="186" y="132" type="curve" smooth="yes"/>
      <point x="186" y="37"/>
      <point x="235" y="0"/>
      <point x="368" y="-5" type="curve" smooth="yes"/>
      <point x="482" y="-9" type="line"/>
      <point x="518" y="115" type="line"/>
      <point x="408" y="119" type="line" smooth="yes"/>
      <point x="359" y="121"/>
      <point x="336" y="133"/>
      <point x="336" y="167" type="curve" smooth="yes"/>
      <point x="336" y="187"/>
      <point x="339.0" y="201"/>
      <point x="359" y="257" type="curve" smooth="yes"/>
      <point x="518" y="710" type="line"/>
      <point x="374" y="710" type="line"/>
    </contour>
  </outline>
</glyph>
<glyph name="m" format="2">
  <advance width="614"/>
  <unicode hex="006D"/>
  <anchor x="382" y="502" name="aboveLC"/>
  <anchor x="232" y="-35" name="below"/>
  <outline>
    <contour>
      <point x="209" y="477.0" type="line"/>
      <point x="110" y="477.0" type="line"/>
      <point x="-27.0" y="0.0" type="line"/>
      <point x="96.0" y="0.0" type="line"/>
      <point x="192" y="336.0" type="line"/>
      <point x="239" y="391.0" type="line"/>
      <point x="196" y="391.0" type="line"/>
    </contour>
    <contour>
      <point x="162" y="291" type="line"/>
      <point x="205" y="324"/>
      <point x="228" y="331"/>
      <point x="246" y="331" type="curve" smooth="yes"/>
      <point x="261" y="331"/>
      <point x="270" y="325"/>
      <point x="270" y="308" type="curve" smooth="yes"/>
      <point x="270" y="301"/>
      <point x="269" y="292"/>
      <point x="266" y="282" type="curve" smooth="yes"/>
      <point x="185" y="0" type="line"/>
      <point x="299" y="0" type="line"/>
      <point x="392" y="324" type="line"/>
      <point x="466" y="391" type="line"/>
      <point x="408" y="391" type="line"/>
      <point x="408" y="391" type="line"/>
      <point x="414" y="413"/>
      <point x="418" y="431"/>
      <point x="418" y="445" type="curve" smooth="yes"/>
      <point x="418" y="479"/>
      <point x="400" y="492"/>
      <point x="366" y="492" type="curve" smooth="yes"/>
      <point x="333" y="492"/>
      <point x="305" y="478"/>
      <point x="217" y="391" type="curve"/>
    </contour>
    <contour>
      <point x="364" y="292" type="line"/>
      <point x="405" y="322"/>
      <point x="429" y="331"/>
      <point x="446" y="331" type="curve" smooth="yes"/>
      <point x="462" y="331"/>
      <point x="471" y="324"/>
      <point x="471" y="307" type="curve" smooth="yes"/>
      <point x="471" y="300"/>
      <point x="470" y="292"/>
      <point x="467" y="282" type="curve" smooth="yes"/>
      <point x="386" y="0" type="line"/>
      <point x="509" y="0" type="line"/>
      <point x="618" y="379" type="line" smooth="yes"/>
      <point x="625" y="405"/>
      <point x="629" y="426"/>
      <point x="629" y="443" type="curve" smooth="yes"/>
      <point x="629" y="477"/>
      <point x="611" y="492"/>
      <point x="573" y="492" type="curve" smooth="yes"/>
      <point x="540" y="492"/>
      <point x="514" y="478"/>
      <point x="433" y="391" type="curve"/>
    </contour>
  </outline>
</glyph>
<glyph name="n" format="2">
  <advance width="614"/>
  <unicode hex="006E"/>
  <anchor x="384" y="502" name="aboveLC"/>
  <anchor x="233" y="-35" name="below"/>
  <anchor x="243" y="0" name="belowx"/>
  <outline>
    <contour>
      <point x="273" y="477" type="line"/>
      <point x="147" y="477" type="line"/>
      <point x="10" y="0" type="line"/>
      <point x="155" y="0" type="line"/>
      <point x="250" y="333" type="line"/>
      <point x="245" y="333" type="line"/>
    </contour>
    <contour>
      <point x="206" y="232" type="line"/>
      <point x="338" y="339"/>
      <point x="366" y="351"/>
      <point x="392" y="351" type="curve" smooth="yes"/>
      <point x="409" y="351"/>
      <point x="418" y="342"/>
      <point x="418" y="324" type="curve" smooth="yes"/>
      <point x="418" y="318"/>
      <point x="417" y="309"/>
      <point x="414" y="300" type="curve" smooth="yes"/>
      <point x="328" y="0" type="line"/>
      <point x="473" y="0" type="line"/>
      <point x="567" y="327" type="line" smooth="yes"/>
      <point x="574" y="351"/>
      <point x="577" y="372"/>
      <point x="577" y="391" type="curve" smooth="yes"/>
      <point x="577" y="453"/>
      <point x="541" y="488"/>
      <point x="471" y="488" type="curve" smooth="yes"/>
      <point x="408" y="488"/>
      <point x="360" y="466"/>
      <point x="229" y="364" type="curve"/>
    </contour>
  </outline>
</glyph>
<glyph name="o" format="2">
  <advance width="614"/>
  <unicode hex="006F"/>
  <anchor x="370" y="507" name="aboveLC"/>
  <anchor x="360" y="472" name="aboveLCx"/>
  <anchor x="242" y="-40" name="below"/>
  <anchor x="245" y="-15" name="belowogonek"/>
  <outline>
    <contour>
      <point x="356" y="492" type="curve" smooth="yes"/>
      <point x="182.0" y="492.0"/>
      <point x="39" y="366.0"/>
      <point x="39" y="191" type="curve" smooth="yes"/>
      <point x="39" y="65"/>
      <point x="131" y="-15"/>
      <point x="258" y="-15" type="curve" smooth="yes"/>
      <point x="432.0" y="-15.0"/>
      <point x="575.0" y="111.0"/>
      <point x="575" y="286" type="curve" smooth="yes"/>
      <point x="575" y="412"/>
      <point x="483" y="492"/>
    </contour>
    <contour>
      <point x="284" y="104" type="curve" smooth="yes"/>
      <point x="226.0" y="104.0"/>
      <point x="189" y="142"/>
      <point x="189" y="200" type="curve" smooth="yes"/>
      <point x="189.0" y="287.05292469985966"/>
      <point x="248" y="373.0"/>
      <point x="330" y="373" type="curve" smooth="yes"/>
      <point x="388.0" y="373.0"/>
      <point x="425" y="335"/>
      <point x="425" y="277" type="curve" smooth="yes"/>
      <point x="425.0" y="190.0"/>
      <point x="366.0" y="104.0"/>
    </contour>
  </outline>
</glyph>
<glyph name="q" format="2">
  <advance width="614"/>
  <unicode hex="0071"/>
  <outline>
    <contour>
      <point x="263" y="-230.0" type="line"/>
      <point x="408" y="-230.0" type="line"/>
      <point x="599" y="437.0" type="line"/>
      <point x="583" y="437.0" type="line"/>
      <point x="454" y="435.0" type="line"/>
    </contour>
    <contour>
      <point x="473.0" y="338.0" type="curve"/>
      <point x="599.0" y="437.0" type="line"/>
      <point x="527.0" y="473.0"/>
      <point x="456.0" y="490.0"/>
      <point x="375.0" y="490.0" type="curve" smooth="yes"/>
      <point x="167.0" y="490.0"/>
      <point x="32.0" y="355.0"/>
      <point x="32.0" y="182.0" type="curve" smooth="yes"/>
      <point x="32.0" y="53.0"/>
      <point x="116.0" y="-8.0"/>
      <point x="197.0" y="-8.0" type="curve" smooth="yes"/>
      <point x="257.0" y="-8.0"/>
      <point x="314.0" y="14.0"/>
      <point x="381.0" y="72.0" type="curve"/>
      <point x="409.0" y="184.0" type="line"/>
      <point x="345.0" y="131.0"/>
      <point x="303.0" y="111.0"/>
      <point x="267.0" y="111.0" type="curve" smooth="yes"/>
      <point x="216.0" y="111.0"/>
      <point x="184.0" y="142.0"/>
      <point x="184.0" y="203.0" type="curve" smooth="yes"/>
      <point x="184.0" y="289.0"/>
      <point x="251.0" y="371.0"/>
      <point x="369.0" y="371.0" type="curve" smooth="yes"/>
      <point x="407.0" y="371.0"/>
      <point x="445.0" y="359.0"/>
    </contour>
  </outline>
</glyph>
<glyph name="r" format="2">
  <advance width="614"/>
  <unicode hex="0072"/>
  <anchor x="387" y="502" name="aboveLC"/>
  <anchor x="170" y="-35" name="below"/>
  <outline>
    <contour>
      <point x="353" y="477.0" type="line"/>
      <point x="226" y="477.0" type="line"/>
      <point x="89" y="0.0" type="line"/>
      <point x="233" y="0.0" type="line"/>
      <point x="330" y="339.0" type="line"/>
      <point x="321" y="339.0" type="line"/>
    </contour>
    <contour>
      <point x="258" y="203.0" type="line"/>
      <point x="405" y="316"/>
      <point x="423" y="333"/>
      <point x="520" y="333.0" type="curve" smooth="yes"/>
      <point x="600" y="333.0" type="line"/>
      <point x="614" y="482.0" type="line"/>
      <point x="551" y="482.0" type="line" smooth="yes"/>
      <point x="478" y="482"/>
      <point x="442" y="466"/>
      <point x="319" y="342.0" type="curve"/>
    </contour>
    <contour>
      <point x="144" y="477.0" type="line"/>
      <point x="109" y="355.0" type="line"/>
      <point x="272" y="355.0" type="line"/>
      <point x="307" y="477.0" type="line"/>
    </contour>
    <contour>
      <point x="22" y="122.0" type="line"/>
      <point x="-13" y="0.0" type="line"/>
      <point x="359" y="0.0" type="line"/>
      <point x="394" y="122.0" type="line"/>
    </contour>
  </outline>
</glyph>
<glyph name="s" format="2">
  <advance width="614"/>
  <unicode hex="0073"/>
  <anchor x="388" y="507" name="aboveLC"/>
  <anchor x="222" y="-40" name="below"/>
  <anchor x="223" y="-15" name="belowcedilla"/>
  <anchor x="378" y="472" name="aboveLCx"/>
  <outline>
    <contour>
      <point x="521" y="148" type="curve" smooth="yes"/>
      <point x="521.0" y="220.43150684931507"/>
      <point x="491.5191897811308" y="249.787558799641"/>
      <point x="368" y="289" type="curve" smooth="yes"/>
      <point x="305" y="309" type="line" smooth="yes"/>
      <point x="264" y="322"/>
      <point x="252.0" y="324.0"/>
      <point x="252" y="346" type="curve" smooth="yes"/>
      <point x="252.0" y="367.0"/>
      <point x="274.0909090909091" y="378.0"/>
      <point x="360" y="378" type="curve" smooth="yes"/>
      <point x="397" y="378.0"/>
      <point x="459" y="372"/>
      <point x="539" y="359" type="curve"/>
      <point x="572" y="475" type="line"/>
      <point x="492" y="487"/>
      <point x="414" y="491.0"/>
      <point x="365" y="491" type="curve" smooth="yes"/>
      <point x="178.72614107883817" y="491.0"/>
      <point x="104.0" y="430.0"/>
      <point x="104" y="338" type="curve" smooth="yes"/>
      <point x="104.0" y="267.0"/>
      <point x="132" y="235"/>
      <point x="250" y="199" type="curve" smooth="yes"/>
      <point x="316" y="179" type="line" smooth="yes"/>
      <point x="362" y="165"/>
      <point x="374" y="159"/>
      <point x="374" y="137" type="curve" smooth="yes"/>
      <point x="374.0" y="115.0"/>
      <point x="348.625" y="99.0"/>
      <point x="258" y="99" type="curve" smooth="yes"/>
      <point x="215.79710144927535" y="99.0"/>
      <point x="133" y="107"/>
      <point x="34" y="123" type="curve"/>
      <point x="8" y="6" type="line"/>
      <point x="91" y="-6"/>
      <point x="156.04255319148933" y="-14.0"/>
      <point x="253" y="-14" type="curve" smooth="yes"/>
      <point x="430.2258064516129" y="-14.0"/>
      <point x="521.0" y="59.261146496815286"/>
    </contour>
  </outline>
</glyph>
<glyph name="t" format="2">
  <advance width="614"/>
  <unicode hex="0074"/>
  <anchor x="647" y="789" name="topright"/>
  <anchor x="236" y="-35" name="below"/>
  <anchor x="248" y="-10" name="belowcedilla"/>
  <outline>
    <contour>
      <point x="334" y="250" type="curve" smooth="yes"/>
      <point x="375" y="355" type="line"/>
      <point x="553" y="355" type="line"/>
      <point x="588" y="477" type="line"/>
      <point x="422" y="477" type="line"/>
      <point x="485" y="640" type="line"/>
      <point x="346" y="640" type="line"/>
      <point x="280" y="477" type="line"/>
      <point x="113" y="477" type="line"/>
      <point x="78" y="355" type="line"/>
      <point x="231" y="355" type="line"/>
      <point x="190" y="254" type="line" smooth="yes"/>
      <point x="163" y="188"/>
      <point x="162" y="163"/>
      <point x="162" y="137" type="curve" smooth="yes"/>
      <point x="162" y="62"/>
      <point x="204" y="4"/>
      <point x="348" y="-1" type="curve" smooth="yes"/>
      <point x="456" y="-5" type="line"/>
      <point x="491" y="119" type="line"/>
      <point x="374" y="128" type="line" smooth="yes"/>
      <point x="329" y="131"/>
      <point x="314" y="148"/>
      <point x="314.0" y="177" type="curve" smooth="yes"/>
      <point x="314.0" y="194"/>
      <point x="321" y="218"/>
    </contour>
  </outline>
</glyph>
<glyph name="u" format="2">
  <advance width="614"/>
  <unicode hex="0075"/>
  <anchor x="386" y="502" name="aboveLC"/>
  <anchor x="239" y="-35" name="below"/>
  <anchor x="401" y="-10" name="belowogonek"/>
  <anchor x="376" y="467" name="aboveLCx"/>
  <outline>
    <contour>
      <point x="342.0" y="0.0" type="line"/>
      <point x="468.0" y="0.0" type="line"/>
      <point x="605.0" y="477.0" type="line"/>
      <point x="460.0" y="477.0" type="line"/>
      <point x="365.0" y="144.0" type="line"/>
      <point x="370.0" y="144.0" type="line"/>
    </contour>
    <contour>
      <point x="409" y="245" type="line"/>
      <point x="277" y="138"/>
      <point x="249" y="126"/>
      <point x="223" y="126" type="curve" smooth="yes"/>
      <point x="206" y="126"/>
      <point x="197" y="135"/>
      <point x="197" y="152" type="curve" smooth="yes"/>
      <point x="197" y="159"/>
      <point x="198" y="167"/>
      <point x="201" y="177" type="curve" smooth="yes"/>
      <point x="287" y="477" type="line"/>
      <point x="142" y="477" type="line"/>
      <point x="48" y="150" type="line" smooth="yes"/>
      <point x="41" y="126"/>
      <point x="38" y="105"/>
      <point x="38" y="85" type="curve" smooth="yes"/>
      <point x="38" y="24"/>
      <point x="74" y="-11"/>
      <point x="144" y="-11" type="curve" smooth="yes"/>
      <point x="207" y="-11"/>
      <point x="255" y="11"/>
      <point x="386" y="113" type="curve"/>
    </contour>
  </outline>
</glyph>
<glyph name="v" format="2">
  <advance width="614"/>
  <unicode hex="0076"/>
  <anchor x="227" y="-35" name="below"/>
  <outline>
    <contour>
      <point x="484" y="477.0" type="line"/>
      <point x="203" y="28.0" type="line"/>
      <point x="186.0" y="0.0" type="line"/>
      <point x="330.0" y="0.0" type="line"/>
      <point x="648.7775490069514" y="477.0" type="line"/>
    </contour>
    <contour>
      <point x="102.77754900695138" y="477.0" type="line"/>
      <point x="149.0" y="0.0" type="line"/>
      <point x="272.0" y="0.0" type="line"/>
      <point x="271" y="28.0" type="line"/>
      <point x="248" y="477.0" type="line"/>
    </contour>
  </outline>
</glyph>
<glyph name="w" format="2">
  <advance width="614"/>
  <unicode hex="0077"/>
  <anchor x="380" y="502" name="aboveLC"/>
  <anchor x="370" y="467" name="aboveLCx"/>
  <outline>
    <contour>
      <point x="434.0" y="0.0" type="line"/>
      <point x="654.7775490069514" y="477.0" type="line"/>
      <point x="511" y="477.0" type="line"/>
      <point x="330" y="57.0" type="line"/>
      <point x="339.0" y="0.0" type="line"/>
    </contour>
    <contour>
      <point x="136.0" y="0.0" type="line"/>
      <point x="169" y="57.0" type="line"/>
      <point x="232" y="477.0" type="line"/>
      <point x="97.77754900695138" y="477.0" type="line"/>
      <point x="43.0" y="0.0" type="line"/>
    </contour>
    <contour>
      <point x="398.0" y="0.0" type="line"/>
      <point x="392" y="57.0" type="line"/>
      <point x="363" y="424.0" type="line"/>
      <point x="349" y="424.0" type="line"/>
      <point x="109" y="57.0" type="line"/>
      <point x="81.0" y="0.0" type="line"/>
      <point x="170.0" y="0.0" type="line"/>
      <point x="323.8261102824256" y="247.0" type="line"/>
      <point x="289.8261102824256" y="247.0" type="line"/>
      <point x="302.0" y="0.0" type="line"/>
    </contour>
  </outline>
</glyph>
<glyph name="x" format="2">
  <advance width="614"/>
  <unicode hex="0078"/>
  <anchor x="384" y="502" name="aboveLC"/>
  <anchor x="227" y="-35" name="below"/>
  <anchor x="236" y="-5" name="belowx"/>
  <anchor x="375" y="472" name="aboveLCx"/>
  <outline>
    <contour>
      <point x="-25" y="0.0" type="line"/>
      <point x="143" y="0.0" type="line"/>
      <point x="345" y="228.0" type="line"/>
      <point x="381" y="228.0" type="line"/>
      <point x="625" y="477.0" type="line"/>
      <point x="444" y="477.0" type="line"/>
      <point x="259" y="261.0" type="line"/>
      <point x="228" y="261.0" type="line"/>
    </contour>
    <contour>
      <point x="519" y="0.0" type="line"/>
      <point x="371" y="261.0" type="line"/>
      <point x="362" y="261.0" type="line"/>
      <point x="267" y="477.0" type="line"/>
      <point x="106" y="477.0" type="line"/>
      <point x="235" y="228.0" type="line"/>
      <point x="249" y="228.0" type="line"/>
      <point x="347" y="0.0" type="line"/>
    </contour>
  </outline>
</glyph>
<glyph name="y" format="2">
  <advance width="614"/>
  <unicode hex="0079"/>
  <anchor x="372" y="502" name="aboveLC"/>
  <anchor x="431" y="-35" name="below"/>
  <anchor x="363" y="472" name="aboveLCx"/>
  <outline>
    <contour>
      <point x="102.77754900695138" y="477.0" type="line"/>
      <point x="166.35433222536582" y="-72.0" type="line"/>
      <point x="234.35433222536585" y="-72.0" type="line"/>
      <point x="285" y="27.0" type="line"/>
      <point x="250" y="477.0" type="line"/>
    </contour>
    <contour>
      <point x="230" y="-140" type="curve" smooth="yes"/>
      <point x="649.7775490069514" y="477.0" type="line"/>
      <point x="485" y="477.0" type="line"/>
      <point x="195" y="26.0" type="line"/>
      <point x="182" y="26.0" type="line"/>
      <point x="123" y="-61" type="line" smooth="yes"/>
      <point x="98" y="-98"/>
      <point x="81" y="-105"/>
      <point x="28" y="-108" type="curve" smooth="yes"/>
      <point x="-96" y="-116.0" type="line"/>
      <point x="-96" y="-236.0" type="line"/>
      <point x="43" y="-229" type="line" smooth="yes"/>
      <point x="159" y="-223"/>
      <point x="190" y="-199"/>
    </contour>
  </outline>
</glyph>
<glyph name="z" format="2">
  <advance width="614"/>
  <unicode hex="007A"/>
  <anchor x="364" y="502" name="aboveLC"/>
  <anchor x="237" y="-35" name="below"/>
  <anchor x="244" y="-10" name="belowcedilla"/>
  <outline>
    <contour>
      <point x="41.0" y="0.0" type="line"/>
      <point x="467.0" y="0.0" type="line"/>
      <point x="499" y="113.0" type="line"/>
      <point x="141" y="113.0" type="line"/>
      <point x="41" y="69.0" type="line"/>
    </contour>
    <contour>
      <point x="258" y="44" type="line"/>
      <point x="258" y="143" type="line"/>
      <point x="233" y="92" type="line"/>
      <point x="559" y="407" type="line"/>
      <point x="344" y="433" type="line"/>
      <point x="344" y="334" type="line"/>
      <point x="369" y="385" type="line"/>
      <point x="41" y="69" type="line"/>
    </contour>
    <contour>
      <point x="128" y="364.0" type="line"/>
      <point x="452" y="364.0" type="line"/>
      <point x="559" y="407.0" type="line"/>
      <point x="559" y="477.0" type="line"/>
      <point x="161" y="477.0" type="line"/>
    </contour>
  </outline>
</glyph>
<glyph name="braceleft" format="2">
  <advance width="614"/>
  <unicode hex="007B"/>
  <outline>
    <contour>
      <point x="324" y="752"/>
      <point x="292" y="704"/>
      <point x="292" y="645" type="curve" smooth="yes"/>
      <point x="292" y="622"/>
      <point x="300" y="601"/>
      <point x="319" y="572" type="curve" smooth="yes"/>
      <point x="353" y="520" type="line" smooth="yes"/>
      <point x="364" y="503"/>
      <point x="370.0" y="492.0"/>
      <point x="370" y="484" type="curve" smooth="yes"/>
      <point x="370.0" y="464.0"/>
      <point x="353" y="455"/>
      <point x="106" y="391" type="curve"/>
      <point x="93" y="318" type="line"/>
      <point x="96" y="318" type="line"/>
      <point x="504.0" y="386.0"/>
      <point x="532.0" y="422.0"/>
      <point x="532" y="471" type="curve" smooth="yes"/>
      <point x="532.0" y="490"/>
      <point x="522" y="510"/>
      <point x="496" y="549" type="curve" smooth="yes"/>
      <point x="462" y="601" type="line" smooth="yes"/>
      <point x="449" y="620"/>
      <point x="448" y="625"/>
      <point x="448" y="633" type="curve" smooth="yes"/>
      <point x="448" y="646"/>
      <point x="457" y="653"/>
      <point x="490" y="658" type="curve" smooth="yes"/>
      <point x="716" y="689" type="line"/>
      <point x="751" y="810" type="line"/>
      <point x="440" y="768" type="line" smooth="yes"/>
    </contour>
    <contour>
      <point x="72" y="271.0" type="line"/>
      <point x="193" y="271.0" type="line"/>
      <point x="227" y="391.0" type="line"/>
      <point x="106" y="391.0" type="line"/>
    </contour>
    <contour>
      <point x="126" y="47"/>
      <point x="113.0" y="21"/>
      <point x="113" y="-17" type="curve" smooth="yes"/>
      <point x="113.0" y="-65"/>
      <point x="141" y="-98"/>
      <point x="260" y="-116" type="curve" smooth="yes"/>
      <point x="476" y="-148" type="line"/>
      <point x="510" y="-27" type="line"/>
      <point x="302" y="4" type="line" smooth="yes"/>
      <point x="287" y="6"/>
      <point x="282" y="14"/>
      <point x="282" y="23" type="curve" smooth="yes"/>
      <point x="282" y="33"/>
      <point x="286" y="41"/>
      <point x="312" y="61" type="curve" smooth="yes"/>
      <point x="367" y="105" type="line" smooth="yes"/>
      <point x="429" y="155"/>
      <point x="440.0" y="173"/>
      <point x="440" y="199" type="curve" smooth="yes"/>
      <point x="440.0" y="239"/>
      <point x="418" y="273"/>
      <point x="101" y="336" type="curve"/>
      <point x="98" y="336" type="line"/>
      <point x="72" y="271" type="line"/>
      <point x="263" y="222"/>
      <point x="279.0" y="207.0"/>
      <point x="279" y="190" type="curve" smooth="yes"/>
      <point x="279" y="180"/>
      <point x="271" y="172"/>
      <point x="243" y="148" type="curve" smooth="yes"/>
      <point x="186" y="99" type="line" smooth="yes"/>
    </contour>
  </outline>
</glyph>
<glyph name="bar" format="2">
  <advance width="614"/>
  <unicode hex="007C"/>
  <outline>
    <contour>
      <point x="520.4927662479" y="755.0" type="line"/>
      <point x="390.4927662479" y="755.0" type="line"/>
      <point x="145.3254614241192" y="-100.0" type="line"/>
      <point x="275.3254614241192" y="-100.0" type="line"/>
    </contour>
  </outline>
</glyph>
<glyph name="braceright" format="2">
  <advance width="614"/>
  <unicode hex="007D"/>
  <outline>
    <contour>
      <point x="358" y="-90"/>
      <point x="390" y="-42"/>
      <point x="390" y="17" type="curve" smooth="yes"/>
      <point x="390" y="40"/>
      <point x="382" y="61"/>
      <point x="363" y="90" type="curve" smooth="yes"/>
      <point x="329" y="142" type="line" smooth="yes"/>
      <point x="318" y="159"/>
      <point x="312.0" y="170.0"/>
      <point x="312" y="178" type="curve" smooth="yes"/>
      <point x="312.0" y="198.0"/>
      <point x="329" y="207"/>
      <point x="576" y="271" type="curve"/>
      <point x="589" y="344" type="line"/>
      <point x="586" y="344" type="line"/>
      <point x="178.0" y="276.0"/>
      <point x="150.0" y="240.0"/>
      <point x="150" y="191" type="curve" smooth="yes"/>
      <point x="150.0" y="172.0"/>
      <point x="160" y="152"/>
      <point x="186" y="113" type="curve" smooth="yes"/>
      <point x="220" y="61" type="line" smooth="yes"/>
      <point x="233" y="42"/>
      <point x="234" y="37"/>
      <point x="234" y="29" type="curve" smooth="yes"/>
      <point x="234" y="16"/>
      <point x="225" y="9"/>
      <point x="192" y="4" type="curve" smooth="yes"/>
      <point x="-34" y="-27" type="line"/>
      <point x="-69" y="-148" type="line"/>
      <point x="242" y="-106" type="line" smooth="yes"/>
    </contour>
    <contour>
      <point x="610.0" y="391.0" type="line"/>
      <point x="489.0" y="391.0" type="line"/>
      <point x="455.0" y="271.0" type="line"/>
      <point x="576.0" y="271.0" type="line"/>
    </contour>
    <contour>
      <point x="556" y="615"/>
      <point x="569.0" y="641.0"/>
      <point x="569" y="679" type="curve" smooth="yes"/>
      <point x="569.0" y="727.0"/>
      <point x="541" y="760"/>
      <point x="422" y="778" type="curve" smooth="yes"/>
      <point x="206" y="810" type="line"/>
      <point x="172" y="689" type="line"/>
      <point x="380" y="658" type="line" smooth="yes"/>
      <point x="395" y="656"/>
      <point x="400" y="648"/>
      <point x="400" y="639" type="curve" smooth="yes"/>
      <point x="400" y="629"/>
      <point x="396" y="621"/>
      <point x="370" y="601" type="curve" smooth="yes"/>
      <point x="315" y="557" type="line" smooth="yes"/>
      <point x="253" y="507"/>
      <point x="242.0" y="489.0"/>
      <point x="242" y="463" type="curve" smooth="yes"/>
      <point x="242.0" y="423.0"/>
      <point x="264" y="389"/>
      <point x="581" y="326" type="curve"/>
      <point x="584" y="326" type="line"/>
      <point x="610" y="391" type="line"/>
      <point x="419" y="440"/>
      <point x="403.0" y="455.0"/>
      <point x="403" y="472" type="curve" smooth="yes"/>
      <point x="403" y="482"/>
      <point x="411" y="490"/>
      <point x="439" y="514" type="curve" smooth="yes"/>
      <point x="496" y="563" type="line" smooth="yes"/>
    </contour>
  </outline>
</glyph>
<glyph name="asciitilde" format="2">
  <advance width="614"/>
  <unicode hex="007E"/>
  <outline>
    <contour>
      <point x="350" y="390.0" type="curve" smooth="yes"/>
      <point x="291" y="446"/>
      <point x="274" y="460.0"/>
      <point x="234" y="460.0" type="curve" smooth="yes"/>
      <point x="174" y="460"/>
      <point x="130" y="429"/>
      <point x="33" y="255.0" type="curve"/>
      <point x="133" y="196.0" type="line"/>
      <point x="200" y="307"/>
      <point x="212" y="326"/>
      <point x="227" y="326.0" type="curve" smooth="yes"/>
      <point x="240" y="326.0"/>
      <point x="248" y="320"/>
      <point x="299" y="272.0" type="curve" smooth="yes"/>
      <point x="358" y="216"/>
      <point x="375.0" y="202.0"/>
      <point x="415.0" y="202.0" type="curve" smooth="yes"/>
      <point x="475" y="202"/>
      <point x="519" y="233"/>
      <point x="616.0" y="407.0" type="curve"/>
      <point x="516.0" y="466.0" type="line"/>
      <point x="449" y="355"/>
      <point x="437" y="336"/>
      <point x="422.0" y="336.0" type="curve" smooth="yes"/>
      <point x="409.0" y="336.0"/>
      <point x="401" y="342"/>
    </contour>
  </outline>
</glyph>
<glyph name="exclamdown" format="2">
  <advance width="614"/>
  <unicode hex="00A1"/>
  <outline>
    <contour>
      <point x="414.0" y="433.0" type="line"/>
      <point x="316.0" y="433.0" type="line"/>
      <point x="107.0" y="0.0" type="line"/>
      <point x="372.0" y="0.0" type="line"/>
    </contour>
    <contour>
      <point x="411" y="549" type="curve" smooth="yes"/>
      <point x="524.0" y="549.0"/>
      <point x="557.0" y="605.0"/>
      <point x="557" y="664" type="curve" smooth="yes"/>
      <point x="557" y="705"/>
      <point x="527" y="725"/>
      <point x="449" y="725" type="curve" smooth="yes"/>
      <point x="336.0" y="725.0"/>
      <point x="303.0" y="669.0"/>
      <point x="303" y="610" type="curve" smooth="yes"/>
      <point x="303" y="569"/>
      <point x="333" y="549"/>
    </contour>
  </outline>
</glyph>
<glyph name="sterling" format="2">
  <advance width="614"/>
  <unicode hex="00A3"/>
  <outline>
    <contour>
      <point x="7.0" y="0.0" type="line"/>
      <point x="495.0" y="0.0" type="line"/>
      <point x="529.409446291057" y="120.0" type="line"/>
      <point x="83.40944629105695" y="120.0" type="line"/>
      <point x="7" y="70.0" type="line"/>
    </contour>
    <contour>
      <point x="75" y="250.0" type="line"/>
      <point x="269" y="250.0" type="line"/>
      <point x="272" y="261.0" type="line"/>
      <point x="516" y="261.0" type="line"/>
      <point x="538" y="339.0" type="line"/>
      <point x="302" y="339.0" type="line"/>
      <point x="298" y="326.0" type="line"/>
      <point x="98" y="326.0" type="line"/>
    </contour>
    <contour>
      <point x="351" y="219"/>
      <point x="366" y="259"/>
      <point x="366" y="321" type="curve" smooth="yes"/>
      <point x="366" y="387"/>
      <point x="301" y="415"/>
      <point x="301" y="475" type="curve" smooth="yes"/>
      <point x="301" y="505"/>
      <point x="333" y="550"/>
      <point x="400" y="550.0" type="curve" smooth="yes"/>
      <point x="457.62295081967216" y="550.0"/>
      <point x="500" y="537"/>
      <point x="585" y="469" type="curve"/>
      <point x="664" y="575" type="line"/>
      <point x="564" y="647"/>
      <point x="501" y="670.0"/>
      <point x="404" y="670.0" type="curve" smooth="yes"/>
      <point x="230.90551181102362" y="670.0"/>
      <point x="157" y="561"/>
      <point x="157" y="479" type="curve" smooth="yes"/>
      <point x="157" y="367"/>
      <point x="249" y="352"/>
      <point x="249" y="288" type="curve" smooth="yes"/>
      <point x="249" y="268"/>
      <point x="231" y="248"/>
      <point x="7" y="70" type="curve"/>
      <point x="36" y="48" type="line"/>
      <point x="121" y="58" type="line"/>
    </contour>
  </outline>
</glyph>
<glyph name="yen" format="2">
  <advance width="614"/>
  <unicode hex="00A5"/>
  <outline>
    <contour>
      <point x="135" y="655.0" type="line"/>
      <point x="286" y="268.0" type="line"/>
      <point x="386" y="347.0" type="line"/>
      <point x="286" y="655.0" type="line"/>
    </contour>
    <contour>
      <point x="89" y="283.0" type="line"/>
      <point x="320" y="283.0" type="line"/>
      <point x="342" y="359.0" type="line"/>
      <point x="111" y="359.0" type="line"/>
    </contour>
    <contour>
      <point x="44" y="124.0" type="line"/>
      <point x="506" y="124.0" type="line"/>
      <point x="527" y="200.0" type="line"/>
      <point x="65" y="200.0" type="line"/>
    </contour>
    <contour>
      <point x="272" y="347.0" type="line"/>
      <point x="346" y="269.0" type="line"/>
      <point x="719" y="655.0" type="line"/>
      <point x="551" y="655.0" type="line"/>
    </contour>
    <contour>
      <point x="325" y="283.0" type="line"/>
      <point x="551" y="283.0" type="line"/>
      <point x="573" y="359.0" type="line"/>
      <point x="347" y="359.0" type="line"/>
    </contour>
    <contour>
      <point x="273" y="353.0" type="line"/>
      <point x="172" y="0.0" type="line"/>
      <point x="306" y="0.0" type="line"/>
      <point x="407" y="353.0" type="line"/>
    </contour>
  </outline>
</glyph>
<glyph name="section" format="2">
  <advance width="614"/>
  <unicode hex="00A7"/>
  <outline>
    <contour>
      <point x="569" y="256" type="curve" smooth="yes"/>
      <point x="569.0" y="305.0"/>
      <point x="547" y="341"/>
      <point x="467" y="385" type="curve" smooth="yes"/>
      <point x="377" y="434" type="line" smooth="yes"/>
      <point x="325" y="462"/>
      <point x="309" y="475"/>
      <point x="309" y="499" type="curve" smooth="yes"/>
      <point x="309" y="530"/>
      <point x="334" y="548"/>
      <point x="403" y="548" type="curve" smooth="yes"/>
      <point x="463" y="548"/>
      <point x="531" y="535"/>
      <point x="619" y="507" type="curve"/>
      <point x="653" y="625" type="line"/>
      <point x="568" y="651"/>
      <point x="497" y="667"/>
      <point x="406" y="667" type="curve" smooth="yes"/>
      <point x="248" y="667"/>
      <point x="165" y="590"/>
      <point x="165" y="491" type="curve" smooth="yes"/>
      <point x="165" y="413"/>
      <point x="201" y="370"/>
      <point x="294" y="320" type="curve" smooth="yes"/>
      <point x="346" y="292" type="line" smooth="yes"/>
      <point x="418" y="253"/>
      <point x="425.0" y="245.0"/>
      <point x="425" y="225" type="curve" smooth="yes"/>
      <point x="425.0" y="193.0"/>
      <point x="395" y="171"/>
      <point x="256" y="91" type="curve"/>
      <point x="343" y="30" type="line"/>
      <point x="538" y="129"/>
      <point x="569.0" y="177.0"/>
    </contour>
    <contour>
      <point x="24" y="171" type="curve" smooth="yes"/>
      <point x="24.0" y="122.0"/>
      <point x="46" y="86"/>
      <point x="126" y="42" type="curve" smooth="yes"/>
      <point x="216" y="-7" type="line" smooth="yes"/>
      <point x="268" y="-35"/>
      <point x="284" y="-48"/>
      <point x="284" y="-72" type="curve" smooth="yes"/>
      <point x="284" y="-103"/>
      <point x="259" y="-121"/>
      <point x="190" y="-121" type="curve" smooth="yes"/>
      <point x="130" y="-121"/>
      <point x="62" y="-108"/>
      <point x="-26" y="-80" type="curve"/>
      <point x="-60" y="-198" type="line"/>
      <point x="25" y="-224"/>
      <point x="96" y="-240"/>
      <point x="187" y="-240" type="curve" smooth="yes"/>
      <point x="345" y="-240"/>
      <point x="428" y="-163"/>
      <point x="428" y="-64" type="curve" smooth="yes"/>
      <point x="428" y="14"/>
      <point x="392" y="57"/>
      <point x="299" y="107" type="curve" smooth="yes"/>
      <point x="247" y="135" type="line" smooth="yes"/>
      <point x="175" y="174"/>
      <point x="168.0" y="182.0"/>
      <point x="168" y="202" type="curve" smooth="yes"/>
      <point x="168.0" y="234.3448275862069"/>
      <point x="198" y="256"/>
      <point x="337" y="336" type="curve"/>
      <point x="250" y="397" type="line"/>
      <point x="55" y="298"/>
      <point x="24.0" y="250.31730769230768"/>
    </contour>
  </outline>
</glyph>
<glyph name="copyright" format="2">
  <advance width="614"/>
  <unicode hex="00A9"/>
  <outline>
    <contour>
      <point x="287" y="97" type="curve" smooth="yes"/>
      <point x="326" y="97.0"/>
      <point x="366" y="108"/>
      <point x="434" y="187" type="curve"/>
      <point x="375" y="233" type="line"/>
      <point x="333" y="184"/>
      <point x="317" y="177"/>
      <point x="298" y="177" type="curve" smooth="yes"/>
      <point x="278" y="177"/>
      <point x="266" y="193"/>
      <point x="266" y="230" type="curve" smooth="yes"/>
      <point x="266.0" y="338.0"/>
      <point x="333" y="478.0"/>
      <point x="381" y="478" type="curve" smooth="yes"/>
      <point x="403" y="478.0"/>
      <point x="412" y="472"/>
      <point x="424" y="416" type="curve"/>
      <point x="500" y="438" type="line"/>
      <point x="482" y="535"/>
      <point x="444.0" y="558.0"/>
      <point x="387" y="558" type="curve" smooth="yes"/>
      <point x="287" y="558.0"/>
      <point x="180.0" y="399"/>
      <point x="180" y="224" type="curve" smooth="yes"/>
      <point x="180.0" y="142"/>
      <point x="217" y="97.0"/>
    </contour>
    <contour>
      <point x="133" y="327" type="curve" smooth="yes"/>
      <point x="213" y="605"/>
      <point x="306" y="680"/>
      <point x="425" y="680" type="curve" smooth="yes"/>
      <point x="515" y="680"/>
      <point x="572" y="648"/>
      <point x="572" y="548" type="curve" smooth="yes"/>
      <point x="572" y="491"/>
      <point x="560" y="423"/>
      <point x="533" y="328" type="curve" smooth="yes"/>
      <point x="453" y="50"/>
      <point x="360" y="-25"/>
      <point x="241" y="-25" type="curve" smooth="yes"/>
      <point x="151" y="-25"/>
      <point x="94" y="7"/>
      <point x="94" y="107" type="curve" smooth="yes"/>
      <point x="94" y="165"/>
      <point x="106.0" y="232.0"/>
    </contour>
    <contour>
      <point x="581" y="313" type="curve" smooth="yes"/>
      <point x="609" y="409"/>
      <point x="622.0" y="485.0"/>
      <point x="622" y="545" type="curve" smooth="yes"/>
      <point x="622" y="679"/>
      <point x="550" y="725"/>
      <point x="428" y="725" type="curve" smooth="yes"/>
      <point x="284" y="725"/>
      <point x="169" y="634"/>
      <point x="85" y="342" type="curve" smooth="yes"/>
      <point x="57.0" y="246.0"/>
      <point x="44.0" y="170.0"/>
      <point x="44" y="110" type="curve" smooth="yes"/>
      <point x="44" y="-24"/>
      <point x="116" y="-70"/>
      <point x="238" y="-70" type="curve" smooth="yes"/>
      <point x="382" y="-70"/>
      <point x="497" y="21"/>
    </contour>
  </outline>
</glyph>
<glyph name="ordfeminine" format="2">
  <advance width="614"/>
  <unicode hex="00AA"/>
  <outline>
    <contour>
      <point x="119" y="241" type="line"/>
      <point x="96" y="161" type="line"/>
      <point x="482" y="161" type="line"/>
      <point x="505" y="241" type="line"/>
    </contour>
    <contour>
      <point x="298" y="404" type="curve" smooth="yes"/>
      <point x="279" y="404"/>
      <point x="266" y="412"/>
      <point x="266" y="425" type="curve" smooth="yes"/>
      <point x="266" y="440"/>
      <point x="270" y="452"/>
      <point x="281" y="463" type="curve" smooth="yes"/>
      <point x="290" y="472"/>
      <point x="307" y="477"/>
      <point x="365" y="481" type="curve" smooth="yes"/>
      <point x="449" y="487" type="line"/>
      <point x="471" y="555" type="line"/>
      <point x="353" y="548" type="line" smooth="yes"/>
      <point x="251" y="542"/>
      <point x="215" y="528"/>
      <point x="188" y="502" type="curve" smooth="yes"/>
      <point x="166" y="480"/>
      <point x="155" y="437"/>
      <point x="155" y="404" type="curve" smooth="yes"/>
      <point x="155" y="357"/>
      <point x="187" y="324"/>
      <point x="247" y="324" type="curve" smooth="yes"/>
      <point x="312" y="324"/>
      <point x="362" y="336"/>
      <point x="411" y="367" type="curve"/>
      <point x="416" y="367" type="line"/>
      <point x="429" y="450" type="line"/>
      <point x="392" y="417"/>
      <point x="332" y="404"/>
    </contour>
    <contour>
      <point x="528" y="464" type="curve" smooth="yes"/>
      <point x="561" y="555" type="line" smooth="yes"/>
      <point x="569" y="576"/>
      <point x="572" y="595"/>
      <point x="572" y="611" type="curve" smooth="yes"/>
      <point x="572" y="667"/>
      <point x="520" y="692"/>
      <point x="416" y="692" type="curve" smooth="yes"/>
      <point x="388" y="692"/>
      <point x="337" y="690"/>
      <point x="263" y="681" type="curve"/>
      <point x="240" y="592" type="line"/>
      <point x="311" y="601"/>
      <point x="360" y="604"/>
      <point x="386" y="604" type="curve" smooth="yes"/>
      <point x="441" y="604"/>
      <point x="461" y="597"/>
      <point x="461" y="580" type="curve" smooth="yes"/>
      <point x="461.0" y="572.0"/>
      <point x="459" y="567"/>
      <point x="452" y="545" type="curve" smooth="yes"/>
      <point x="411" y="422" type="line"/>
      <point x="416" y="367" type="line"/>
      <point x="429" y="347"/>
      <point x="460" y="332"/>
      <point x="510" y="327" type="curve" smooth="yes"/>
      <point x="542" y="324" type="line"/>
      <point x="566" y="405" type="line"/>
      <point x="543" y="410" type="line" smooth="yes"/>
      <point x="527" y="413"/>
      <point x="520" y="417"/>
      <point x="520" y="429" type="curve" smooth="yes"/>
      <point x="520.0" y="436.0"/>
      <point x="521" y="444"/>
    </contour>
  </outline>
</glyph>
<glyph name="guillemetleft" format="2">
  <advance width="614"/>
  <unicode hex="00AB"/>
  <outline>
    <contour>
      <point x="114" y="177.0" type="line"/>
      <point x="312" y="349.0" type="line"/>
      <point x="352" y="492.0" type="line"/>
      <point x="67" y="297.0" type="line"/>
      <point x="67" y="207.0" type="line"/>
    </contour>
    <contour>
      <point x="142" y="273.0" type="line"/>
      <point x="67" y="297.0" type="line"/>
      <point x="34" y="181.0" type="line"/>
      <point x="206" y="-15.0" type="line"/>
      <point x="239" y="97.0" type="line"/>
    </contour>
    <contour>
      <point x="389" y="157.0" type="line"/>
      <point x="587" y="349.0" type="line"/>
      <point x="627" y="492.0" type="line"/>
      <point x="341" y="277.0" type="line"/>
      <point x="341" y="172.0" type="line"/>
    </contour>
    <contour>
      <point x="417" y="253.0" type="line"/>
      <point x="341" y="277.0" type="line"/>
      <point x="308" y="161.0" type="line"/>
      <point x="481" y="-15.0" type="line"/>
      <point x="514" y="97.0" type="line"/>
    </contour>
  </outline>
</glyph>
<glyph name="registered" format="2">
  <advance width="614"/>
  <unicode hex="00AE"/>
  <outline>
    <contour>
      <point x="332" y="208" type="curve" smooth="yes"/>
      <point x="506" y="208"/>
      <point x="620" y="369"/>
      <point x="620" y="538" type="curve" smooth="yes"/>
      <point x="620" y="655"/>
      <point x="544" y="725"/>
      <point x="413" y="725" type="curve" smooth="yes"/>
      <point x="239" y="725"/>
      <point x="125" y="564"/>
      <point x="125" y="395" type="curve" smooth="yes"/>
      <point x="125" y="278"/>
      <point x="201" y="208"/>
    </contour>
    <contour>
      <point x="414" y="689" type="curve" smooth="yes"/>
      <point x="524" y="689"/>
      <point x="580" y="636"/>
      <point x="580" y="532" type="curve" smooth="yes"/>
      <point x="580" y="375"/>
      <point x="469" y="244"/>
      <point x="331" y="244" type="curve" smooth="yes"/>
      <point x="221" y="244"/>
      <point x="165" y="297"/>
      <point x="165" y="401" type="curve" smooth="yes"/>
      <point x="165" y="558"/>
      <point x="276" y="689"/>
    </contour>
    <contour>
      <point x="337" y="604" type="line"/>
      <point x="324" y="555" type="line"/>
      <point x="402" y="555" type="line" smooth="yes"/>
      <point x="419" y="555"/>
      <point x="428" y="547"/>
      <point x="428" y="532" type="curve" smooth="yes"/>
      <point x="428" y="508"/>
      <point x="413" y="487"/>
      <point x="364" y="483" type="curve" smooth="yes"/>
      <point x="300" y="478" type="line"/>
      <point x="289" y="439" type="line"/>
      <point x="391" y="447" type="line"/>
      <point x="391" y="450" type="line"/>
      <point x="462" y="455"/>
      <point x="494" y="491"/>
      <point x="494" y="543" type="curve" smooth="yes"/>
      <point x="494" y="581"/>
      <point x="469" y="604"/>
      <point x="415" y="604" type="curve" smooth="yes"/>
    </contour>
    <contour>
      <point x="322" y="604" type="line"/>
      <point x="247" y="343" type="line"/>
      <point x="308" y="343" type="line"/>
      <point x="383" y="604" type="line"/>
    </contour>
    <contour>
      <point x="456" y="345" type="line"/>
      <point x="433" y="392" type="line" smooth="yes"/>
      <point x="416" y="427"/>
      <point x="406" y="436"/>
      <point x="391" y="447" type="curve"/>
      <point x="307" y="447" type="line"/>
      <point x="304" y="437" type="line"/>
      <point x="341" y="437"/>
      <point x="350" y="431"/>
      <point x="360" y="406" type="curve" smooth="yes"/>
      <point x="384" y="343" type="line"/>
      <point x="455" y="343" type="line"/>
    </contour>
  </outline>
</glyph>
<glyph name="plusminus" format="2">
  <advance width="614"/>
  <unicode hex="00B1"/>
  <outline>
    <contour>
      <point x="483.0" y="0.0" type="line"/>
      <point x="516" y="115.0" type="line"/>
      <point x="27" y="115.0" type="line"/>
      <point x="-6.0" y="0.0" type="line"/>
    </contour>
    <contour>
      <point x="360.8182276720192" y="655.0" type="line"/>
      <point x="228.34185945144992" y="193.0" type="line"/>
      <point x="359.3418594514499" y="193.0" type="line"/>
      <point x="491.81822767201925" y="655.0" type="line"/>
    </contour>
    <contour>
      <point x="99" y="366.0" type="line"/>
      <point x="588" y="366.0" type="line"/>
      <point x="621" y="482.0" type="line"/>
      <point x="132" y="482.0" type="line"/>
    </contour>
  </outline>
</glyph>
<glyph name="paragraph" format="2">
  <advance width="614"/>
  <unicode hex="00B6"/>
  <outline>
    <contour>
      <point x="503" y="655" type="line"/>
      <point x="316" y="0.0" type="line"/>
      <point x="450" y="0.0" type="line"/>
      <point x="638" y="655" type="line"/>
    </contour>
    <contour>
      <point x="294" y="239" type="line"/>
      <point x="388" y="567" type="line"/>
      <point x="450" y="655" type="line"/>
      <point x="431" y="655" type="line" smooth="yes"/>
      <point x="217" y="655"/>
      <point x="118" y="541"/>
      <point x="118" y="399" type="curve" smooth="yes"/>
      <point x="118" y="297"/>
      <point x="181" y="239"/>
      <point x="291" y="239" type="curve" smooth="yes"/>
    </contour>
    <contour>
      <point x="374" y="551" type="line"/>
      <point x="596" y="551" type="line"/>
      <point x="626" y="655" type="line"/>
      <point x="435" y="655" type="line"/>
    </contour>
  </outline>
</glyph>
<glyph name="ordmasculine" format="2">
  <advance width="614"/>
  <unicode hex="00BA"/>
  <outline>
    <contour>
      <point x="126" y="241" type="line"/>
      <point x="103" y="161" type="line"/>
      <point x="478" y="161" type="line"/>
      <point x="501" y="241" type="line"/>
    </contour>
    <contour>
      <point x="360" y="417" type="curve" smooth="yes"/>
      <point x="320" y="417"/>
      <point x="296" y="437"/>
      <point x="296" y="475" type="curve" smooth="yes"/>
      <point x="296" y="542"/>
      <point x="337" y="600"/>
      <point x="407" y="600" type="curve" smooth="yes"/>
      <point x="447" y="600"/>
      <point x="471" y="580"/>
      <point x="471" y="542" type="curve" smooth="yes"/>
      <point x="471" y="475"/>
      <point x="430" y="417"/>
    </contour>
    <contour>
      <point x="422" y="692" type="curve" smooth="yes"/>
      <point x="268" y="692"/>
      <point x="182" y="593"/>
      <point x="182" y="471" type="curve" smooth="yes"/>
      <point x="182" y="382"/>
      <point x="244" y="325"/>
      <point x="345" y="325" type="curve" smooth="yes"/>
      <point x="499" y="325"/>
      <point x="585" y="424"/>
      <point x="585" y="546" type="curve" smooth="yes"/>
      <point x="585" y="635"/>
      <point x="523" y="692"/>
    </contour>
  </outline>
</glyph>
<glyph name="guillemetright" format="2">
  <advance width="614"/>
  <unicode hex="00BB"/>
  <outline>
    <contour>
      <point x="500.0" y="300.0" type="line"/>
      <point x="302.0" y="128.0" type="line"/>
      <point x="262.0" y="-15.0" type="line"/>
      <point x="547.0" y="180.0" type="line"/>
      <point x="547.0" y="270.0" type="line"/>
    </contour>
    <contour>
      <point x="472.0" y="204.0" type="line"/>
      <point x="547.0" y="180.0" type="line"/>
      <point x="580.0" y="296.0" type="line"/>
      <point x="408.0" y="492.0" type="line"/>
      <point x="375.0" y="380.0" type="line"/>
    </contour>
    <contour>
      <point x="225.0" y="320.0" type="line"/>
      <point x="27.0" y="128.0" type="line"/>
      <point x="-13.0" y="-15.0" type="line"/>
      <point x="273.0" y="200.0" type="line"/>
      <point x="273.0" y="305.0" type="line"/>
    </contour>
    <contour>
      <point x="197.0" y="224.0" type="line"/>
      <point x="273.0" y="200.0" type="line"/>
      <point x="306.0" y="316.0" type="line"/>
      <point x="133.0" y="492.0" type="line"/>
      <point x="100.0" y="380.0" type="line"/>
    </contour>
  </outline>
</glyph>
<glyph name="questiondown" format="2">
  <advance width="614"/>
  <unicode hex="00BF"/>
  <outline>
    <contour>
      <point x="368.0" y="433.0" type="line"/>
      <point x="344.0" y="382.0"/>
      <point x="336.0" y="374.0"/>
      <point x="304.0" y="361.0" type="curve" smooth="yes"/>
      <point x="219.0" y="326.0" type="line" smooth="yes"/>
      <point x="79.0" y="268.0"/>
      <point x="42.0" y="216.0"/>
      <point x="42.0" y="131.0" type="curve" smooth="yes"/>
      <point x="42.0" y="41.0"/>
      <point x="100.0" y="-15.0"/>
      <point x="226.0" y="-15.0" type="curve" smooth="yes"/>
      <point x="302.0" y="-15.0"/>
      <point x="387.0" y="-2.0"/>
      <point x="532.0" y="46.0" type="curve"/>
      <point x="500.0" y="161.0" type="line"/>
      <point x="352.0" y="115.0"/>
      <point x="300.0" y="105.0"/>
      <point x="258.0" y="105.0" type="curve" smooth="yes"/>
      <point x="216.0" y="105.0"/>
      <point x="195.0" y="123.0"/>
      <point x="195.0" y="148.0" type="curve" smooth="yes"/>
      <point x="195.0" y="175.0"/>
      <point x="203.0" y="194.0"/>
      <point x="296.0" y="232.0" type="curve" smooth="yes"/>
      <point x="372.0" y="263.0" type="line" smooth="yes"/>
      <point x="430.0" y="287.0"/>
      <point x="449.0" y="305.0"/>
      <point x="457.0" y="332.0" type="curve" smooth="yes"/>
      <point x="463.0" y="353.0"/>
      <point x="465.0" y="374.0"/>
      <point x="466.0" y="433.0" type="curve"/>
    </contour>
    <contour>
      <point x="462" y="549" type="curve" smooth="yes"/>
      <point x="575" y="549"/>
      <point x="608" y="605"/>
      <point x="608" y="664" type="curve" smooth="yes"/>
      <point x="608" y="705"/>
      <point x="578" y="725"/>
      <point x="500" y="725" type="curve" smooth="yes"/>
      <point x="387" y="725"/>
      <point x="354" y="669"/>
      <point x="354" y="610" type="curve" smooth="yes"/>
      <point x="354" y="569"/>
      <point x="384" y="549"/>
    </contour>
  </outline>
</glyph>
<glyph name="Aring" format="2">
  <advance width="614"/>
  <unicode hex="00C5"/>
  <outline>
    <contour>
      <point x="144" y="126" type="line"/>
      <point x="391" y="126" type="line"/>
      <point x="394" y="239" type="line"/>
      <point x="205" y="239" type="line"/>
    </contour>
    <contour>
      <point x="111" y="0" type="line"/>
      <point x="219" y="189" type="line"/>
      <point x="217" y="189" type="line"/>
      <point x="413" y="553" type="line"/>
      <point x="420" y="572" type="line"/>
      <point x="336" y="655" type="line"/>
      <point x="-40" y="0" type="line"/>
    </contour>
    <contour>
      <point x="520" y="0" type="line"/>
      <point x="514" y="655" type="line"/>
      <point x="386" y="572" type="line"/>
      <point x="393" y="551" type="line"/>
      <point x="388" y="185" type="line"/>
      <point x="382" y="184" type="line"/>
      <point x="380" y="0" type="line"/>
    </contour>
    <contour>
      <point x="440" y="740" type="curve" smooth="yes"/>
      <point x="489.0" y="740.0"/>
      <point x="510" y="722"/>
      <point x="510" y="696" type="curve" smooth="yes"/>
      <point x="510" y="655"/>
      <point x="482" y="623"/>
      <point x="426" y="623" type="curve" smooth="yes"/>
      <point x="377.0" y="623.0"/>
      <point x="356" y="641"/>
      <point x="356" y="667" type="curve" smooth="yes"/>
      <point x="356" y="708"/>
      <point x="384" y="740"/>
    </contour>
    <contour>
      <point x="417" y="545" type="curve" smooth="yes"/>
      <point x="533.0" y="545.0"/>
      <point x="610" y="608"/>
      <point x="610" y="701" type="curve" smooth="yes"/>
      <point x="610" y="767"/>
      <point x="560" y="818"/>
      <point x="449" y="818" type="curve" smooth="yes"/>
      <point x="333.0" y="818.0"/>
      <point x="256" y="755"/>
      <point x="256" y="662" type="curve" smooth="yes"/>
      <point x="256" y="596"/>
      <point x="306" y="545"/>
    </contour>
  </outline>
</glyph>
<glyph name="AE" format="2">
  <advance width="614"/>
  <unicode hex="00C6"/>
  <outline>
    <contour>
      <point x="55.0" y="0.0" type="line"/>
      <point x="403.50261148501374" y="626.0" type="line"/>
      <point x="422.8182276720192" y="655.0" type="line"/>
      <point x="309.8182276720192" y="655.0" type="line"/>
      <point x="-69.0" y="0.0" type="line"/>
    </contour>
    <contour>
      <point x="86.71784477775071" y="142.0" type="line"/>
      <point x="275.7178447777507" y="142.0" type="line"/>
      <point x="305.25261951090795" y="245.0" type="line"/>
      <point x="132.25261951090795" y="245.0" type="line"/>
    </contour>
    <contour>
      <point x="348" y="543.0" type="line"/>
      <point x="387" y="543.0" type="line"/>
      <point x="419.8182276720192" y="655.0" type="line"/>
      <point x="380.8182276720192" y="655.0" type="line"/>
    </contour>
    <contour>
      <point x="408.8182276720192" y="655.0" type="line"/>
      <point x="221.0" y="0.0" type="line"/>
      <point x="356.0" y="0.0" type="line"/>
      <point x="543.8182276720192" y="655.0" type="line"/>
    </contour>
    <contour>
      <point x="382.70274446703274" y="543.0" type="line"/>
      <point x="661.7027444670327" y="543.0" type="line"/>
      <point x="693.8182276720192" y="655.0" type="line"/>
      <point x="414.8182276720192" y="655.0" type="line"/>
    </contour>
    <contour>
      <point x="227.0" y="0.0" type="line"/>
      <point x="506.0" y="0.0" type="line"/>
      <point x="538.1154832049865" y="112.0" type="line"/>
      <point x="259.1154832049865" y="112.0" type="line"/>
    </contour>
    <contour>
      <point x="306.141726469431" y="276.0" type="line"/>
      <point x="571.141726469431" y="276.0" type="line"/>
      <point x="602.1102281313822" y="384.0" type="line"/>
      <point x="337.11022813138226" y="384.0" type="line"/>
    </contour>
  </outline>
</glyph>
<glyph name="Ccedilla" format="2">
  <advance width="614"/>
  <unicode hex="00C7"/>
  <outline>
    <contour>
      <point x="282.0" y="-15.0" type="curve" smooth="yes"/>
      <point x="356.0" y="-15.0"/>
      <point x="437.0" y="5.0"/>
      <point x="530" y="60" type="curve"/>
      <point x="473" y="164" type="line"/>
      <point x="389" y="119"/>
      <point x="342.0" y="105.0"/>
      <point x="297.0" y="105.0" type="curve" smooth="yes"/>
      <point x="251.0" y="105.0"/>
      <point x="207.0" y="140.0"/>
      <point x="207" y="225" type="curve" smooth="yes"/>
      <point x="207.0" y="404.0"/>
      <point x="333.1538461538462" y="550.0"/>
      <point x="447" y="550" type="curve" smooth="yes"/>
      <point x="495.2993197278912" y="550.0"/>
      <point x="525" y="539"/>
      <point x="589" y="488" type="curve"/>
      <point x="665" y="593" type="line"/>
      <point x="597" y="651"/>
      <point x="534.4158878504672" y="670.0"/>
      <point x="458.0" y="670.0" type="curve" smooth="yes"/>
      <point x="205" y="670"/>
      <point x="59.0" y="432.0"/>
      <point x="59" y="219" type="curve" smooth="yes"/>
      <point x="59" y="63"/>
      <point x="139" y="-15"/>
    </contour>
    <contour>
      <point x="254.00000000000028" y="16" type="line"/>
      <point x="176.00000000000028" y="-112" type="line"/>
      <point x="179.00000000000028" y="-122" type="line"/>
      <point x="268.0000000000003" y="-126"/>
      <point x="297.0000000000003" y="-137"/>
      <point x="297.0000000000003" y="-155" type="curve" smooth="yes"/>
      <point x="297.0000000000003" y="-180"/>
      <point x="283.5294117647062" y="-190.7058823529412"/>
      <point x="100.00000000000028" y="-206" type="curve"/>
      <point x="101.00000000000028" y="-270" type="line"/>
      <point x="363.07328439873584" y="-248.06435064503975"/>
      <point x="393.0000000000003" y="-208"/>
      <point x="393.0000000000003" y="-140" type="curve" smooth="yes"/>
      <point x="393.0000000000003" y="-99"/>
      <point x="359.0000000000003" y="-70"/>
      <point x="253.00000000000028" y="-60" type="curve"/>
      <point x="241.00000000000028" y="-111" type="line"/>
      <point x="316.0000000000003" y="16" type="line"/>
    </contour>
  </outline>
</glyph>
<glyph name="Eth" format="2">
  <advance width="614"/>
  <unicode hex="00D0"/>
  <outline>
    <contour>
      <point x="37" y="292" type="line"/>
      <point x="341" y="292" type="line"/>
      <point x="363" y="368" type="line"/>
      <point x="59" y="368" type="line"/>
    </contour>
    <contour>
      <point x="218" y="655" type="line"/>
      <point x="30" y="0" type="line"/>
      <point x="67" y="0" type="line"/>
      <point x="183" y="32" type="line"/>
      <point x="347" y="603" type="line"/>
      <point x="298" y="655" type="line"/>
    </contour>
    <contour>
      <point x="312" y="655" type="curve" smooth="yes"/>
      <point x="247" y="655" type="line"/>
      <point x="235" y="537" type="line"/>
      <point x="324" y="537" type="line" smooth="yes"/>
      <point x="429" y="537"/>
      <point x="464" y="507"/>
      <point x="464" y="422" type="curve" smooth="yes"/>
      <point x="464" y="256"/>
      <point x="348" y="120"/>
      <point x="142" y="120" type="curve"/>
      <point x="109" y="120" type="line"/>
      <point x="52" y="0" type="line"/>
      <point x="100" y="0" type="line" smooth="yes"/>
      <point x="284" y="0"/>
      <point x="412" y="53"/>
      <point x="500" y="141" type="curve" smooth="yes"/>
      <point x="575" y="216"/>
      <point x="612" y="315"/>
      <point x="612" y="429" type="curve" smooth="yes"/>
      <point x="612" y="494"/>
      <point x="593" y="546"/>
      <point x="556" y="583" type="curve" smooth="yes"/>
      <point x="510" y="629"/>
      <point x="438" y="655"/>
    </contour>
  </outline>
</glyph>
<glyph name="multiply" format="2">
  <advance width="614"/>
  <unicode hex="00D7"/>
  <outline>
    <contour>
      <point x="121" y="510.0" type="line"/>
      <point x="287" y="296.0" type="line"/>
      <point x="441" y="72.0" type="line"/>
      <point x="547" y="152.0" type="line"/>
      <point x="381" y="368.0" type="line"/>
      <point x="228" y="591.0" type="line"/>
    </contour>
    <contour>
      <point x="97" y="73.0" type="line"/>
      <point x="367" y="288.0" type="line"/>
      <point x="641" y="496.0" type="line"/>
      <point x="570" y="590.0" type="line"/>
      <point x="302" y="376.0" type="line"/>
      <point x="26" y="168.0" type="line"/>
    </contour>
  </outline>
</glyph>
<glyph name="Oslash" format="2">
  <advance width="614"/>
  <unicode hex="00D8"/>
  <outline>
    <contour>
      <point x="512" y="607" type="line"/>
      <point x="466" y="550" type="line"/>
      <point x="509" y="495" type="line"/>
      <point x="536" y="530" type="line"/>
      <point x="548" y="530" type="line"/>
      <point x="721" y="726" type="line"/>
      <point x="601" y="726" type="line"/>
      <point x="507" y="607" type="line"/>
    </contour>
    <contour>
      <point x="155" y="160" type="line"/>
      <point x="127" y="125" type="line"/>
      <point x="115" y="125" type="line"/>
      <point x="-55" y="-71" type="line"/>
      <point x="63" y="-71" type="line"/>
      <point x="159" y="48" type="line"/>
      <point x="154" y="48" type="line"/>
      <point x="201" y="107" type="line"/>
    </contour>
    <contour>
      <point x="407" y="670" type="curve" smooth="yes"/>
      <point x="257" y="670"/>
      <point x="138" y="573"/>
      <point x="78" y="363" type="curve" smooth="yes"/>
      <point x="55" y="279"/>
      <point x="54" y="248"/>
      <point x="54" y="192" type="curve" smooth="yes"/>
      <point x="54" y="65.0"/>
      <point x="138.0" y="-15"/>
      <point x="270" y="-15" type="curve" smooth="yes"/>
      <point x="420" y="-15"/>
      <point x="539" y="82"/>
      <point x="599" y="292" type="curve" smooth="yes"/>
      <point x="622" y="376"/>
      <point x="623" y="407"/>
      <point x="623" y="463" type="curve" smooth="yes"/>
      <point x="623.0" y="591.0"/>
      <point x="542.0" y="670.0"/>
    </contour>
    <contour>
      <point x="279" y="105" type="curve" smooth="yes"/>
      <point x="230" y="105"/>
      <point x="201" y="133"/>
      <point x="201" y="198" type="curve" smooth="yes"/>
      <point x="201" y="242"/>
      <point x="209" y="286"/>
      <point x="226" y="345" type="curve" smooth="yes"/>
      <point x="272" y="505"/>
      <point x="335" y="550"/>
      <point x="397" y="550" type="curve" smooth="yes"/>
      <point x="447" y="550"/>
      <point x="476" y="522"/>
      <point x="476" y="457" type="curve" smooth="yes"/>
      <point x="476" y="413"/>
      <point x="468" y="369"/>
      <point x="451" y="310" type="curve" smooth="yes"/>
      <point x="405" y="150"/>
      <point x="342" y="105"/>
    </contour>
  </outline>
</glyph>
<glyph name="Thorn" format="2">
  <advance width="614"/>
  <unicode hex="00DE"/>
  <outline>
    <contour>
      <point x="198" y="655" type="line"/>
      <point x="10" y="0" type="line"/>
      <point x="155" y="0" type="line"/>
      <point x="343" y="655" type="line"/>
    </contour>
    <contour>
      <point x="264" y="528" type="line"/>
      <point x="230" y="408" type="line"/>
      <point x="388" y="408" type="line" smooth="yes"/>
      <point x="436" y="408"/>
      <point x="459" y="390"/>
      <point x="459" y="352" type="curve" smooth="yes"/>
      <point x="459" y="287"/>
      <point x="415" y="243"/>
      <point x="336" y="243" type="curve" smooth="yes"/>
      <point x="183" y="243" type="line"/>
      <point x="149" y="126" type="line"/>
      <point x="292" y="126" type="line" smooth="yes"/>
      <point x="399" y="126"/>
      <point x="490" y="145"/>
      <point x="547" y="202" type="curve" smooth="yes"/>
      <point x="588" y="243"/>
      <point x="609.0" y="301"/>
      <point x="609" y="357" type="curve" smooth="yes"/>
      <point x="609.0" y="454.0"/>
      <point x="548.0" y="528.0"/>
      <point x="420" y="528.0" type="curve" smooth="yes"/>
    </contour>
  </outline>
</glyph>
<glyph name="germandbls" format="2">
  <advance width="614"/>
  <unicode hex="00DF"/>
  <outline>
    <contour>
      <point x="617" y="464"/>
      <point x="631" y="513"/>
      <point x="631" y="580" type="curve" smooth="yes"/>
      <point x="631" y="660"/>
      <point x="566" y="725"/>
      <point x="438" y="725" type="curve" smooth="yes"/>
      <point x="278" y="725"/>
      <point x="198" y="655"/>
      <point x="160" y="522" type="curve" smooth="yes"/>
      <point x="10" y="0" type="line"/>
      <point x="155" y="0" type="line"/>
      <point x="296" y="491" type="line" smooth="yes"/>
      <point x="316" y="563"/>
      <point x="354" y="605"/>
      <point x="418" y="605" type="curve" smooth="yes"/>
      <point x="462" y="605"/>
      <point x="481" y="584"/>
      <point x="481" y="558" type="curve" smooth="yes"/>
      <point x="481.0" y="526.1930241988721"/>
      <point x="472" y="507"/>
      <point x="351" y="387" type="curve"/>
      <point x="357" y="336" type="line"/>
      <point x="400" y="278" type="line"/>
    </contour>
    <contour>
      <point x="398.0" y="149.12849210032007"/>
      <point x="375.25588140132027" y="128.68023888137378"/>
      <point x="336" y="125" type="curve" smooth="yes"/>
      <point x="274" y="119" type="line"/>
      <point x="274" y="-3" type="line"/>
      <point x="332" y="0" type="line" smooth="yes"/>
      <point x="490" y="8"/>
      <point x="548.0" y="73.0"/>
      <point x="548" y="174" type="curve" smooth="yes"/>
      <point x="548" y="219"/>
      <point x="524" y="274"/>
      <point x="438" y="379" type="curve"/>
      <point x="351" y="387" type="line"/>
      <point x="333" y="324" type="line"/>
      <point x="384" y="244"/>
      <point x="398" y="210"/>
      <point x="398" y="187" type="curve" smooth="yes"/>
    </contour>
  </outline>
</glyph>
<glyph name="ae" format="2">
  <advance width="614"/>
  <unicode hex="00E6"/>
  <outline>
    <contour>
      <point x="319" y="214.0" type="line"/>
      <point x="384" y="383.0" type="line"/>
      <point x="384" y="457"/>
      <point x="358" y="486"/>
      <point x="253" y="486.0" type="curve" smooth="yes"/>
      <point x="209" y="486.0"/>
      <point x="165" y="481.0"/>
      <point x="119" y="472.0" type="curve"/>
      <point x="84" y="371.0" type="line"/>
      <point x="138" y="382"/>
      <point x="172" y="387"/>
      <point x="208" y="387.0" type="curve" smooth="yes"/>
      <point x="244" y="387"/>
      <point x="260" y="373"/>
      <point x="260" y="341.0" type="curve" smooth="yes"/>
      <point x="260" y="330"/>
      <point x="257" y="317"/>
      <point x="231" y="227.0" type="curve"/>
    </contour>
    <contour>
      <point x="346" y="154.0" type="curve" smooth="yes"/>
      <point x="346" y="260"/>
      <point x="404" y="386"/>
      <point x="465" y="386.0" type="curve" smooth="yes"/>
      <point x="487.0" y="386.0"/>
      <point x="497.0" y="378.0"/>
      <point x="497" y="354.0" type="curve" smooth="yes"/>
      <point x="497" y="306"/>
      <point x="466" y="268"/>
      <point x="320" y="263.0" type="curve"/>
      <point x="304" y="188.0" type="line"/>
      <point x="581" y="204"/>
      <point x="623" y="277"/>
      <point x="623.0" y="382" type="curve" smooth="yes"/>
      <point x="623" y="445"/>
      <point x="586" y="486"/>
      <point x="511" y="486.0" type="curve" smooth="yes"/>
      <point x="422" y="486.0"/>
      <point x="311.0" y="414.0"/>
      <point x="262" y="227.0" type="curve"/>
      <point x="231" y="227.0" type="line"/>
      <point x="221" y="196"/>
      <point x="216" y="174"/>
      <point x="216" y="152.0" type="curve" smooth="yes"/>
      <point x="216" y="37"/>
      <point x="268" y="-5"/>
      <point x="461" y="-5.0" type="curve"/>
      <point x="493" y="93.0" type="line"/>
      <point x="383" y="93"/>
      <point x="346" y="107"/>
    </contour>
    <contour>
      <point x="133" y="94.0" type="curve" smooth="yes"/>
      <point x="104" y="94"/>
      <point x="96" y="106"/>
      <point x="96" y="127.0" type="curve" smooth="yes"/>
      <point x="96" y="145"/>
      <point x="100" y="161"/>
      <point x="114" y="175.0" type="curve" smooth="yes"/>
      <point x="130" y="191"/>
      <point x="150" y="196"/>
      <point x="295" y="209.0" type="curve"/>
      <point x="317" y="285.0" type="line"/>
      <point x="107" y="272"/>
      <point x="53" y="263"/>
      <point x="18" y="228.0" type="curve" smooth="yes"/>
      <point x="-15" y="195"/>
      <point x="-25" y="150"/>
      <point x="-25" y="109.0" type="curve" smooth="yes"/>
      <point x="-25" y="47"/>
      <point x="2" y="-5"/>
      <point x="95" y="-5.0" type="curve" smooth="yes"/>
      <point x="141" y="-5"/>
      <point x="172" y="6"/>
      <point x="258" y="61.0" type="curve"/>
      <point x="281" y="61.0" type="line"/>
      <point x="252" y="148.0" type="line"/>
      <point x="182" y="103"/>
      <point x="159" y="94"/>
    </contour>
  </outline>
</glyph>
<glyph name="ccedilla" format="2">
  <advance width="614"/>
  <unicode hex="00E7"/>
  <outline>
    <contour>
      <point x="377" y="368" type="curve" smooth="yes"/>
      <point x="422" y="368"/>
      <point x="460" y="359"/>
      <point x="544" y="319" type="curve"/>
      <point x="600" y="432" type="line"/>
      <point x="507" y="480"/>
      <point x="442" y="490"/>
      <point x="365" y="490" type="curve" smooth="yes"/>
      <point x="268" y="490"/>
      <point x="191" y="453"/>
      <point x="135" y="397" type="curve" smooth="yes"/>
      <point x="76" y="338"/>
      <point x="43" y="256"/>
      <point x="43" y="178" type="curve" smooth="yes"/>
      <point x="43" y="58"/>
      <point x="127" y="-14"/>
      <point x="275" y="-14" type="curve" smooth="yes"/>
      <point x="363" y="-14"/>
      <point x="441" y="4"/>
      <point x="519" y="46" type="curve"/>
      <point x="477" y="158" type="line"/>
      <point x="385" y="118"/>
      <point x="341" y="108"/>
      <point x="294" y="108" type="curve" smooth="yes"/>
      <point x="240" y="108"/>
      <point x="203" y="138"/>
      <point x="203" y="193" type="curve" smooth="yes"/>
      <point x="203" y="237"/>
      <point x="222" y="284"/>
      <point x="257" y="319" type="curve" smooth="yes"/>
      <point x="287" y="349"/>
      <point x="327" y="368"/>
    </contour>
    <contour>
      <point x="211.00000000000017" y="16" type="line"/>
      <point x="133.00000000000017" y="-112" type="line"/>
      <point x="136.00000000000017" y="-122" type="line"/>
      <point x="225.00000000000017" y="-126"/>
      <point x="254.00000000000017" y="-137"/>
      <point x="254.00000000000017" y="-155" type="curve" smooth="yes"/>
      <point x="254.00000000000017" y="-180"/>
      <point x="240.52941176470605" y="-190.7058823529412"/>
      <point x="57.00000000000017" y="-206" type="curve"/>
      <point x="58.00000000000017" y="-270" type="line"/>
      <point x="320.0732843987357" y="-248.06435064503975"/>
      <point x="350.00000000000017" y="-208"/>
      <point x="350.00000000000017" y="-140" type="curve" smooth="yes"/>
      <point x="350.00000000000017" y="-99"/>
      <point x="316.00000000000017" y="-70"/>
      <point x="210.00000000000017" y="-60" type="curve"/>
      <point x="198.00000000000017" y="-111" type="line"/>
      <point x="273.00000000000017" y="16" type="line"/>
    </contour>
  </outline>
</glyph>
<glyph name="eth" format="2">
  <advance width="614"/>
  <unicode hex="00F0"/>
  <outline>
    <contour>
      <point x="514" y="767" type="line"/>
      <point x="366" y="632" type="line"/>
      <point x="376" y="624" type="line"/>
      <point x="234" y="503" type="line"/>
      <point x="279" y="457" type="line"/>
      <point x="429" y="594" type="line"/>
      <point x="420" y="602" type="line"/>
      <point x="562" y="720" type="line"/>
    </contour>
    <contour>
      <point x="441" y="303" type="line"/>
      <point x="420" y="232"/>
      <point x="393" y="183"/>
      <point x="361" y="151" type="curve" smooth="yes"/>
      <point x="329" y="119"/>
      <point x="293" y="105"/>
      <point x="258" y="105" type="curve" smooth="yes"/>
      <point x="213" y="105"/>
      <point x="184" y="130"/>
      <point x="184" y="174" type="curve" smooth="yes"/>
      <point x="184" y="256"/>
      <point x="244" y="316"/>
      <point x="328" y="316" type="curve" smooth="yes"/>
      <point x="370" y="316"/>
      <point x="410" y="309"/>
      <point x="463" y="275" type="curve"/>
      <point x="491" y="370" type="line"/>
      <point x="409" y="412"/>
      <point x="358" y="421"/>
      <point x="297" y="421" type="curve" smooth="yes"/>
      <point x="130" y="421"/>
      <point x="28" y="304"/>
      <point x="28" y="165" type="curve" smooth="yes"/>
      <point x="28" y="55"/>
      <point x="111" y="-15"/>
      <point x="242" y="-15" type="curve" smooth="yes"/>
      <point x="339" y="-15"/>
      <point x="424" y="20"/>
      <point x="488" y="84" type="curve" smooth="yes"/>
      <point x="561" y="157"/>
      <point x="604" y="266"/>
      <point x="604" y="404" type="curve" smooth="yes"/>
      <point x="604" y="546"/>
      <point x="522" y="689"/>
      <point x="309" y="725" type="curve"/>
      <point x="244" y="620" type="line"/>
      <point x="433" y="576"/>
      <point x="463" y="502"/>
      <point x="463" y="423" type="curve" smooth="yes"/>
      <point x="463" y="390"/>
      <point x="458" y="350"/>
      <point x="446" y="303" type="curve"/>
    </contour>
  </outline>
</glyph>
<glyph name="divide" format="2">
  <advance width="614"/>
  <unicode hex="00F7"/>
  <outline>
    <contour>
      <point x="72" y="272" type="line"/>
      <point x="561" y="272" type="line"/>
      <point x="594" y="388" type="line"/>
      <point x="105" y="388" type="line"/>
    </contour>
    <contour>
      <point x="255" y="22" type="curve" smooth="yes"/>
      <point x="339.0" y="22.0"/>
      <point x="376.0" y="62.0"/>
      <point x="376" y="119" type="curve" smooth="yes"/>
      <point x="376" y="159"/>
      <point x="345" y="178"/>
      <point x="281" y="178" type="curve" smooth="yes"/>
      <point x="195.0" y="178.0"/>
      <point x="162" y="130.0"/>
      <point x="162" y="79" type="curve" smooth="yes"/>
      <point x="162" y="39"/>
      <point x="195" y="22"/>
    </contour>
    <contour>
      <point x="388" y="484" type="curve" smooth="yes"/>
      <point x="469.0" y="484.0"/>
      <point x="508.0" y="524.0"/>
      <point x="508" y="582" type="curve" smooth="yes"/>
      <point x="508" y="622"/>
      <point x="477" y="641"/>
      <point x="414" y="641" type="curve" smooth="yes"/>
      <point x="328.0" y="641.0"/>
      <point x="294.0" y="593.0"/>
      <point x="294" y="542" type="curve" smooth="yes"/>
      <point x="294" y="502"/>
      <point x="327" y="484"/>
    </contour>
  </outline>
</glyph>
<glyph name="oslash" format="2">
  <advance width="614"/>
  <unicode hex="00F8"/>
  <outline>
    <contour>
      <point x="399" y="385" type="line"/>
      <point x="451" y="337" type="line"/>
      <point x="497" y="385" type="line"/>
      <point x="513" y="385" type="line"/>
      <point x="682" y="548" type="line"/>
      <point x="540" y="548" type="line"/>
      <point x="418" y="411" type="line"/>
      <point x="424" y="411" type="line"/>
    </contour>
    <contour>
      <point x="159" y="136" type="line"/>
      <point x="99" y="73" type="line"/>
      <point x="84" y="73" type="line"/>
      <point x="-67" y="-71" type="line"/>
      <point x="74" y="-71" type="line"/>
      <point x="181" y="49" type="line"/>
      <point x="175" y="49" type="line"/>
      <point x="203" y="78" type="line"/>
    </contour>
    <contour>
      <point x="356" y="492" type="curve" smooth="yes"/>
      <point x="182" y="492"/>
      <point x="39" y="366"/>
      <point x="39" y="191" type="curve" smooth="yes"/>
      <point x="39" y="72.0"/>
      <point x="140.0" y="-15"/>
      <point x="258" y="-15" type="curve" smooth="yes"/>
      <point x="432" y="-15"/>
      <point x="575" y="111"/>
      <point x="575" y="286" type="curve" smooth="yes"/>
      <point x="575.0" y="403.0"/>
      <point x="473.0" y="492.0"/>
    </contour>
    <contour>
      <point x="284" y="104" type="curve" smooth="yes"/>
      <point x="226" y="104"/>
      <point x="189" y="142"/>
      <point x="189" y="200" type="curve" smooth="yes"/>
      <point x="189" y="287"/>
      <point x="248" y="373"/>
      <point x="330" y="373" type="curve" smooth="yes"/>
      <point x="388" y="373"/>
      <point x="425" y="335"/>
      <point x="425" y="277" type="curve" smooth="yes"/>
      <point x="425" y="190"/>
      <point x="366" y="104"/>
    </contour>
  </outline>
</glyph>
<glyph name="thorn" format="2">
  <advance width="614"/>
  <unicode hex="00FE"/>
  <outline>
    <contour>
      <point x="-61" y="-230" type="line"/>
      <point x="84" y="-230" type="line"/>
      <point x="354" y="710" type="line"/>
      <point x="209" y="710" type="line"/>
    </contour>
    <contour>
      <point x="144.0" y="144.0" type="curve"/>
      <point x="23.0" y="45.0" type="line"/>
      <point x="94" y="10"/>
      <point x="163" y="-8"/>
      <point x="242.0" y="-8.0" type="curve" smooth="yes"/>
      <point x="450.0" y="-8.0"/>
      <point x="585.0" y="127.0"/>
      <point x="585.0" y="300.0" type="curve" smooth="yes"/>
      <point x="585.0" y="429.0"/>
      <point x="501.0" y="490.0"/>
      <point x="420.0" y="490.0" type="curve" smooth="yes"/>
      <point x="360.0" y="490.0"/>
      <point x="303.0" y="468.0"/>
      <point x="236.0" y="410.0" type="curve"/>
      <point x="208.0" y="298.0" type="line"/>
      <point x="272.0" y="351.0"/>
      <point x="314.0" y="371.0"/>
      <point x="350.0" y="371.0" type="curve" smooth="yes"/>
      <point x="401.0" y="371.0"/>
      <point x="433.0" y="340.0"/>
      <point x="433.0" y="279.0" type="curve" smooth="yes"/>
      <point x="433.0" y="193.0"/>
      <point x="366.0" y="111.0"/>
      <point x="248.0" y="111.0" type="curve" smooth="yes"/>
      <point x="210.0" y="111.0"/>
      <point x="172.0" y="123.0"/>
    </contour>
  </outline>
</glyph>
<glyph name="Aogonek" format="2">
  <advance width="614"/>
  <unicode hex="0104"/>
  <outline>
    <contour>
      <point x="144.1299186056098" y="126.0" type="line"/>
      <point x="391.0" y="126.0" type="line"/>
      <point x="394.0" y="239.0" type="line"/>
      <point x="204.53214719635508" y="239.0" type="line"/>
    </contour>
    <contour>
      <point x="111.0" y="0.0" type="line"/>
      <point x="219.0" y="189.0" type="line"/>
      <point x="217.0" y="189.0" type="line"/>
      <point x="413.0" y="553.0" type="line"/>
      <point x="446.81822767201925" y="655.0" type="line"/>
      <point x="335.8182276720192" y="655.0" type="line"/>
      <point x="-40.0" y="0.0" type="line"/>
    </contour>
    <contour>
      <point x="520.0" y="0.0" type="line"/>
      <point x="514.0" y="655.0" type="line"/>
      <point x="412.8182276720192" y="655.0" type="line"/>
      <point x="393.0" y="551.0" type="line"/>
      <point x="388.0" y="185.0" type="line"/>
      <point x="382.0" y="184.0" type="line"/>
      <point x="380.0" y="0.0" type="line"/>
    </contour>
    <contour>
      <point x="299.8674538575873" y="-91"/>
      <point x="274.8674538575873" y="-129"/>
      <point x="274.8674538575873" y="-167" type="curve" smooth="yes"/>
      <point x="274.8674538575873" y="-206"/>
      <point x="300.8674538575873" y="-228"/>
      <point x="375.8674538575873" y="-231" type="curve" smooth="yes"/>
      <point x="447.8674538575873" y="-234" type="line"/>
      <point x="484.8674538575873" y="-141" type="line"/>
      <point x="430.8674538575873" y="-137" type="line" smooth="yes"/>
      <point x="404.8674538575873" y="-135"/>
      <point x="396.8674538575873" y="-130"/>
      <point x="396.8674538575873" y="-118" type="curve" smooth="yes"/>
      <point x="396.8674538575873" y="-100"/>
      <point x="403.8674538575873" y="-86"/>
      <point x="492.8674538575873" y="7" type="curve"/>
      <point x="453.8674538575873" y="29" type="line"/>
    </contour>
  </outline>
</glyph>
<glyph name="dcroat" format="2">
  <advance width="614"/>
  <unicode hex="0111"/>
  <anchor x="254" y="-30" name="below"/>
  <outline>
    <contour>
      <point x="332" y="516" type="line"/>
      <point x="682" y="516" type="line"/>
      <point x="704" y="592" type="line"/>
      <point x="354" y="592" type="line"/>
    </contour>
    <contour>
      <point x="351" y="0" type="line"/>
      <point x="457" y="0" type="line"/>
      <point x="661" y="710" type="line"/>
      <point x="516" y="710" type="line"/>
      <point x="338" y="91" type="line"/>
      <point x="338" y="69" type="line"/>
    </contour>
    <contour>
      <point x="413" y="291" type="curve"/>
      <point x="502" y="382" type="line"/>
      <point x="444" y="413"/>
      <point x="394" y="427"/>
      <point x="328" y="427" type="curve" smooth="yes"/>
      <point x="149" y="427"/>
      <point x="31" y="312"/>
      <point x="31.0" y="166.0" type="curve" smooth="yes"/>
      <point x="31" y="48"/>
      <point x="108" y="-8"/>
      <point x="183" y="-8" type="curve" smooth="yes"/>
      <point x="247" y="-8"/>
      <point x="310" y="11"/>
      <point x="380" y="72" type="curve"/>
      <point x="408" y="184" type="line"/>
      <point x="340" y="128"/>
      <point x="293" y="111"/>
      <point x="253.0" y="111.0" type="curve" smooth="yes"/>
      <point x="210" y="111"/>
      <point x="183" y="136"/>
      <point x="183.0" y="187.0" type="curve" smooth="yes"/>
      <point x="183" y="253"/>
      <point x="234" y="318"/>
      <point x="325" y="318" type="curve" smooth="yes"/>
      <point x="358" y="318"/>
      <point x="388" y="311"/>
    </contour>
  </outline>
</glyph>
<glyph name="Eogonek" format="2">
  <advance width="614"/>
  <unicode hex="0118"/>
  <outline>
    <contour>
      <point x="206.8182276720192" y="655.0" type="line"/>
      <point x="19.0" y="0.0" type="line"/>
      <point x="164.0" y="0.0" type="line"/>
      <point x="351.8182276720192" y="655.0" type="line"/>
    </contour>
    <contour>
      <point x="183.40878138096224" y="535.0" type="line"/>
      <point x="626.4087813809622" y="535.0" type="line"/>
      <point x="660.8182276720192" y="655.0" type="line"/>
      <point x="217.8182276720192" y="655.0" type="line"/>
    </contour>
    <contour>
      <point x="30.0" y="0.0" type="line"/>
      <point x="474.0" y="0.0" type="line"/>
      <point x="508.40944629105695" y="120.0" type="line"/>
      <point x="64.40944629105695" y="120.0" type="line"/>
    </contour>
    <contour>
      <point x="107.42125415487814" y="270.0" type="line"/>
      <point x="518.4212541548782" y="270.0" type="line"/>
      <point x="552.8307004459351" y="390.0" type="line"/>
      <point x="141.8307004459351" y="390.0" type="line"/>
    </contour>
    <contour>
      <point x="252.86745385758815" y="-91"/>
      <point x="227.86745385758815" y="-129"/>
      <point x="227.86745385758815" y="-167" type="curve" smooth="yes"/>
      <point x="227.86745385758815" y="-206"/>
      <point x="253.86745385758815" y="-228"/>
      <point x="328.86745385758815" y="-231" type="curve" smooth="yes"/>
      <point x="400.86745385758815" y="-234" type="line"/>
      <point x="437.86745385758815" y="-141" type="line"/>
      <point x="383.86745385758815" y="-137" type="line" smooth="yes"/>
      <point x="357.86745385758815" y="-135"/>
      <point x="349.86745385758815" y="-130"/>
      <point x="349.86745385758815" y="-118" type="curve" smooth="yes"/>
      <point x="349.86745385758815" y="-100"/>
      <point x="356.86745385758815" y="-86"/>
      <point x="445.86745385758815" y="7" type="curve"/>
      <point x="406.86745385758815" y="29" type="line"/>
    </contour>
  </outline>
</glyph>
<glyph name="eogonek" format="2">
  <advance width="614"/>
  <unicode hex="0119"/>
  <anchor x="380" y="478" name="aboveLCx"/>
  <anchor x="389" y="510" name="aboveLC"/>
  <outline>
    <contour>
      <point x="372" y="379" type="curve" smooth="yes"/>
      <point x="416" y="379"/>
      <point x="440" y="361"/>
      <point x="440" y="333" type="curve" smooth="yes"/>
      <point x="440" y="302"/>
      <point x="418" y="283"/>
      <point x="346" y="275" type="curve" smooth="yes"/>
      <point x="167" y="255" type="line"/>
      <point x="139" y="165" type="line"/>
      <point x="346" y="182" type="line" smooth="yes"/>
      <point x="515" y="196"/>
      <point x="582" y="253"/>
      <point x="582" y="348" type="curve" smooth="yes"/>
      <point x="582" y="436"/>
      <point x="515" y="492"/>
      <point x="390" y="492" type="curve" smooth="yes"/>
      <point x="190" y="492"/>
      <point x="47" y="324"/>
      <point x="47" y="175" type="curve" smooth="yes"/>
      <point x="47" y="43"/>
      <point x="105" y="-13"/>
      <point x="398" y="-13" type="curve"/>
      <point x="431" y="103" type="line"/>
      <point x="216" y="103"/>
      <point x="191" y="116"/>
      <point x="191" y="197" type="curve" smooth="yes"/>
      <point x="191" y="298"/>
      <point x="279" y="379"/>
    </contour>
    <contour>
      <point x="200" y="-167" type="curve" smooth="yes"/>
      <point x="200" y="-206"/>
      <point x="226" y="-228"/>
      <point x="301" y="-231" type="curve" smooth="yes"/>
      <point x="373" y="-234" type="line"/>
      <point x="410" y="-141" type="line"/>
      <point x="356" y="-137" type="line" smooth="yes"/>
      <point x="330" y="-135"/>
      <point x="322" y="-130"/>
      <point x="322" y="-118" type="curve" smooth="yes"/>
      <point x="322" y="-101"/>
      <point x="328" y="-87"/>
      <point x="398" y="-13" type="curve"/>
      <point x="379" y="29" type="line"/>
      <point x="225" y="-91"/>
      <point x="200" y="-129"/>
    </contour>
  </outline>
</glyph>
<glyph name="Hbar" format="2">
  <advance width="614"/>
  <unicode hex="0126"/>
  <outline>
    <contour>
      <point x="85.76311360632806" y="463.0" type="line"/>
      <point x="227.76311360632803" y="463.0" type="line"/>
      <point x="230.19684053512208" y="468.0" type="line"/>
      <point x="516.1968405351221" y="468.0" type="line"/>
      <point x="515.763113606328" y="463.0" type="line"/>
      <point x="657.763113606328" y="463.0" type="line"/>
      <point x="678.6955267667211" y="536.0" type="line"/>
      <point x="533.6955267667211" y="536.0" type="line"/>
      <point x="532.261799837927" y="531.0" type="line"/>
      <point x="246.26179983792701" y="531.0" type="line"/>
      <point x="246.69552676672106" y="536.0" type="line"/>
      <point x="106.69552676672106" y="536.0" type="line"/>
    </contour>
    <contour>
      <point x="217.8182276720192" y="655.0" type="line"/>
      <point x="30.0" y="0.0" type="line"/>
      <point x="169.0" y="0.0" type="line"/>
      <point x="356.8182276720192" y="655.0" type="line"/>
    </contour>
    <contour>
      <point x="496.81822767201925" y="655.0" type="line"/>
      <point x="309.0" y="0.0" type="line"/>
      <point x="448.0" y="0.0" type="line"/>
      <point x="635.8182276720192" y="655.0" type="line"/>
    </contour>
    <contour>
      <point x="150.51771179573177" y="225.0" type="line"/>
      <point x="455.51771179573177" y="225.0" type="line"/>
      <point x="487.05970422920063" y="335.0" type="line"/>
      <point x="182.05970422920063" y="335.0" type="line"/>
    </contour>
  </outline>
</glyph>
<glyph name="hbar" format="2">
  <advance width="614"/>
  <unicode hex="0127"/>
  <outline>
    <contour>
      <point x="442" y="516" type="line"/>
      <point x="464" y="592" type="line"/>
      <point x="114" y="592" type="line"/>
      <point x="92" y="516" type="line"/>
    </contour>
    <contour>
      <point x="370" y="710" type="line"/>
      <point x="225" y="710" type="line"/>
      <point x="21" y="0" type="line"/>
      <point x="166" y="0" type="line"/>
    </contour>
    <contour>
      <point x="200" y="172" type="line"/>
      <point x="328" y="276"/>
      <point x="350" y="291"/>
      <point x="375" y="291" type="curve" smooth="yes"/>
      <point x="392" y="291"/>
      <point x="401" y="282"/>
      <point x="401" y="264" type="curve" smooth="yes"/>
      <point x="401" y="257"/>
      <point x="400" y="249"/>
      <point x="397" y="240" type="curve" smooth="yes"/>
      <point x="328" y="0" type="line"/>
      <point x="473" y="0" type="line"/>
      <point x="550" y="267" type="line" smooth="yes"/>
      <point x="557" y="291"/>
      <point x="560" y="312"/>
      <point x="560" y="331" type="curve" smooth="yes"/>
      <point x="560" y="393"/>
      <point x="525" y="428"/>
      <point x="454" y="428" type="curve" smooth="yes"/>
      <point x="394" y="428"/>
      <point x="351" y="403"/>
      <point x="223" y="304" type="curve"/>
    </contour>
  </outline>
</glyph>
<glyph name="Iogonek" format="2">
  <advance width="614"/>
  <unicode hex="012E"/>
  <outline>
    <contour>
      <point x="362.0" y="655.0" type="line"/>
      <point x="160.0" y="0.0" type="line"/>
      <point x="304.0" y="0.0" type="line"/>
      <point x="506.0" y="655.0" type="line"/>
    </contour>
    <contour>
      <point x="207.0" y="575.0" type="line"/>
      <point x="418.0" y="535.0" type="line"/>
      <point x="595.0" y="575.0" type="line"/>
      <point x="618.0" y="655.0" type="line"/>
      <point x="230.0" y="655.0" type="line"/>
    </contour>
    <contour>
      <point x="71.0" y="80.0" type="line"/>
      <point x="48.0" y="0.0" type="line"/>
      <point x="436.0" y="0.0" type="line"/>
      <point x="459.0" y="80.0" type="line"/>
      <point x="248.0" y="120.0" type="line"/>
    </contour>
    <contour>
      <point x="91.86745385758786" y="-91"/>
      <point x="66.86745385758786" y="-129"/>
      <point x="66.86745385758786" y="-167" type="curve" smooth="yes"/>
      <point x="66.86745385758786" y="-206"/>
      <point x="92.86745385758786" y="-228"/>
      <point x="167.86745385758786" y="-231" type="curve" smooth="yes"/>
      <point x="239.86745385758786" y="-234" type="line"/>
      <point x="276.86745385758786" y="-141" type="line"/>
      <point x="222.86745385758786" y="-137" type="line" smooth="yes"/>
      <point x="196.86745385758786" y="-135"/>
      <point x="188.86745385758786" y="-130"/>
      <point x="188.86745385758786" y="-118" type="curve" smooth="yes"/>
      <point x="188.86745385758786" y="-100"/>
      <point x="195.86745385758786" y="-86"/>
      <point x="284.86745385758786" y="7" type="curve"/>
      <point x="245.86745385758786" y="29" type="line"/>
    </contour>
  </outline>
</glyph>
<glyph name="iogonek" format="2">
  <advance width="614"/>
  <unicode hex="012F"/>
  <outline>
    <contour>
      <point x="334" y="477" type="line"/>
      <point x="165" y="0" type="line"/>
      <point x="310" y="0" type="line"/>
      <point x="479" y="477" type="line"/>
    </contour>
    <contour>
      <point x="182" y="477" type="line"/>
      <point x="147" y="355" type="line"/>
      <point x="376" y="355" type="line"/>
      <point x="411" y="477" type="line"/>
    </contour>
    <contour>
      <point x="60" y="122" type="line"/>
      <point x="25" y="0" type="line"/>
      <point x="484" y="0" type="line"/>
      <point x="519" y="122" type="line"/>
    </contour>
    <contour>
      <point x="411" y="578" type="curve" smooth="yes"/>
      <point x="495" y="578"/>
      <point x="536" y="620"/>
      <point x="536" y="680" type="curve" smooth="yes"/>
      <point x="536" y="727"/>
      <point x="502" y="751"/>
      <point x="441" y="751" type="curve" smooth="yes"/>
      <point x="351" y="751"/>
      <point x="316" y="701"/>
      <point x="316" y="649" type="curve" smooth="yes"/>
      <point x="316" y="602"/>
      <point x="351" y="578"/>
    </contour>
    <contour>
      <point x="107.86745385758763" y="-91"/>
      <point x="82.86745385758763" y="-129"/>
      <point x="82.86745385758763" y="-167" type="curve" smooth="yes"/>
      <point x="82.86745385758763" y="-206"/>
      <point x="108.86745385758763" y="-228"/>
      <point x="183.86745385758763" y="-231" type="curve" smooth="yes"/>
      <point x="255.86745385758763" y="-234" type="line"/>
      <point x="292.86745385758763" y="-141" type="line"/>
      <point x="238.86745385758763" y="-137" type="line" smooth="yes"/>
      <point x="212.86745385758763" y="-135"/>
      <point x="204.86745385758763" y="-130"/>
      <point x="204.86745385758763" y="-118" type="curve" smooth="yes"/>
      <point x="204.86745385758763" y="-100"/>
      <point x="211.86745385758763" y="-86"/>
      <point x="300.86745385758763" y="7" type="curve"/>
      <point x="261.86745385758763" y="29" type="line"/>
    </contour>
  </outline>
</glyph>
<glyph name="dotlessi" format="2">
  <advance width="614"/>
  <unicode hex="0131"/>
  <anchor x="235" y="-35" name="below"/>
  <anchor x="388" y="502" name="aboveLC"/>
  <anchor x="242" y="-9" name="belowogonek"/>
  <outline>
    <contour>
      <point x="334" y="477" type="line"/>
      <point x="165" y="0" type="line"/>
      <point x="310" y="0" type="line"/>
      <point x="479" y="477" type="line"/>
    </contour>
    <contour>
      <point x="182" y="477" type="line"/>
      <point x="147" y="355" type="line"/>
      <point x="376" y="355" type="line"/>
      <point x="411" y="477" type="line"/>
    </contour>
    <contour>
      <point x="60" y="122" type="line"/>
      <point x="25" y="0" type="line"/>
      <point x="484" y="0" type="line"/>
      <point x="519" y="122" type="line"/>
    </contour>
  </outline>
</glyph>
<glyph name="Lslash" format="2">
  <advance width="614"/>
  <unicode hex="0141"/>
  <outline>
    <contour>
      <point x="16.334641751138264" y="186.0" type="line"/>
      <point x="207.4501249561248" y="298.0" type="line"/>
      <point x="204.00918032701907" y="286.0" type="line"/>
      <point x="494.0426412917752" y="457.0" type="line"/>
      <point x="520.7099621673444" y="550.0" type="line"/>
      <point x="227.10301043107057" y="377.0" type="line"/>
      <point x="230.5439550601763" y="389.0" type="line"/>
      <point x="43.00196262670741" y="279.0" type="line"/>
    </contour>
    <contour>
      <point x="227.8182276720192" y="655.0" type="line"/>
      <point x="40.0" y="0.0" type="line"/>
      <point x="185.0" y="0.0" type="line"/>
      <point x="372.8182276720192" y="655.0" type="line"/>
    </contour>
    <contour>
      <point x="84.0" y="0.0" type="line"/>
      <point x="485.0" y="0.0" type="line"/>
      <point x="519.1227009052982" y="119.0" type="line"/>
      <point x="118.12270090529813" y="119.0" type="line"/>
    </contour>
  </outline>
</glyph>
<glyph name="lslash" format="2">
  <advance width="614"/>
  <unicode hex="0142"/>
  <outline>
    <contour>
      <point x="300" y="300" type="line"/>
      <point x="593" y="459" type="line"/>
      <point x="622" y="562" type="line"/>
      <point x="330" y="403" type="line"/>
    </contour>
    <contour>
      <point x="64" y="189" type="line"/>
      <point x="306" y="320" type="line"/>
      <point x="335" y="423" type="line"/>
      <point x="94" y="292" type="line"/>
    </contour>
    <contour>
      <point x="202" y="710" type="line"/>
      <point x="167" y="588" type="line"/>
      <point x="406" y="588" type="line"/>
      <point x="441" y="710" type="line"/>
    </contour>
    <contour>
      <point x="220" y="277" type="line" smooth="yes"/>
      <point x="196" y="210"/>
      <point x="186" y="167"/>
      <point x="186" y="132" type="curve" smooth="yes"/>
      <point x="186" y="37"/>
      <point x="235" y="0"/>
      <point x="368" y="-5" type="curve" smooth="yes"/>
      <point x="482" y="-9" type="line"/>
      <point x="518" y="115" type="line"/>
      <point x="408" y="119" type="line" smooth="yes"/>
      <point x="359" y="121"/>
      <point x="336" y="133"/>
      <point x="336" y="167" type="curve" smooth="yes"/>
      <point x="336" y="187"/>
      <point x="339" y="201"/>
      <point x="359" y="257" type="curve" smooth="yes"/>
      <point x="518" y="710" type="line"/>
      <point x="374" y="710" type="line"/>
    </contour>
  </outline>
</glyph>
<glyph name="Eng" format="2">
  <advance width="614"/>
  <unicode hex="014A"/>
  <outline>
    <contour>
      <point x="346" y="-7" type="line" smooth="yes"/>
      <point x="325" y="-83"/>
      <point x="282" y="-113"/>
      <point x="199" y="-119" type="curve" smooth="yes"/>
      <point x="89" y="-127" type="line"/>
      <point x="89" y="-236" type="line"/>
      <point x="196" y="-230" type="line" smooth="yes"/>
      <point x="370" y="-220"/>
      <point x="423" y="-172"/>
      <point x="474" y="6" type="curve" smooth="yes"/>
      <point x="660" y="655" type="line"/>
      <point x="528" y="655" type="line"/>
    </contour>
    <contour>
      <point x="138" y="0" type="line"/>
      <point x="317" y="655" type="line"/>
      <point x="194" y="655" type="line"/>
      <point x="6" y="0" type="line"/>
    </contour>
    <contour>
      <point x="429" y="0" type="line"/>
      <point x="444" y="82" type="line"/>
      <point x="333" y="655" type="line"/>
      <point x="239" y="655" type="line"/>
      <point x="225" y="571" type="line"/>
      <point x="343" y="-44" type="line"/>
    </contour>
  </outline>
</glyph>
<glyph name="eng" format="2">
  <advance width="614"/>
  <unicode hex="014B"/>
  <outline>
    <contour>
      <point x="484" y="37" type="curve" smooth="yes"/>
      <point x="567" y="327" type="line" smooth="yes"/>
      <point x="574" y="351"/>
      <point x="577" y="372"/>
      <point x="577" y="391" type="curve" smooth="yes"/>
      <point x="577" y="453"/>
      <point x="541" y="488"/>
      <point x="471" y="488" type="curve" smooth="yes"/>
      <point x="408" y="488"/>
      <point x="360" y="466"/>
      <point x="229" y="364" type="curve"/>
      <point x="206" y="232" type="line"/>
      <point x="338" y="339"/>
      <point x="366" y="351"/>
      <point x="392" y="351" type="curve" smooth="yes"/>
      <point x="409" y="351"/>
      <point x="418" y="342"/>
      <point x="418" y="324" type="curve" smooth="yes"/>
      <point x="418" y="318"/>
      <point x="417" y="309"/>
      <point x="414" y="300" type="curve" smooth="yes"/>
      <point x="344" y="54" type="line" smooth="yes"/>
      <point x="311" y="-64"/>
      <point x="284" y="-101"/>
      <point x="181" y="-107" type="curve" smooth="yes"/>
      <point x="99" y="-112" type="line"/>
      <point x="99" y="-236" type="line"/>
      <point x="175" y="-232" type="line" smooth="yes"/>
      <point x="364" y="-222"/>
      <point x="425" y="-169"/>
    </contour>
    <contour>
      <point x="273" y="477" type="line"/>
      <point x="147" y="477" type="line"/>
      <point x="10" y="0" type="line"/>
      <point x="155" y="0" type="line"/>
      <point x="250" y="333" type="line"/>
      <point x="245" y="333" type="line"/>
    </contour>
  </outline>
</glyph>
<glyph name="OE" format="2">
  <advance width="614"/>
  <unicode hex="0152"/>
  <outline>
    <contour>
      <point x="238" y="0" type="curve" smooth="yes"/>
      <point x="309" y="0" type="line"/>
      <point x="326" y="104" type="line"/>
      <point x="272" y="104.0" type="line" smooth="yes"/>
      <point x="193" y="104"/>
      <point x="166" y="128"/>
      <point x="166.0" y="206" type="curve" smooth="yes"/>
      <point x="166" y="273"/>
      <point x="212" y="445"/>
      <point x="271" y="504" type="curve" smooth="yes"/>
      <point x="304" y="537"/>
      <point x="346" y="551"/>
      <point x="426" y="551" type="curve" smooth="yes"/>
      <point x="454" y="551" type="line"/>
      <point x="497" y="655" type="line"/>
      <point x="446" y="655" type="line" smooth="yes"/>
      <point x="316" y="655"/>
      <point x="223" y="632"/>
      <point x="150" y="559" type="curve" smooth="yes"/>
      <point x="69" y="478"/>
      <point x="30" y="300"/>
      <point x="30" y="213" type="curve" smooth="yes"/>
      <point x="30" y="79"/>
      <point x="100" y="0"/>
    </contour>
    <contour>
      <point x="356" y="0" type="line"/>
      <point x="544" y="655" type="line"/>
      <point x="463" y="655" type="line"/>
      <point x="394" y="603" type="line"/>
      <point x="237" y="57" type="line"/>
      <point x="264" y="0" type="line"/>
    </contour>
    <contour>
      <point x="492" y="543" type="line"/>
      <point x="662" y="543" type="line"/>
      <point x="694" y="655" type="line"/>
      <point x="524" y="655" type="line"/>
    </contour>
    <contour>
      <point x="306" y="276" type="line"/>
      <point x="571" y="276" type="line"/>
      <point x="602" y="384" type="line"/>
      <point x="337" y="384" type="line"/>
    </contour>
    <contour>
      <point x="319" y="0" type="line"/>
      <point x="506" y="0" type="line"/>
      <point x="538" y="112" type="line"/>
      <point x="351" y="112" type="line"/>
    </contour>
  </outline>
</glyph>
<glyph name="oe" format="2">
  <advance width="614"/>
  <unicode hex="0153"/>
  <outline>
    <contour>
      <point x="357" y="154" type="curve" smooth="yes"/>
      <point x="357" y="260"/>
      <point x="415" y="386"/>
      <point x="476" y="386" type="curve" smooth="yes"/>
      <point x="498" y="386"/>
      <point x="508" y="378"/>
      <point x="508" y="354" type="curve" smooth="yes"/>
      <point x="508" y="306"/>
      <point x="477" y="268"/>
      <point x="331" y="263" type="curve"/>
      <point x="315" y="188" type="line"/>
      <point x="592" y="204"/>
      <point x="634" y="277"/>
      <point x="634" y="382" type="curve" smooth="yes"/>
      <point x="634" y="445"/>
      <point x="597" y="486"/>
      <point x="522" y="486" type="curve" smooth="yes"/>
      <point x="433" y="486"/>
      <point x="322" y="414"/>
      <point x="273" y="227" type="curve"/>
      <point x="255" y="227" type="line"/>
      <point x="245" y="196"/>
      <point x="240" y="174"/>
      <point x="240" y="152" type="curve" smooth="yes"/>
      <point x="240" y="37"/>
      <point x="289" y="-5"/>
      <point x="472" y="-5" type="curve"/>
      <point x="504" y="93" type="line"/>
      <point x="394" y="93"/>
      <point x="357" y="107"/>
    </contour>
    <contour>
      <point x="133" y="-13" type="curve" smooth="yes"/>
      <point x="250" y="-13"/>
      <point x="351" y="149"/>
      <point x="351" y="335" type="curve" smooth="yes"/>
      <point x="351" y="429"/>
      <point x="311" y="486"/>
      <point x="227" y="486" type="curve" smooth="yes"/>
      <point x="173" y="486"/>
      <point x="135" y="464"/>
      <point x="97" y="426" type="curve" smooth="yes"/>
      <point x="33" y="362"/>
      <point x="-2" y="260"/>
      <point x="-2" y="149" type="curve" smooth="yes"/>
      <point x="-2" y="26"/>
      <point x="42" y="-13"/>
    </contour>
    <contour>
      <point x="136.0" y="138" type="curve" smooth="yes"/>
      <point x="136.0" y="218.0"/>
      <point x="170" y="332"/>
      <point x="204" y="366" type="curve" smooth="yes"/>
      <point x="213" y="375"/>
      <point x="222" y="379"/>
      <point x="233" y="379.0" type="curve" smooth="yes"/>
      <point x="252" y="379"/>
      <point x="262" y="367"/>
      <point x="262.0" y="339" type="curve" smooth="yes"/>
      <point x="262" y="256"/>
      <point x="228.0" y="142.0"/>
      <point x="194.0" y="108.0" type="curve" smooth="yes"/>
      <point x="185.0" y="99.0"/>
      <point x="176.0" y="95.0"/>
      <point x="165.0" y="95.0" type="curve" smooth="yes"/>
      <point x="146.0" y="95.0"/>
      <point x="136.0" y="105.0"/>
    </contour>
  </outline>
</glyph>
<glyph name="Scedilla" format="2">
  <advance width="614"/>
  <unicode hex="015E"/>
  <outline>
    <contour>
      <point x="311" y="111" type="curve" smooth="yes"/>
      <point x="232" y="111"/>
      <point x="142" y="137"/>
      <point x="51.0" y="169.0" type="curve"/>
      <point x="10.0" y="45.0" type="line"/>
      <point x="103" y="12"/>
      <point x="201" y="-13"/>
      <point x="312.0" y="-13.0" type="curve" smooth="yes"/>
      <point x="470.0" y="-13.0"/>
      <point x="551.0" y="68.07407407407408"/>
      <point x="551.0" y="186.0" type="curve" smooth="yes"/>
      <point x="551.0" y="273.3299492385787"/>
      <point x="518.6916338094472" y="310.7045048718361"/>
      <point x="403.0" y="373.0" type="curve" smooth="yes"/>
      <point x="351.0" y="401.0" type="line" smooth="yes"/>
      <point x="298" y="430"/>
      <point x="283.0" y="449.0"/>
      <point x="283.0" y="476.0" type="curve" smooth="yes"/>
      <point x="283" y="516"/>
      <point x="311" y="541"/>
      <point x="386.0" y="541.0" type="curve" smooth="yes"/>
      <point x="442" y="541"/>
      <point x="507" y="527"/>
      <point x="590.0" y="500.0" type="curve"/>
      <point x="627.0" y="622.0" type="line"/>
      <point x="545" y="647"/>
      <point x="477.0" y="664.0"/>
      <point x="390.0" y="664.0" type="curve" smooth="yes"/>
      <point x="225" y="664"/>
      <point x="139.0" y="578.1237113402062"/>
      <point x="139.0" y="468.0" type="curve" smooth="yes"/>
      <point x="139.0" y="384.91803278688525"/>
      <point x="174.36042522592038" y="337.4213094937352"/>
      <point x="268.0" y="287.0" type="curve" smooth="yes"/>
      <point x="320.0" y="259.0" type="line" smooth="yes"/>
      <point x="397" y="218"/>
      <point x="406.0" y="201.0"/>
      <point x="406.0" y="170.0" type="curve" smooth="yes"/>
      <point x="406" y="131"/>
      <point x="380" y="111"/>
    </contour>
    <contour>
      <point x="266" y="16" type="line"/>
      <point x="188" y="-112" type="line"/>
      <point x="191" y="-122" type="line"/>
      <point x="280" y="-126"/>
      <point x="309" y="-137"/>
      <point x="309" y="-155" type="curve" smooth="yes"/>
      <point x="309" y="-180"/>
      <point x="295.52941176470586" y="-190.7058823529412"/>
      <point x="112" y="-206" type="curve"/>
      <point x="113" y="-270" type="line"/>
      <point x="375.07328439873555" y="-248.06435064503975"/>
      <point x="405" y="-208"/>
      <point x="405" y="-140" type="curve" smooth="yes"/>
      <point x="405" y="-99"/>
      <point x="371" y="-70"/>
      <point x="265" y="-60" type="curve"/>
      <point x="253" y="-111" type="line"/>
      <point x="328" y="16" type="line"/>
    </contour>
  </outline>
</glyph>
<glyph name="scedilla" format="2">
  <advance width="614"/>
  <unicode hex="015F"/>
  <outline>
    <contour>
      <point x="521" y="148" type="curve" smooth="yes"/>
      <point x="521.0" y="220.43150684931507"/>
      <point x="491.5191897811308" y="249.787558799641"/>
      <point x="368" y="289" type="curve" smooth="yes"/>
      <point x="305" y="309" type="line" smooth="yes"/>
      <point x="264" y="322"/>
      <point x="252.0" y="324.0"/>
      <point x="252" y="346" type="curve" smooth="yes"/>
      <point x="252.0" y="367.0"/>
      <point x="274.0909090909091" y="378.0"/>
      <point x="360" y="378" type="curve" smooth="yes"/>
      <point x="397.0" y="378.0"/>
      <point x="459" y="372"/>
      <point x="539" y="359" type="curve"/>
      <point x="572" y="475" type="line"/>
      <point x="492" y="487"/>
      <point x="414.0" y="491.0"/>
      <point x="365" y="491" type="curve" smooth="yes"/>
      <point x="178.72614107883817" y="491.0"/>
      <point x="104.0" y="430.0"/>
      <point x="104" y="338" type="curve" smooth="yes"/>
      <point x="104.0" y="267.0"/>
      <point x="132" y="235"/>
      <point x="250" y="199" type="curve" smooth="yes"/>
      <point x="316" y="179" type="line" smooth="yes"/>
      <point x="362" y="165"/>
      <point x="374" y="159"/>
      <point x="374" y="137" type="curve" smooth="yes"/>
      <point x="374.0" y="115.0"/>
      <point x="348.625" y="99.0"/>
      <point x="258" y="99" type="curve" smooth="yes"/>
      <point x="215.79710144927535" y="99.0"/>
      <point x="133" y="107"/>
      <point x="34" y="123" type="curve"/>
      <point x="8" y="6" type="line"/>
      <point x="91" y="-6"/>
      <point x="156.04255319148933" y="-14.0"/>
      <point x="253" y="-14" type="curve" smooth="yes"/>
      <point x="430.2258064516129" y="-14.0"/>
      <point x="521.0" y="59.261146496815286"/>
    </contour>
    <contour>
      <point x="206" y="16" type="line"/>
      <point x="128" y="-112" type="line"/>
      <point x="131" y="-122" type="line"/>
      <point x="220" y="-126"/>
      <point x="249" y="-137"/>
      <point x="249" y="-155" type="curve" smooth="yes"/>
      <point x="249" y="-180"/>
      <point x="235.52941176470588" y="-190.7058823529412"/>
      <point x="52" y="-206" type="curve"/>
      <point x="53" y="-270" type="line"/>
      <point x="315.07328439873555" y="-248.06435064503975"/>
      <point x="345" y="-208"/>
      <point x="345" y="-140" type="curve" smooth="yes"/>
      <point x="345" y="-99"/>
      <point x="311" y="-70"/>
      <point x="205" y="-60" type="curve"/>
      <point x="193" y="-111" type="line"/>
      <point x="268" y="16" type="line"/>
    </contour>
  </outline>
</glyph>
<glyph name="Tcedilla" format="2">
  <advance width="614"/>
  <unicode hex="0162"/>
  <outline>
    <contour>
      <point x="326.0" y="568.0" type="line"/>
      <point x="163.0" y="0.0" type="line"/>
      <point x="307.0" y="0.0" type="line"/>
      <point x="470.0" y="568.0" type="line"/>
    </contour>
    <contour>
      <point x="120.0" y="535.0" type="line"/>
      <point x="656.0" y="535.0" type="line"/>
      <point x="691.0" y="655.0" type="line"/>
      <point x="155.0" y="655.0" type="line"/>
    </contour>
    <contour>
      <point x="216.9999999999999" y="22" type="line"/>
      <point x="138.9999999999999" y="-106" type="line"/>
      <point x="141.9999999999999" y="-116" type="line"/>
      <point x="230.9999999999999" y="-120"/>
      <point x="259.9999999999999" y="-131"/>
      <point x="259.9999999999999" y="-149" type="curve" smooth="yes"/>
      <point x="259.9999999999999" y="-174"/>
      <point x="246.52941176470577" y="-184.7058823529412"/>
      <point x="62.999999999999886" y="-200" type="curve"/>
      <point x="63.999999999999886" y="-264" type="line"/>
      <point x="326.07328439873544" y="-242.06435064503975"/>
      <point x="355.9999999999999" y="-202"/>
      <point x="355.9999999999999" y="-134" type="curve" smooth="yes"/>
      <point x="355.9999999999999" y="-93"/>
      <point x="321.9999999999999" y="-64"/>
      <point x="215.9999999999999" y="-54" type="curve"/>
      <point x="203.9999999999999" y="-105" type="line"/>
      <point x="278.9999999999999" y="22" type="line"/>
    </contour>
  </outline>
</glyph>
